Triodion-Regular.ufo
<glyph name="quotesingle" format="2">
  <advance width="212"/>
  <unicode hex="0027"/>
  <outline>
    <contour>
      <point x="83.1543" y="347" type="line"/>
      <point x="73.1592" y="342.747"/>
      <point x="54.8691" y="338"/>
      <point x="39.9805" y="338" type="curve"/>
      <point x="107.26" y="594" type="line"/>
      <point x="110.522" y="596.412"/>
      <point x="138.107" y="606.868"/>
      <point x="144.913" y="608.9" type="curve" smooth="yes"/>
      <point x="156.406" y="612.328"/>
      <point x="163.413" y="613.9"/>
      <point x="178.02" y="616" type="curve"/>
      <point x="191.846" y="607" type="line"/>
    </contour>
  </outline>
</glyph>
<glyph name="parenright" format="2">
  <advance width="319"/>
  <unicode hex="0029"/>
  <outline>
    <contour>
      <point x="-44" y="-265" type="line"/>
      <point x="124.94" y="-220.653"/>
      <point x="153.247" y="88.5496"/>
      <point x="153.247" y="323.171" type="curve" smooth="yes"/>
      <point x="153.247" y="548.409"/>
      <point x="124.616" y="815.372"/>
      <point x="-44" y="858" type="curve"/>
      <point x="-44" y="877" type="line"/>
      <point x="145.708" y="842.418"/>
      <point x="268.054" y="543.267"/>
      <point x="268.054" y="294.976" type="curve" smooth="yes"/>
      <point x="268.054" y="46.995"/>
      <point x="146.276" y="-266.734"/>
      <point x="-44" y="-289" type="curve"/>
    </contour>
  </outline>
</glyph>
<glyph name="comma" format="2">
  <advance width="305"/>
  <unicode hex="002C"/>
  <outline>
    <contour>
      <point x="46.4335" y="15.7412" type="curve" smooth="yes"/>
      <point x="33.873" y="15.7412"/>
      <point x="28.9904" y="31.248"/>
      <point x="28.9904" y="41.2192" type="curve" smooth="yes"/>
      <point x="28.9904" y="104.116"/>
      <point x="105.399" y="190"/>
      <point x="167" y="190" type="curve" smooth="yes"/>
      <point x="241" y="190"/>
      <point x="279" y="109"/>
      <point x="279" y="36" type="curve" smooth="yes"/>
      <point x="279" y="-47"/>
      <point x="224" y="-137"/>
      <point x="158" y="-183" type="curve" smooth="yes"/>
      <point x="151.15" y="-187.795"/>
      <point x="143.832" y="-192.12"/>
      <point x="136.686" y="-192.12" type="curve" smooth="yes"/>
      <point x="127.333" y="-192.12"/>
      <point x="121.215" y="-184.861"/>
      <point x="121.215" y="-175.877" type="curve" smooth="yes"/>
      <point x="121.215" y="-167.442"/>
      <point x="125.298" y="-157.936"/>
      <point x="129" y="-153" type="curve" smooth="yes"/>
      <point x="162.029" y="-105.52"/>
      <point x="186.047" y="-64.1244"/>
      <point x="186.047" y="-10.3745" type="curve" smooth="yes"/>
      <point x="186.047" y="37.8008"/>
      <point x="170.701" y="81"/>
      <point x="130" y="81" type="curve" smooth="yes"/>
      <point x="103" y="81"/>
      <point x="80" y="57"/>
      <point x="69" y="32" type="curve" smooth="yes"/>
      <point x="65.3513" y="24.7027"/>
      <point x="55.0463" y="15.7412"/>
    </contour>
  </outline>
</glyph>
<glyph name="hyphen" format="2">
  <advance width="360"/>
  <unicode hex="002D"/>
  <outline>
    <contour>
      <point x="333" y="165" type="line"/>
      <point x="27" y="165" type="line"/>
      <point x="27" y="235" type="line"/>
      <point x="333" y="235" type="line"/>
    </contour>
  </outline>
</glyph>
<glyph name="semicolon" format="2">
  <advance width="314"/>
  <unicode hex="003B"/>
  <outline>
    <contour>
      <point x="17" y="51" type="curve" smooth="yes"/>
      <point x="29" y="119"/>
      <point x="111" y="190"/>
      <point x="182" y="190" type="curve" smooth="yes"/>
      <point x="258" y="190"/>
      <point x="294" y="111"/>
      <point x="294" y="36" type="curve" smooth="yes"/>
      <point x="294" y="-47"/>
      <point x="239" y="-137"/>
      <point x="173" y="-183" type="curve" smooth="yes"/>
      <point x="166.15" y="-187.795"/>
      <point x="158.832" y="-192.12"/>
      <point x="151.686" y="-192.12" type="curve" smooth="yes"/>
      <point x="148.4" y="-192.12"/>
      <point x="145.15" y="-191.205"/>
      <point x="142" y="-189" type="curve" smooth="yes"/>
      <point x="137.787" y="-185.936"/>
      <point x="136.215" y="-181.113"/>
      <point x="136.215" y="-175.877" type="curve" smooth="yes"/>
      <point x="136.215" y="-167.442"/>
      <point x="140.298" y="-157.936"/>
      <point x="144" y="-153" type="curve" smooth="yes"/>
      <point x="176" y="-107"/>
      <point x="201" y="-65"/>
      <point x="201" y="-15" type="curve" smooth="yes"/>
      <point x="201" y="39"/>
      <point x="181" y="88"/>
      <point x="135" y="88" type="curve" smooth="yes"/>
      <point x="101" y="88"/>
      <point x="74" y="76"/>
      <point x="53" y="43" type="curve" smooth="yes"/>
      <point x="48" y="35"/>
      <point x="39" y="24"/>
      <point x="28" y="27" type="curve" smooth="yes"/>
      <point x="18" y="30"/>
      <point x="15" y="42"/>
    </contour>
    <contour>
      <point x="149" y="459" type="curve" smooth="yes"/>
      <point x="188" y="459"/>
      <point x="221" y="426"/>
      <point x="221" y="387" type="curve" smooth="yes"/>
      <point x="221" y="348"/>
      <point x="188" y="316"/>
      <point x="149" y="316" type="curve" smooth="yes"/>
      <point x="110" y="316"/>
      <point x="77" y="348"/>
      <point x="77" y="387" type="curve" smooth="yes"/>
      <point x="77" y="426"/>
      <point x="110" y="459"/>
    </contour>
  </outline>
</glyph>
<glyph name="backslash" format="2">
  <advance width="405"/>
  <unicode hex="005C"/>
  <outline>
    <contour>
      <point x="420" y="-281" type="line"/>
      <point x="361" y="-281" type="line"/>
      <point x="-15" y="768" type="line"/>
      <point x="44" y="768" type="line"/>
    </contour>
  </outline>
</glyph>
<glyph name="bracketright" format="2">
  <advance width="304"/>
  <unicode hex="005D"/>
  <outline>
    <contour>
      <point x="0" y="800" type="line"/>
      <point x="248" y="800" type="line"/>
      <point x="248" y="-240" type="line"/>
      <point x="0" y="-240" type="line"/>
      <point x="0" y="-200" type="line"/>
      <point x="166" y="-200" type="line"/>
      <point x="166" y="760" type="line"/>
      <point x="0" y="760" type="line"/>
    </contour>
  </outline>
</glyph>
<glyph name="gravecomb" format="2">
  <advance width="1"/>
  <unicode hex="0300"/>
  <anchor x="-143" y="504" name="_Stacking"/>
  <anchor x="-182" y="850" name="Stacking"/>
  <anchor x="-145" y="503" name="_Diacritic"/>
  <outline>
    <contour>
      <point x="-120" y="544" type="line" smooth="yes"/>
      <point x="-118.517" y="541.033"/>
      <point x="-117.828" y="537.639"/>
      <point x="-117.828" y="534.149" type="curve" smooth="yes"/>
      <point x="-117.828" y="523.522"/>
      <point x="-124.214" y="512.011"/>
      <point x="-134" y="509" type="curve" smooth="yes"/>
      <point x="-137.005" y="508.075"/>
      <point x="-140.223" y="507.632"/>
      <point x="-143.482" y="507.632" type="curve" smooth="yes"/>
      <point x="-154.324" y="507.632"/>
      <point x="-165.618" y="512.542"/>
      <point x="-171" y="521" type="curve" smooth="yes"/>
      <point x="-308" y="735" type="line" smooth="yes"/>
      <point x="-312" y="742"/>
      <point x="-303" y="752"/>
      <point x="-295" y="752" type="curve" smooth="yes"/>
      <point x="-238" y="752" type="line" smooth="yes"/>
      <point x="-228" y="752"/>
      <point x="-220" y="746"/>
      <point x="-216" y="738" type="curve" smooth="yes"/>
    </contour>
  </outline>
</glyph>
<glyph name="acutecomb" format="2">
  <advance width="1"/>
  <unicode hex="0301"/>
  <anchor x="-232" y="861" name="Stacking"/>
  <anchor x="-193" y="515" name="_Stacking"/>
  <anchor x="-235" y="514" name="_Diacritic"/>
  <outline>
    <contour>
      <point x="-209" y="534" type="line" smooth="yes"/>
      <point x="-213.919" y="525.802"/>
      <point x="-224.214" y="518.948"/>
      <point x="-234.928" y="518.948" type="curve" smooth="yes"/>
      <point x="-237.282" y="518.948"/>
      <point x="-239.657" y="519.279"/>
      <point x="-242" y="520" type="curve" smooth="yes"/>
      <point x="-251.085" y="522.795"/>
      <point x="-255.286" y="532.916"/>
      <point x="-255.286" y="542.854" type="curve" smooth="yes"/>
      <point x="-255.286" y="547.137"/>
      <point x="-254.506" y="551.386"/>
      <point x="-253" y="555" type="curve" smooth="yes"/>
      <point x="-166" y="751" type="line" smooth="yes"/>
      <point x="-162" y="759"/>
      <point x="-154" y="765"/>
      <point x="-144" y="765" type="curve" smooth="yes"/>
      <point x="-87" y="765" type="line" smooth="yes"/>
      <point x="-79" y="765"/>
      <point x="-70" y="755"/>
      <point x="-74" y="748" type="curve" smooth="yes"/>
    </contour>
  </outline>
</glyph>
<glyph name="uni0307" format="2">
  <advance width="1"/>
  <unicode hex="0307"/>
  <anchor x="-182" y="866" name="Stacking"/>
  <anchor x="-143" y="520" name="_Stacking"/>
  <anchor x="-145" y="519" name="_Diacritic"/>
  <outline>
    <contour>
      <point x="-204" y="643" type="line" smooth="yes"/>
      <point x="-206" y="649"/>
      <point x="-202" y="656"/>
      <point x="-195" y="656" type="curve" smooth="yes"/>
      <point x="-149" y="656" type="line" smooth="yes"/>
      <point x="-144" y="656"/>
      <point x="-139" y="648"/>
      <point x="-138" y="643" type="curve" smooth="yes"/>
      <point x="-109" y="534" type="line" smooth="yes"/>
      <point x="-107" y="528"/>
      <point x="-113" y="521"/>
      <point x="-120" y="521" type="curve" smooth="yes"/>
      <point x="-162" y="521" type="line" smooth="yes"/>
      <point x="-167" y="521"/>
      <point x="-174" y="529"/>
      <point x="-175" y="534" type="curve" smooth="yes"/>
    </contour>
  </outline>
</glyph>
<glyph name="uni030F" format="2">
  <advance width="1"/>
  <unicode hex="030F"/>
  <anchor x="-272" y="865" name="Stacking"/>
  <anchor x="-233" y="519" name="_Stacking"/>
  <anchor x="-233" y="521" name="_Diacritic"/>
  <outline>
    <contour>
      <point x="-234" y="643" type="line" smooth="yes"/>
      <point x="-236" y="649"/>
      <point x="-232" y="656"/>
      <point x="-225" y="656" type="curve" smooth="yes"/>
      <point x="-176" y="656" type="line" smooth="yes"/>
      <point x="-171" y="656"/>
      <point x="-164" y="648"/>
      <point x="-163" y="643" type="curve" smooth="yes"/>
      <point x="-134" y="534" type="line" smooth="yes"/>
      <point x="-132" y="528"/>
      <point x="-138" y="521"/>
      <point x="-145" y="521" type="curve" smooth="yes"/>
      <point x="-192" y="521" type="line" smooth="yes"/>
      <point x="-197" y="521"/>
      <point x="-204" y="529"/>
      <point x="-205" y="534" type="curve" smooth="yes"/>
    </contour>
    <contour>
      <point x="-360" y="643" type="line" smooth="yes"/>
      <point x="-362" y="649"/>
      <point x="-358" y="656"/>
      <point x="-351" y="656" type="curve" smooth="yes"/>
      <point x="-302" y="656" type="line" smooth="yes"/>
      <point x="-297" y="656"/>
      <point x="-290" y="648"/>
      <point x="-289" y="643" type="curve" smooth="yes"/>
      <point x="-260" y="534" type="line" smooth="yes"/>
      <point x="-258" y="528"/>
      <point x="-264" y="521"/>
      <point x="-271" y="521" type="curve" smooth="yes"/>
      <point x="-318" y="521" type="line" smooth="yes"/>
      <point x="-323" y="521"/>
      <point x="-330" y="529"/>
      <point x="-331" y="534" type="curve" smooth="yes"/>
    </contour>
  </outline>
</glyph>
<glyph name="uni0360" format="2">
  <advance width="1"/>
  <unicode hex="0360"/>
  <anchor x="-275" y="542" name="_Diacritic"/>
  <anchor x="-272" y="889" name="Stacking"/>
  <anchor x="-275" y="543" name="_Stacking"/>
  <outline>
    <contour>
      <point x="-427" y="546" type="line" smooth="yes"/>
      <point x="-427" y="540"/>
      <point x="-433" y="535"/>
      <point x="-439" y="535" type="curve" smooth="yes"/>
      <point x="-518" y="535" type="line" smooth="yes"/>
      <point x="-525" y="535"/>
      <point x="-531" y="541"/>
      <point x="-531" y="548" type="curve" smooth="yes"/>
      <point x="-531" y="632" type="line" smooth="yes"/>
      <point x="-533" y="632"/>
      <point x="-535" y="633"/>
      <point x="-537" y="633" type="curve" smooth="yes"/>
      <point x="-549.116" y="634.347"/>
      <point x="-554.587" y="644.956"/>
      <point x="-554.587" y="655.883" type="curve" smooth="yes"/>
      <point x="-554.587" y="668.352"/>
      <point x="-547.464" y="681.232"/>
      <point x="-534.962" y="681.232" type="curve" smooth="yes"/>
      <point x="-534.006" y="681.232"/>
      <point x="-533.019" y="681.156"/>
      <point x="-532" y="681" type="curve" smooth="yes"/>
      <point x="-485" y="673"/>
      <point x="-409" y="668"/>
      <point x="-338" y="664" type="curve" smooth="yes"/>
      <point x="-319" y="663"/>
      <point x="-191" y="662"/>
      <point x="-173" y="662" type="curve"/>
      <point x="-173" y="751" type="line" smooth="yes"/>
      <point x="-173" y="758"/>
      <point x="-167" y="764"/>
      <point x="-160" y="764" type="curve" smooth="yes"/>
      <point x="-81" y="764" type="line" smooth="yes"/>
      <point x="-75" y="764"/>
      <point x="-69" y="759"/>
      <point x="-69" y="753" type="curve" smooth="yes"/>
      <point x="-69" y="661" type="line"/>
      <point x="-64" y="661"/>
      <point x="-59" y="662"/>
      <point x="-54" y="662" type="curve" smooth="yes"/>
      <point x="-40.5" y="662"/>
      <point x="-33.75" y="652"/>
      <point x="-33.75" y="642" type="curve" smooth="yes"/>
      <point x="-33.75" y="632"/>
      <point x="-40.5" y="622"/>
      <point x="-54" y="622" type="curve" smooth="yes"/>
      <point x="-71.1484" y="621.732"/>
      <point x="-87.0771" y="621.607"/>
      <point x="-102.458" y="621.607" type="curve" smooth="yes"/>
      <point x="-169.112" y="621.607"/>
      <point x="-357.361" y="623.599"/>
      <point x="-427" y="626" type="curve"/>
    </contour>
  </outline>
</glyph>
<glyph name="uni0400" format="2">
  <advance width="540"/>
  <unicode hex="0400"/>
  <anchor x="280" y="1034" name="Yerok"/>
  <anchor x="280" y="1034" name="Diacritic"/>
  <outline>
    <contour>
      <point x="328" y="764" type="curve" smooth="yes"/>
      <point x="328" y="750"/>
      <point x="319" y="738"/>
      <point x="303" y="738" type="curve" smooth="yes"/>
      <point x="292" y="738"/>
      <point x="280" y="743"/>
      <point x="275" y="751" type="curve" smooth="yes"/>
      <point x="138" y="965" type="line" smooth="yes"/>
      <point x="134" y="972"/>
      <point x="143" y="982"/>
      <point x="151" y="982" type="curve" smooth="yes"/>
      <point x="208" y="982" type="line" smooth="yes"/>
      <point x="218" y="982"/>
      <point x="226" y="976"/>
      <point x="230" y="968" type="curve" smooth="yes"/>
      <point x="326" y="774" type="line" smooth="yes"/>
      <point x="327" y="771"/>
      <point x="328" y="768"/>
    </contour>
    <contour>
      <point x="97" y="184" type="curve" smooth="yes"/>
      <point x="61" y="260"/>
      <point x="40" y="309"/>
      <point x="40" y="397" type="curve" smooth="yes"/>
      <point x="40" y="551"/>
      <point x="134" y="684"/>
      <point x="284" y="684" type="curve" smooth="yes"/>
      <point x="424" y="684"/>
      <point x="489" y="604"/>
      <point x="489" y="531" type="curve"/>
      <point x="513" y="531" type="line"/>
      <point x="513" y="491" type="line"/>
      <point x="346" y="491" type="line"/>
      <point x="346" y="531" type="line"/>
      <point x="380" y="531" type="line"/>
      <point x="380" y="574"/>
      <point x="363" y="645"/>
      <point x="283" y="645" type="curve" smooth="yes"/>
      <point x="183" y="645"/>
      <point x="152" y="530"/>
      <point x="152" y="430" type="curve" smooth="yes"/>
      <point x="152" y="393"/>
      <point x="159" y="362"/>
      <point x="168" y="333" type="curve"/>
      <point x="201" y="397"/>
      <point x="257" y="437"/>
      <point x="330" y="437" type="curve" smooth="yes"/>
      <point x="445" y="437"/>
      <point x="493" y="363"/>
      <point x="493" y="264" type="curve"/>
      <point x="378" y="264" type="line"/>
      <point x="378.021" y="265.285"/>
      <point x="378.031" y="266.568"/>
      <point x="378.031" y="267.849" type="curve" smooth="yes"/>
      <point x="378.031" y="328.379"/>
      <point x="354.777" y="384"/>
      <point x="297" y="384" type="curve" smooth="yes"/>
      <point x="251" y="384"/>
      <point x="209" y="327"/>
      <point x="185" y="271" type="curve"/>
      <point x="202" y="198"/>
      <point x="206" y="123"/>
      <point x="206" y="68" type="curve" smooth="yes"/>
      <point x="206" y="60"/>
      <point x="206" y="52"/>
      <point x="206" y="45" type="curve"/>
      <point x="298" y="45"/>
      <point x="366" y="116"/>
      <point x="374" y="175" type="curve"/>
      <point x="488" y="175" type="line"/>
      <point x="472" y="67"/>
      <point x="364" y="-2"/>
      <point x="150" y="-2" type="curve"/>
      <point x="150.019" y="-0.655035"/>
      <point x="150.028" y="0.683649"/>
      <point x="150.028" y="2.01621" type="curve" smooth="yes"/>
      <point x="150.028" y="72.0195"/>
      <point x="124.477" y="125.121"/>
    </contour>
  </outline>
</glyph>
<glyph name="uni0409" format="2">
  <advance width="803"/>
  <unicode hex="0409"/>
  <anchor x="489" y="737" name="Yerok"/>
  <anchor x="409" y="737" name="Diacritic"/>
  <outline>
    <contour>
      <point x="621" y="40" type="line"/>
      <point x="621" y="301" type="line"/>
      <point x="605" y="302"/>
      <point x="590" y="305"/>
      <point x="574" y="309" type="curve" smooth="yes"/>
      <point x="530" y="318"/>
      <point x="499" y="324"/>
      <point x="459" y="335" type="curve"/>
      <point x="459" y="40" type="line"/>
    </contour>
    <contour>
      <point x="286" y="0" type="line"/>
      <point x="286" y="40" type="line"/>
      <point x="341" y="40" type="line"/>
      <point x="341" y="420" type="line"/>
      <point x="330" y="398"/>
      <point x="313" y="380"/>
      <point x="299" y="354" type="curve" smooth="yes"/>
      <point x="272" y="305"/>
      <point x="256" y="277"/>
      <point x="235" y="226" type="curve" smooth="yes"/>
      <point x="208" y="160"/>
      <point x="194" y="123"/>
      <point x="194" y="49" type="curve" smooth="yes"/>
      <point x="194" y="45"/>
      <point x="194" y="44"/>
      <point x="194" y="40" type="curve"/>
      <point x="239" y="40" type="line"/>
      <point x="239" y="0" type="line"/>
      <point x="20" y="0" type="line"/>
      <point x="20" y="40" type="line"/>
      <point x="64" y="40" type="line"/>
      <point x="64" y="129"/>
      <point x="95" y="197"/>
      <point x="135" y="256" type="curve" smooth="yes"/>
      <point x="175" y="312"/>
      <point x="209" y="338"/>
      <point x="254" y="389" type="curve" smooth="yes"/>
      <point x="294" y="434"/>
      <point x="327" y="475"/>
      <point x="341" y="529" type="curve"/>
      <point x="341" y="636" type="line"/>
      <point x="286" y="636" type="line"/>
      <point x="286" y="676" type="line"/>
      <point x="514" y="676" type="line"/>
      <point x="514" y="636" type="line"/>
      <point x="459" y="636" type="line"/>
      <point x="459" y="376" type="line"/>
      <point x="504" y="362"/>
      <point x="535" y="358"/>
      <point x="580" y="349" type="curve" smooth="yes"/>
      <point x="638" y="338"/>
      <point x="687" y="334"/>
      <point x="764" y="334" type="curve"/>
      <point x="764" y="294" type="line"/>
      <point x="739" y="294" type="line"/>
      <point x="739" y="40" type="line"/>
      <point x="783" y="40" type="line"/>
      <point x="783" y="0" type="line"/>
    </contour>
  </outline>
</glyph>
<glyph name="uni040D" format="2">
  <advance width="542"/>
  <unicode hex="040D"/>
  <anchor x="280" y="1024" name="Yerok"/>
  <anchor x="280" y="1024" name="Diacritic"/>
  <outline>
    <contour>
      <point x="328.172" y="764.149" type="curve" smooth="yes"/>
      <point x="328.172" y="749.732"/>
      <point x="318.684" y="737.632"/>
      <point x="302.518" y="737.632" type="curve" smooth="yes"/>
      <point x="291.676" y="737.632"/>
      <point x="280.382" y="742.542"/>
      <point x="275" y="751" type="curve" smooth="yes"/>
      <point x="138" y="965" type="line" smooth="yes"/>
      <point x="134" y="972"/>
      <point x="143" y="982"/>
      <point x="151" y="982" type="curve" smooth="yes"/>
      <point x="208" y="982" type="line" smooth="yes"/>
      <point x="218" y="982"/>
      <point x="226" y="976"/>
      <point x="230" y="968" type="curve" smooth="yes"/>
      <point x="326" y="774" type="line" smooth="yes"/>
      <point x="327.483" y="771.033"/>
      <point x="328.172" y="767.639"/>
    </contour>
    <contour>
      <point x="248" y="0" type="line"/>
      <point x="22" y="0" type="line"/>
      <point x="22" y="40" type="line"/>
      <point x="76" y="40" type="line"/>
      <point x="76" y="636" type="line"/>
      <point x="22" y="636" type="line"/>
      <point x="22" y="676" type="line"/>
      <point x="248" y="676" type="line"/>
      <point x="248" y="636" type="line"/>
      <point x="194" y="636" type="line"/>
      <point x="194" y="340" type="line"/>
      <point x="348" y="416" type="line"/>
      <point x="348" y="636" type="line"/>
      <point x="294" y="636" type="line"/>
      <point x="294" y="676" type="line"/>
      <point x="520" y="676" type="line"/>
      <point x="520" y="636" type="line"/>
      <point x="466" y="636" type="line"/>
      <point x="466" y="40" type="line"/>
      <point x="520" y="40" type="line"/>
      <point x="520" y="0" type="line"/>
      <point x="294" y="0" type="line"/>
      <point x="294" y="40" type="line"/>
      <point x="348" y="40" type="line"/>
      <point x="348" y="371" type="line"/>
      <point x="194" y="295" type="line"/>
      <point x="194" y="40" type="line"/>
      <point x="248" y="40" type="line"/>
    </contour>
  </outline>
</glyph>
<glyph name="uni040F" format="2">
  <advance width="540"/>
  <unicode hex="040F"/>
  <anchor x="407" y="737" name="Yerok"/>
  <anchor x="270" y="738" name="Diacritic"/>
  <outline>
    <contour>
      <point x="210" y="0" type="line"/>
      <point x="20" y="0" type="line"/>
      <point x="20" y="40" type="line"/>
      <point x="74" y="40" type="line"/>
      <point x="74" y="636" type="line"/>
      <point x="20" y="636" type="line"/>
      <point x="20" y="676" type="line"/>
      <point x="246" y="676" type="line"/>
      <point x="246" y="636" type="line"/>
      <point x="191" y="636" type="line"/>
      <point x="191" y="40" type="line"/>
      <point x="346" y="40" type="line"/>
      <point x="346" y="636" type="line"/>
      <point x="291" y="636" type="line"/>
      <point x="291" y="676" type="line"/>
      <point x="520" y="676" type="line"/>
      <point x="520" y="636" type="line"/>
      <point x="465" y="636" type="line"/>
      <point x="465" y="40" type="line"/>
      <point x="520" y="40" type="line"/>
      <point x="520" y="0" type="line"/>
      <point x="328" y="0" type="line"/>
      <point x="328" y="-30" type="line" smooth="yes"/>
      <point x="328" y="-65"/>
      <point x="357" y="-112"/>
      <point x="391" y="-130" type="curve" smooth="yes"/>
      <point x="395" y="-131"/>
      <point x="395" y="-145"/>
      <point x="391" y="-146" type="curve" smooth="yes"/>
      <point x="357" y="-167"/>
      <point x="298" y="-217"/>
      <point x="276" y="-263" type="curve" smooth="yes"/>
      <point x="275" y="-268"/>
      <point x="262" y="-268"/>
      <point x="261" y="-263" type="curve" smooth="yes"/>
      <point x="239" y="-217"/>
      <point x="180" y="-167"/>
      <point x="146" y="-146" type="curve" smooth="yes"/>
      <point x="142" y="-145"/>
      <point x="142" y="-131"/>
      <point x="146" y="-130" type="curve" smooth="yes"/>
      <point x="180" y="-112"/>
      <point x="210" y="-65"/>
      <point x="210" y="-30" type="curve" smooth="yes"/>
    </contour>
  </outline>
</glyph>
<glyph name="afii10018" format="2">
  <advance width="547"/>
  <unicode hex="0411"/>
  <anchor x="420" y="754" name="Yerok"/>
  <anchor x="280" y="754" name="Diacritic"/>
  <outline>
    <contour>
      <point x="241" y="636" type="curve" smooth="yes"/>
      <point x="194" y="636" type="line"/>
      <point x="194" y="438" type="line"/>
      <point x="255" y="414"/>
      <point x="375" y="366"/>
      <point x="375" y="366" type="curve" smooth="yes"/>
      <point x="401" y="356"/>
      <point x="425" y="352"/>
      <point x="454" y="352" type="curve" smooth="yes"/>
      <point x="505" y="352" type="line"/>
      <point x="505" y="312" type="line"/>
      <point x="481" y="312" type="line"/>
      <point x="481" y="40" type="line"/>
      <point x="525" y="40" type="line"/>
      <point x="525" y="0" type="line"/>
      <point x="22" y="0" type="line"/>
      <point x="22" y="40" type="line"/>
      <point x="76" y="40" type="line"/>
      <point x="76" y="636" type="line"/>
      <point x="22" y="636" type="line"/>
      <point x="22" y="676" type="line"/>
      <point x="419" y="676" type="line" smooth="yes"/>
      <point x="434.342" y="676"/>
      <point x="440.377" y="669.142"/>
      <point x="440.377" y="661.123" type="curve" smooth="yes"/>
      <point x="440.377" y="652.939"/>
      <point x="434.092" y="643.546"/>
      <point x="425" y="639" type="curve" smooth="yes"/>
      <point x="411" y="632"/>
      <point x="376" y="555"/>
      <point x="368" y="501" type="curve" smooth="yes"/>
      <point x="367.042" y="495.25"/>
      <point x="361.031" y="492.484"/>
      <point x="354.811" y="492.484" type="curve" smooth="yes"/>
      <point x="348.05" y="492.484"/>
      <point x="341.042" y="495.75"/>
      <point x="340" y="502" type="curve" smooth="yes"/>
      <point x="333" y="547"/>
      <point x="323" y="574"/>
      <point x="293" y="615" type="curve" smooth="yes"/>
      <point x="284" y="627"/>
      <point x="262" y="636"/>
    </contour>
    <contour>
      <point x="360" y="328" type="curve" smooth="yes"/>
      <point x="360" y="328"/>
      <point x="257" y="370"/>
      <point x="194" y="395" type="curve"/>
      <point x="194" y="40" type="line"/>
      <point x="363" y="40" type="line"/>
      <point x="363" y="327" type="line"/>
      <point x="362" y="327"/>
      <point x="361" y="327"/>
    </contour>
  </outline>
</glyph>
<glyph name="afii10025" format="2">
  <advance width="667"/>
  <unicode hex="0417"/>
  <anchor x="550" y="754" name="Yerok"/>
  <anchor x="340" y="754" name="Diacritic"/>
  <outline>
    <contour>
      <point x="172" y="339" type="curve" smooth="yes"/>
      <point x="193" y="374"/>
      <point x="239" y="420"/>
      <point x="262" y="435" type="curve" smooth="yes"/>
      <point x="270" y="440"/>
      <point x="276" y="437"/>
      <point x="285" y="435" type="curve" smooth="yes"/>
      <point x="310" y="430"/>
      <point x="357" y="409"/>
      <point x="393" y="392" type="curve"/>
      <point x="410" y="398"/>
      <point x="430" y="403"/>
      <point x="446" y="404" type="curve"/>
      <point x="464" y="426"/>
      <point x="488" y="464"/>
      <point x="496" y="482" type="curve" smooth="yes"/>
      <point x="502" y="496"/>
      <point x="504" y="515"/>
      <point x="504" y="531" type="curve" smooth="yes"/>
      <point x="504" y="605.593"/>
      <point x="431.752" y="647.262"/>
      <point x="350.225" y="647.262" type="curve" smooth="yes"/>
      <point x="299.49" y="647.262"/>
      <point x="260.192" y="627.295"/>
      <point x="225" y="602" type="curve" smooth="yes"/>
      <point x="223" y="600"/>
      <point x="218" y="596"/>
      <point x="217" y="593" type="curve" smooth="yes"/>
      <point x="206" y="570"/>
      <point x="195" y="531"/>
      <point x="187" y="496" type="curve"/>
      <point x="170.731" y="494.141"/>
      <point x="149.71" y="493.362"/>
      <point x="128.454" y="493.362" type="curve" smooth="yes"/>
      <point x="103.98" y="493.362"/>
      <point x="79.1962" y="494.394"/>
      <point x="61" y="496" type="curve"/>
      <point x="73" y="545"/>
      <point x="82" y="586"/>
      <point x="114" y="626" type="curve" smooth="yes"/>
      <point x="118" y="631"/>
      <point x="129" y="641"/>
      <point x="137" y="645" type="curve" smooth="yes"/>
      <point x="191" y="670"/>
      <point x="259" y="686"/>
      <point x="340" y="686" type="curve" smooth="yes"/>
      <point x="452" y="686"/>
      <point x="599" y="662"/>
      <point x="599" y="552" type="curve" smooth="yes"/>
      <point x="599" y="525"/>
      <point x="587" y="488"/>
      <point x="570" y="461" type="curve" smooth="yes"/>
      <point x="553" y="434"/>
      <point x="518" y="388"/>
      <point x="500" y="368" type="curve"/>
      <point x="519" y="354"/>
      <point x="565" y="313"/>
      <point x="601" y="267" type="curve" smooth="yes"/>
      <point x="620" y="242"/>
      <point x="630" y="208"/>
      <point x="630" y="174" type="curve" smooth="yes"/>
      <point x="630" y="46"/>
      <point x="564" y="-10"/>
      <point x="431" y="-10" type="curve" smooth="yes"/>
      <point x="379" y="-10"/>
      <point x="344" y="-6"/>
      <point x="295" y="7" type="curve" smooth="yes"/>
      <point x="250.335" y="19.1812"/>
      <point x="212.917" y="29.068"/>
      <point x="158.06" y="29.068" type="curve" smooth="yes"/>
      <point x="123.907" y="29.068"/>
      <point x="101.732" y="18.9588"/>
      <point x="75" y="-3" type="curve" smooth="yes"/>
      <point x="71.9326" y="-5.62919"/>
      <point x="68.0491" y="-6.77024"/>
      <point x="63.8965" y="-6.77024" type="curve" smooth="yes"/>
      <point x="50.2294" y="-6.77024"/>
      <point x="33.6468" y="5.58972"/>
      <point x="33.6468" y="17.9358" type="curve" smooth="yes"/>
      <point x="33.6468" y="49.0141"/>
      <point x="56.5813" y="78.4026"/>
      <point x="76" y="104" type="curve" smooth="yes"/>
      <point x="78" y="107"/>
      <point x="81" y="110"/>
      <point x="84" y="111" type="curve" smooth="yes"/>
      <point x="127.763" y="124.036"/>
      <point x="174.993" y="136.204"/>
      <point x="213.583" y="136.204" type="curve" smooth="yes"/>
      <point x="216.437" y="136.204"/>
      <point x="219.245" y="136.138"/>
      <point x="222" y="136" type="curve" smooth="yes"/>
      <point x="227" y="136"/>
      <point x="229" y="133"/>
      <point x="233" y="131" type="curve" smooth="yes"/>
      <point x="297" y="94"/>
      <point x="313" y="30"/>
      <point x="399" y="30" type="curve" smooth="yes"/>
      <point x="484" y="30"/>
      <point x="514" y="77"/>
      <point x="514" y="144" type="curve" smooth="yes"/>
      <point x="514" y="175"/>
      <point x="508" y="201"/>
      <point x="486" y="226" type="curve" smooth="yes"/>
      <point x="460" y="255"/>
      <point x="428" y="294"/>
      <point x="396" y="317" type="curve"/>
      <point x="362" y="292"/>
      <point x="324" y="268"/>
      <point x="292" y="253" type="curve" smooth="yes"/>
      <point x="284" y="249"/>
      <point x="278" y="249"/>
      <point x="270" y="253" type="curve" smooth="yes"/>
      <point x="236" y="269"/>
      <point x="200" y="295"/>
      <point x="172" y="321" type="curve" smooth="yes"/>
      <point x="167" y="326"/>
      <point x="168" y="333"/>
    </contour>
  </outline>
</glyph>
<glyph name="afii10033" format="2">
  <advance width="542"/>
  <unicode hex="041F"/>
  <anchor x="420" y="754" name="Yerok"/>
  <anchor x="274" y="754" name="Diacritic"/>
  <outline>
    <contour>
      <point x="520" y="676" type="line"/>
      <point x="520" y="636" type="line"/>
      <point x="466" y="636" type="line"/>
      <point x="466" y="40" type="line"/>
      <point x="520" y="40" type="line"/>
      <point x="520" y="0" type="line"/>
      <point x="294" y="0" type="line"/>
      <point x="294" y="40" type="line"/>
      <point x="348" y="40" type="line"/>
      <point x="348" y="636" type="line"/>
      <point x="194" y="636" type="line"/>
      <point x="194" y="40" type="line"/>
      <point x="248" y="40" type="line"/>
      <point x="248" y="0" type="line"/>
      <point x="22" y="0" type="line"/>
      <point x="22" y="40" type="line"/>
      <point x="76" y="40" type="line"/>
      <point x="76" y="636" type="line"/>
      <point x="22" y="636" type="line"/>
      <point x="22" y="676" type="line"/>
    </contour>
  </outline>
</glyph>
<glyph name="afii10034" format="2">
  <advance width="566"/>
  <unicode hex="0420"/>
  <anchor x="470" y="754" name="Yerok"/>
  <anchor x="317" y="754" name="Diacritic"/>
  <outline>
    <contour>
      <point x="248" y="40" type="line"/>
      <point x="248" y="0" type="line"/>
      <point x="22" y="0" type="line"/>
      <point x="22" y="40" type="line"/>
      <point x="76" y="40" type="line"/>
      <point x="76" y="487" type="line" smooth="yes"/>
      <point x="76" y="601"/>
      <point x="178" y="680"/>
      <point x="316" y="680" type="curve" smooth="yes"/>
      <point x="467" y="680"/>
      <point x="533" y="618"/>
      <point x="533" y="504" type="curve" smooth="yes"/>
      <point x="533" y="399"/>
      <point x="494" y="327"/>
      <point x="407" y="327" type="curve" smooth="yes"/>
      <point x="345" y="327"/>
      <point x="324" y="360"/>
      <point x="310" y="379" type="curve"/>
      <point x="194" y="214" type="line"/>
      <point x="194" y="40" type="line"/>
    </contour>
    <contour>
      <point x="194" y="536" type="curve" smooth="yes"/>
      <point x="194" y="283" type="line"/>
      <point x="292" y="422" type="line" smooth="yes"/>
      <point x="295.565" y="428.111"/>
      <point x="302.241" y="431.628"/>
      <point x="309.256" y="431.628" type="curve" smooth="yes"/>
      <point x="316.017" y="431.628"/>
      <point x="323.092" y="428.361"/>
      <point x="328" y="421" type="curve" smooth="yes"/>
      <point x="338" y="406"/>
      <point x="355" y="376"/>
      <point x="382" y="376" type="curve" smooth="yes"/>
      <point x="416" y="376"/>
      <point x="430" y="421"/>
      <point x="430" y="484" type="curve" smooth="yes"/>
      <point x="430" y="516" type="line" smooth="yes"/>
      <point x="430" y="605"/>
      <point x="368" y="636"/>
      <point x="316" y="636" type="curve" smooth="yes"/>
      <point x="251" y="636"/>
      <point x="194" y="597"/>
    </contour>
  </outline>
</glyph>
<glyph name="afii10036" format="2">
  <advance width="626"/>
  <unicode hex="0422"/>
  <anchor x="530" y="754" name="Yerok"/>
  <anchor x="310" y="754" name="Diacritic"/>
  <outline>
    <contour>
      <point x="135" y="611" type="curve" smooth="yes"/>
      <point x="123" y="585"/>
      <point x="102" y="544"/>
      <point x="94" y="520" type="curve" smooth="yes"/>
      <point x="92" y="514"/>
      <point x="85.5" y="511"/>
      <point x="79" y="511" type="curve" smooth="yes"/>
      <point x="72.5" y="511"/>
      <point x="66" y="514"/>
      <point x="64" y="520" type="curve" smooth="yes"/>
      <point x="50" y="566"/>
      <point x="38" y="591"/>
      <point x="15" y="632" type="curve" smooth="yes"/>
      <point x="11.336" y="638.514"/>
      <point x="8.99786" y="647.017"/>
      <point x="8.99786" y="654.809" type="curve" smooth="yes"/>
      <point x="8.99786" y="666.158"/>
      <point x="13.9565" y="676"/>
      <point x="27" y="676" type="curve" smooth="yes"/>
      <point x="598" y="676" type="line" smooth="yes"/>
      <point x="616.327" y="676"/>
      <point x="623.471" y="665.616"/>
      <point x="623.471" y="654.187" type="curve" smooth="yes"/>
      <point x="623.471" y="647.531"/>
      <point x="621.048" y="640.521"/>
      <point x="617" y="635" type="curve" smooth="yes"/>
      <point x="590" y="597"/>
      <point x="569" y="549"/>
      <point x="557" y="503" type="curve" smooth="yes"/>
      <point x="555" y="496"/>
      <point x="548.75" y="492.5"/>
      <point x="542.5" y="492.5" type="curve" smooth="yes"/>
      <point x="536.25" y="492.5"/>
      <point x="530" y="496"/>
      <point x="528" y="503" type="curve" smooth="yes"/>
      <point x="518" y="539"/>
      <point x="502" y="573"/>
      <point x="489" y="612" type="curve" smooth="yes"/>
      <point x="485" y="622"/>
      <point x="478" y="636"/>
      <point x="465" y="636" type="curve" smooth="yes"/>
      <point x="368" y="636" type="line"/>
      <point x="368" y="40" type="line"/>
      <point x="422" y="40" type="line"/>
      <point x="422" y="0" type="line"/>
      <point x="196" y="0" type="line"/>
      <point x="196" y="40" type="line"/>
      <point x="250" y="40" type="line"/>
      <point x="250" y="636" type="line"/>
      <point x="163" y="636" type="line" smooth="yes"/>
      <point x="149" y="636"/>
      <point x="141" y="624"/>
    </contour>
  </outline>
</glyph>
<glyph name="afii10039" format="2">
  <advance width="522"/>
  <unicode hex="0425"/>
  <anchor x="430" y="754" name="Yerok"/>
  <anchor x="300" y="754" name="Diacritic"/>
  <outline>
    <contour>
      <point x="359" y="548" type="curve" smooth="yes"/>
      <point x="295" y="414" type="line"/>
      <point x="446" y="40" type="line"/>
      <point x="500" y="40" type="line"/>
      <point x="500" y="0" type="line"/>
      <point x="274" y="0" type="line"/>
      <point x="274" y="40" type="line"/>
      <point x="328" y="40" type="line"/>
      <point x="231" y="279" type="line"/>
      <point x="118" y="40" type="line"/>
      <point x="172" y="40" type="line"/>
      <point x="172" y="0" type="line"/>
      <point x="19" y="0" type="line"/>
      <point x="19" y="40" type="line"/>
      <point x="73" y="40" type="line"/>
      <point x="211" y="330" type="line"/>
      <point x="88" y="636" type="line"/>
      <point x="34" y="636" type="line"/>
      <point x="34" y="676" type="line"/>
      <point x="260" y="676" type="line"/>
      <point x="260" y="636" type="line"/>
      <point x="206" y="636" type="line"/>
      <point x="275" y="465" type="line"/>
      <point x="347" y="616" type="line" smooth="yes"/>
      <point x="356" y="635"/>
      <point x="382" y="661"/>
      <point x="406" y="667" type="curve" smooth="yes"/>
      <point x="429" y="673"/>
      <point x="476" y="679"/>
      <point x="494" y="680" type="curve" smooth="yes"/>
      <point x="504" y="681"/>
      <point x="515" y="671"/>
      <point x="512" y="661" type="curve" smooth="yes"/>
      <point x="498" y="619"/>
      <point x="494" y="577"/>
      <point x="494" y="529" type="curve" smooth="yes"/>
      <point x="494" y="517"/>
      <point x="485" y="509"/>
      <point x="475" y="514" type="curve" smooth="yes"/>
      <point x="448" y="527"/>
      <point x="434" y="542"/>
      <point x="405" y="564" type="curve" smooth="yes"/>
      <point x="400.475" y="567.62"/>
      <point x="395.312" y="569.238"/>
      <point x="390.062" y="569.238" type="curve" smooth="yes"/>
      <point x="377.909" y="569.238"/>
      <point x="365.285" y="560.57"/>
    </contour>
  </outline>
</glyph>
<glyph name="afii10040" format="2">
  <advance width="549"/>
  <unicode hex="0426"/>
  <anchor x="420" y="754" name="Yerok"/>
  <anchor x="278" y="754" name="Diacritic"/>
  <outline>
    <contour>
      <point x="422" y="0" type="line"/>
      <point x="22" y="0" type="line"/>
      <point x="22" y="40" type="line"/>
      <point x="80" y="40" type="line"/>
      <point x="80" y="636" type="line"/>
      <point x="26" y="636" type="line"/>
      <point x="26" y="676" type="line"/>
      <point x="252" y="676" type="line"/>
      <point x="252" y="636" type="line"/>
      <point x="198" y="636" type="line"/>
      <point x="198" y="40" type="line"/>
      <point x="352" y="40" type="line"/>
      <point x="352" y="636" type="line"/>
      <point x="298" y="636" type="line"/>
      <point x="298" y="676" type="line"/>
      <point x="524" y="676" type="line"/>
      <point x="524" y="636" type="line"/>
      <point x="470" y="636" type="line"/>
      <point x="470" y="40" type="line"/>
      <point x="527" y="40" type="line"/>
      <point x="527" y="-125" type="line"/>
      <point x="334" y="-261" type="line"/>
      <point x="287" y="-261" type="line"/>
      <point x="122" y="-173" type="line"/>
      <point x="66" y="-221" type="line" smooth="yes"/>
      <point x="61.7171" y="-224.467"/>
      <point x="56.9767" y="-225.938"/>
      <point x="52.2878" y="-225.938" type="curve" smooth="yes"/>
      <point x="38.5218" y="-225.938"/>
      <point x="25.1992" y="-213.263"/>
      <point x="25.1992" y="-201.221" type="curve" smooth="yes"/>
      <point x="25.1992" y="-197.253"/>
      <point x="26.6458" y="-193.354"/>
      <point x="30" y="-190" type="curve" smooth="yes"/>
      <point x="141" y="-80" type="line"/>
      <point x="206" y="-80" type="line"/>
      <point x="385" y="-176" type="line"/>
      <point x="422" y="-150" type="line"/>
    </contour>
  </outline>
</glyph>
<glyph name="afii10045" format="2">
  <advance width="784"/>
  <unicode hex="042B"/>
  <anchor x="640" y="754" name="Yerok"/>
  <anchor x="400" y="754" name="Diacritic"/>
  <outline>
    <contour>
      <point x="194" y="636" type="line"/>
      <point x="194" y="366" type="line"/>
      <point x="221" y="359"/>
      <point x="247" y="354"/>
      <point x="278" y="349" type="curve" smooth="yes"/>
      <point x="336" y="338"/>
      <point x="384" y="334"/>
      <point x="461" y="334" type="curve"/>
      <point x="461" y="294" type="line"/>
      <point x="436" y="294" type="line"/>
      <point x="436" y="40" type="line"/>
      <point x="480" y="40" type="line"/>
      <point x="480" y="0" type="line"/>
      <point x="22" y="0" type="line"/>
      <point x="22" y="40" type="line"/>
      <point x="76" y="40" type="line"/>
      <point x="76" y="636" type="line"/>
      <point x="22" y="636" type="line"/>
      <point x="22" y="676" type="line"/>
      <point x="248" y="676" type="line"/>
      <point x="248" y="636" type="line"/>
    </contour>
    <contour>
      <point x="762" y="0" type="line"/>
      <point x="536" y="0" type="line"/>
      <point x="536" y="40" type="line"/>
      <point x="590" y="40" type="line"/>
      <point x="590" y="636" type="line"/>
      <point x="546" y="636" type="line"/>
      <point x="546" y="676" type="line"/>
      <point x="752" y="676" type="line"/>
      <point x="752" y="636" type="line"/>
      <point x="708" y="636" type="line"/>
      <point x="708" y="40" type="line"/>
      <point x="762" y="40" type="line"/>
    </contour>
    <contour>
      <point x="271" y="309" type="curve" smooth="yes"/>
      <point x="242" y="314"/>
      <point x="218" y="319"/>
      <point x="194" y="325" type="curve"/>
      <point x="194" y="40" type="line"/>
      <point x="318" y="40" type="line"/>
      <point x="318" y="302" type="line"/>
      <point x="302" y="304"/>
      <point x="287" y="306"/>
    </contour>
  </outline>
</glyph>
<glyph name="uni042D" format="2">
  <advance width="540"/>
  <unicode hex="042D"/>
  <anchor x="421" y="754" name="Yerok"/>
  <anchor x="270" y="754" name="Diacritic"/>
  <outline>
    <contour>
      <point x="456" y="184" type="curve" smooth="yes"/>
      <point x="428.523" y="125.121"/>
      <point x="402.972" y="72.0195"/>
      <point x="402.972" y="2.01621" type="curve" smooth="yes"/>
      <point x="402.972" y="0.683649"/>
      <point x="402.981" y="-0.655035"/>
      <point x="403" y="-2" type="curve"/>
      <point x="189" y="-2"/>
      <point x="81" y="67"/>
      <point x="65" y="175" type="curve"/>
      <point x="179" y="175" type="line"/>
      <point x="187" y="116"/>
      <point x="255" y="45"/>
      <point x="347" y="45" type="curve"/>
      <point x="346.873" y="52.0895"/>
      <point x="346.795" y="59.6599"/>
      <point x="346.795" y="67.6461" type="curve" smooth="yes"/>
      <point x="346.795" y="122.743"/>
      <point x="350.532" y="197.634"/>
      <point x="368" y="271" type="curve"/>
      <point x="344" y="327"/>
      <point x="302" y="384"/>
      <point x="256" y="384" type="curve" smooth="yes"/>
      <point x="198.223" y="384"/>
      <point x="174.969" y="328.379"/>
      <point x="174.969" y="267.849" type="curve" smooth="yes"/>
      <point x="174.969" y="266.568"/>
      <point x="174.979" y="265.285"/>
      <point x="175" y="264" type="curve"/>
      <point x="60" y="264" type="line"/>
      <point x="60" y="363"/>
      <point x="108" y="437"/>
      <point x="223" y="437" type="curve" smooth="yes"/>
      <point x="296" y="437"/>
      <point x="352" y="397"/>
      <point x="385" y="333" type="curve"/>
      <point x="394" y="362"/>
      <point x="401" y="393"/>
      <point x="401" y="430" type="curve" smooth="yes"/>
      <point x="401" y="530"/>
      <point x="370" y="645"/>
      <point x="270" y="645" type="curve" smooth="yes"/>
      <point x="190" y="645"/>
      <point x="173" y="574"/>
      <point x="173" y="531" type="curve"/>
      <point x="207" y="531" type="line"/>
      <point x="207" y="491" type="line"/>
      <point x="40" y="491" type="line"/>
      <point x="40" y="531" type="line"/>
      <point x="64" y="531" type="line"/>
      <point x="64" y="604"/>
      <point x="129" y="684"/>
      <point x="269" y="684" type="curve" smooth="yes"/>
      <point x="419" y="684"/>
      <point x="513" y="551"/>
      <point x="513" y="397" type="curve" smooth="yes"/>
      <point x="513" y="309"/>
      <point x="492" y="260"/>
    </contour>
  </outline>
</glyph>
<glyph name="afii10048" format="2">
  <advance width="791"/>
  <unicode hex="042E"/>
  <anchor x="660" y="754" name="Yerok"/>
  <anchor x="380" y="754" name="Diacritic"/>
  <outline>
    <contour>
      <point x="248" y="0" type="line"/>
      <point x="22" y="0" type="line"/>
      <point x="22" y="40" type="line"/>
      <point x="76" y="40" type="line"/>
      <point x="76" y="636" type="line"/>
      <point x="22" y="636" type="line"/>
      <point x="22" y="676" type="line"/>
      <point x="248" y="676" type="line"/>
      <point x="248" y="636" type="line"/>
      <point x="194" y="636" type="line"/>
      <point x="194" y="341" type="line"/>
      <point x="291" y="390" type="line"/>
      <point x="315" y="526"/>
      <point x="431" y="663"/>
      <point x="520" y="679" type="curve"/>
      <point x="532" y="652"/>
      <point x="561" y="624"/>
      <point x="583" y="605" type="curve" smooth="yes"/>
      <point x="630" y="565"/>
      <point x="744" y="460"/>
      <point x="759" y="365" type="curve" smooth="yes"/>
      <point x="761.246" y="351.12"/>
      <point x="762.315" y="337.337"/>
      <point x="762.315" y="323.701" type="curve" smooth="yes"/>
      <point x="762.315" y="167.387"/>
      <point x="621.891" y="30.5501"/>
      <point x="506" y="-9" type="curve"/>
      <point x="496" y="12"/>
      <point x="469" y="37"/>
      <point x="444" y="57" type="curve" smooth="yes"/>
      <point x="353" y="127"/>
      <point x="287" y="232"/>
      <point x="287" y="342" type="curve"/>
      <point x="194" y="296" type="line"/>
      <point x="194" y="40" type="line"/>
      <point x="248" y="40" type="line"/>
    </contour>
    <contour>
      <point x="658.315" y="300.25" type="curve" smooth="yes"/>
      <point x="658.315" y="411.143"/>
      <point x="593.016" y="487.139"/>
      <point x="540" y="555" type="curve" smooth="yes"/>
      <point x="523" y="576"/>
      <point x="507" y="604"/>
      <point x="499" y="629" type="curve"/>
      <point x="430" y="571"/>
      <point x="398" y="524"/>
      <point x="398" y="390" type="curve" smooth="yes"/>
      <point x="398" y="298"/>
      <point x="435" y="211"/>
      <point x="489" y="133" type="curve" smooth="yes"/>
      <point x="509" y="104"/>
      <point x="525" y="78"/>
      <point x="532" y="49" type="curve"/>
      <point x="604.789" y="93.0567"/>
      <point x="658.315" y="189.399"/>
    </contour>
  </outline>
</glyph>
<glyph name="uni042F" format="2">
  <advance width="513"/>
  <unicode hex="042F"/>
  <anchor x="264" y="737" name="Diacritic"/>
  <anchor x="401" y="737" name="Yerok"/>
  <outline>
    <contour>
      <point x="296" y="40" type="line"/>
      <point x="341" y="40" type="line"/>
      <point x="341" y="306" type="line"/>
      <point x="336" y="316" type="line"/>
      <point x="300" y="306"/>
      <point x="270" y="296"/>
      <point x="230" y="290" type="curve" smooth="yes"/>
      <point x="214" y="286"/>
      <point x="200" y="285"/>
      <point x="184" y="284" type="curve"/>
      <point x="184" y="40" type="line"/>
      <point x="224" y="40" type="line"/>
      <point x="224" y="0" type="line"/>
      <point x="20" y="0" type="line"/>
      <point x="20" y="40" type="line"/>
      <point x="64" y="40" type="line"/>
      <point x="64" y="276" type="line"/>
      <point x="39" y="276" type="line"/>
      <point x="39" y="316" type="line"/>
      <point x="116" y="316"/>
      <point x="166" y="319"/>
      <point x="224" y="330" type="curve" smooth="yes"/>
      <point x="258" y="335"/>
      <point x="283" y="341"/>
      <point x="314" y="350" type="curve"/>
      <point x="256" y="439" type="line"/>
      <point x="243" y="423"/>
      <point x="214" y="409"/>
      <point x="174" y="409" type="curve" smooth="yes"/>
      <point x="85" y="409"/>
      <point x="64" y="465"/>
      <point x="64" y="529" type="curve" smooth="yes"/>
      <point x="64" y="620"/>
      <point x="99" y="676"/>
      <point x="234" y="676" type="curve"/>
      <point x="483" y="676" type="line"/>
      <point x="483" y="636" type="line"/>
      <point x="458" y="636" type="line"/>
      <point x="458" y="40" type="line"/>
      <point x="493" y="40" type="line"/>
      <point x="493" y="0" type="line"/>
      <point x="296" y="0" type="line"/>
    </contour>
    <contour>
      <point x="341" y="536" type="line" smooth="yes"/>
      <point x="341" y="596"/>
      <point x="289" y="636"/>
      <point x="234" y="636" type="curve" smooth="yes"/>
      <point x="180" y="636"/>
      <point x="165" y="590"/>
      <point x="164" y="534" type="curve" smooth="yes"/>
      <point x="164" y="530"/>
      <point x="164" y="525"/>
      <point x="164" y="521" type="curve" smooth="yes"/>
      <point x="164" y="490"/>
      <point x="169" y="454"/>
      <point x="204" y="454" type="curve" smooth="yes"/>
      <point x="222" y="454"/>
      <point x="231" y="467"/>
      <point x="240" y="480" type="curve" smooth="yes"/>
      <point x="245" y="486"/>
      <point x="253" y="491"/>
      <point x="259" y="491" type="curve" smooth="yes"/>
      <point x="265" y="491"/>
      <point x="272" y="487"/>
      <point x="276" y="481" type="curve" smooth="yes"/>
      <point x="341" y="385" type="line"/>
    </contour>
  </outline>
</glyph>
<glyph name="afii10066" format="2">
  <advance width="442"/>
  <unicode hex="0431"/>
  <anchor x="328" y="502" name="Yerok"/>
  <anchor x="217" y="502" name="Diacritic"/>
  <outline>
    <contour>
      <point x="340" y="444" type="curve" smooth="yes"/>
      <point x="343.75" y="444"/>
      <point x="347.812" y="444.125"/>
      <point x="351.797" y="444.125" type="curve" smooth="yes"/>
      <point x="363.75" y="444.125"/>
      <point x="375" y="443"/>
      <point x="375" y="434" type="curve" smooth="yes"/>
      <point x="375" y="426"/>
      <point x="372" y="414"/>
      <point x="368" y="407" type="curve" smooth="yes"/>
      <point x="349" y="374"/>
      <point x="339" y="350"/>
      <point x="329" y="317" type="curve" smooth="yes"/>
      <point x="326" y="308"/>
      <point x="320" y="298"/>
      <point x="313" y="298" type="curve" smooth="yes"/>
      <point x="306" y="298"/>
      <point x="302" y="309"/>
      <point x="296" y="320" type="curve" smooth="yes"/>
      <point x="280" y="351"/>
      <point x="264" y="385"/>
      <point x="250" y="402" type="curve"/>
      <point x="173" y="400" type="line"/>
      <point x="171" y="380"/>
      <point x="170" y="306"/>
      <point x="168" y="232" type="curve"/>
      <point x="189" y="239"/>
      <point x="221" y="252"/>
      <point x="249" y="256" type="curve" smooth="yes"/>
      <point x="260" y="258"/>
      <point x="269" y="254"/>
      <point x="275" y="246" type="curve" smooth="yes"/>
      <point x="299" y="216"/>
      <point x="316" y="188"/>
      <point x="337" y="150" type="curve" smooth="yes"/>
      <point x="359" y="110"/>
      <point x="373" y="88"/>
      <point x="390" y="45" type="curve" smooth="yes"/>
      <point x="391" y="41"/>
      <point x="392" y="37"/>
      <point x="392" y="33" type="curve" smooth="yes"/>
      <point x="392" y="17"/>
      <point x="381" y="0"/>
      <point x="365" y="0" type="curve" smooth="yes"/>
      <point x="84" y="0" type="line" smooth="yes"/>
      <point x="68" y="0"/>
      <point x="59" y="17"/>
      <point x="59" y="33" type="curve" smooth="yes"/>
      <point x="70" y="419" type="line" smooth="yes"/>
      <point x="70" y="429"/>
      <point x="79" y="437"/>
      <point x="89" y="437" type="curve" smooth="yes"/>
      <point x="283" y="442" type="line" smooth="yes"/>
      <point x="296" y="442"/>
      <point x="322" y="444"/>
    </contour>
    <contour>
      <point x="167" y="194" type="curve"/>
      <point x="165" y="118"/>
      <point x="164" y="51"/>
      <point x="164" y="51" type="curve" smooth="yes"/>
      <point x="164" y="44"/>
      <point x="170" y="40"/>
      <point x="177" y="40" type="curve" smooth="yes"/>
      <point x="272" y="40" type="line" smooth="yes"/>
      <point x="276" y="40"/>
      <point x="278" y="45"/>
      <point x="277" y="47" type="curve" smooth="yes"/>
      <point x="277" y="47"/>
      <point x="261" y="87"/>
      <point x="247" y="110" type="curve" smooth="yes"/>
      <point x="229" y="140"/>
      <point x="208" y="171"/>
      <point x="190" y="181" type="curve" smooth="yes"/>
      <point x="182" y="186"/>
      <point x="173" y="191"/>
    </contour>
  </outline>
</glyph>
<glyph name="afii10067" format="2">
  <advance width="416"/>
  <unicode hex="0432"/>
  <anchor x="308" y="502" name="Yerok"/>
  <anchor x="207" y="502" name="Diacritic"/>
  <outline>
    <contour>
      <point x="381" y="19" type="line" smooth="yes"/>
      <point x="383" y="13"/>
      <point x="381" y="0"/>
      <point x="368" y="0" type="curve" smooth="yes"/>
      <point x="81" y="0" type="line" smooth="yes"/>
      <point x="71" y="0"/>
      <point x="64" y="6"/>
      <point x="64" y="16" type="curve" smooth="yes"/>
      <point x="80" y="419" type="line" smooth="yes"/>
      <point x="81" y="432"/>
      <point x="90" y="437"/>
      <point x="98" y="437" type="curve" smooth="yes"/>
      <point x="292" y="437" type="line" smooth="yes"/>
      <point x="303" y="437"/>
      <point x="306" y="427"/>
      <point x="301" y="417" type="curve" smooth="yes"/>
      <point x="212" y="245" type="line"/>
      <point x="281" y="245" type="line" smooth="yes"/>
      <point x="289" y="245"/>
      <point x="295" y="241"/>
      <point x="298" y="234" type="curve" smooth="yes"/>
    </contour>
    <contour>
      <point x="265" y="49" type="curve" smooth="yes"/>
      <point x="204" y="206" type="line"/>
      <point x="192" y="206" type="line"/>
      <point x="168" y="161" type="line"/>
      <point x="163" y="40" type="line"/>
      <point x="260" y="40" type="line" smooth="yes"/>
      <point x="264" y="40"/>
      <point x="267" y="45"/>
    </contour>
    <contour>
      <point x="247" y="397" type="line"/>
      <point x="189" y="397" type="line" smooth="yes"/>
      <point x="181" y="397"/>
      <point x="177" y="393"/>
      <point x="177" y="385" type="curve" smooth="yes"/>
      <point x="172" y="252" type="line"/>
    </contour>
  </outline>
</glyph>
<glyph name="afii10072" format="2">
  <advance width="636"/>
  <unicode hex="0436"/>
  <anchor x="538" y="502" name="Yerok"/>
  <anchor x="328" y="502" name="Diacritic"/>
  <outline>
    <contour>
      <point x="377.359" y="31.2305" type="curve" smooth="yes"/>
      <point x="377.359" y="17.0758"/>
      <point x="376.494" y="0"/>
      <point x="363" y="0" type="curve" smooth="yes"/>
      <point x="280" y="0" type="line" smooth="yes"/>
      <point x="265.322" y="0"/>
      <point x="261.328" y="20.7143"/>
      <point x="261.328" y="45.7198" type="curve" smooth="yes"/>
      <point x="261.328" y="74.4524"/>
      <point x="266.601" y="108.851"/>
      <point x="267" y="124" type="curve" smooth="yes"/>
      <point x="268" y="165"/>
      <point x="268" y="202"/>
      <point x="268" y="239" type="curve"/>
      <point x="230" y="208"/>
      <point x="194" y="173"/>
      <point x="166" y="140" type="curve" smooth="yes"/>
      <point x="152" y="123"/>
      <point x="146" y="107"/>
      <point x="146" y="87" type="curve" smooth="yes"/>
      <point x="146" y="62.8859"/>
      <point x="167" y="36.9733"/>
      <point x="167" y="12" type="curve" smooth="yes"/>
      <point x="167" y="2"/>
      <point x="162" y="0"/>
      <point x="153" y="0" type="curve" smooth="yes"/>
      <point x="51" y="0" type="line" smooth="yes"/>
      <point x="40" y="0"/>
      <point x="39" y="6"/>
      <point x="39" y="18" type="curve" smooth="yes"/>
      <point x="39" y="41"/>
      <point x="44" y="71"/>
      <point x="55" y="88" type="curve" smooth="yes"/>
      <point x="109" y="175"/>
      <point x="186" y="246"/>
      <point x="268" y="302" type="curve"/>
      <point x="268" y="308" type="line"/>
      <point x="240" y="336"/>
      <point x="206" y="366"/>
      <point x="178" y="381" type="curve" smooth="yes"/>
      <point x="173" y="383"/>
      <point x="165" y="382"/>
      <point x="158" y="382" type="curve"/>
      <point x="157.748" y="377.837"/>
      <point x="157.639" y="373.245"/>
      <point x="157.639" y="368.334" type="curve" smooth="yes"/>
      <point x="157.639" y="336.93"/>
      <point x="162.098" y="292.475"/>
      <point x="162.098" y="263.826" type="curve" smooth="yes"/>
      <point x="162.098" y="261.435"/>
      <point x="162.067" y="259.154"/>
      <point x="162" y="257" type="curve" smooth="yes"/>
      <point x="162" y="251"/>
      <point x="157" y="246"/>
      <point x="151" y="246" type="curve" smooth="yes"/>
      <point x="89" y="246" type="line" smooth="yes"/>
      <point x="81" y="246"/>
      <point x="71" y="254"/>
      <point x="71" y="261" type="curve" smooth="yes"/>
      <point x="71.1547" y="267.343"/>
      <point x="71.2376" y="274.02"/>
      <point x="71.2376" y="280.933" type="curve" smooth="yes"/>
      <point x="71.2376" y="320.47"/>
      <point x="61.5243" y="366.539"/>
      <point x="61.5243" y="403.581" type="curve" smooth="yes"/>
      <point x="61.5243" y="420.937"/>
      <point x="81.5303" y="437"/>
      <point x="99" y="437" type="curve" smooth="yes"/>
      <point x="165" y="437" type="line" smooth="yes"/>
      <point x="174" y="437"/>
      <point x="184" y="438"/>
      <point x="189" y="436" type="curve" smooth="yes"/>
      <point x="215" y="423"/>
      <point x="244" y="399"/>
      <point x="268" y="376" type="curve"/>
      <point x="271" y="424" type="line" smooth="yes"/>
      <point x="271" y="430"/>
      <point x="275" y="437"/>
      <point x="282" y="437" type="curve" smooth="yes"/>
      <point x="377" y="437" type="line" smooth="yes"/>
      <point x="384" y="437"/>
      <point x="390" y="429"/>
      <point x="390" y="423" type="curve" smooth="yes"/>
      <point x="390.5" y="414.5"/>
      <point x="390.75" y="406"/>
      <point x="390.75" y="397.625" type="curve" smooth="yes"/>
      <point x="390.75" y="389.25"/>
      <point x="390.5" y="381"/>
      <point x="390" y="373" type="curve"/>
      <point x="411" y="383"/>
      <point x="432" y="393"/>
      <point x="453" y="402" type="curve" smooth="yes"/>
      <point x="490.85" y="418.367"/>
      <point x="515.511" y="438.074"/>
      <point x="551.637" y="438.074" type="curve" smooth="yes"/>
      <point x="566.656" y="438.074"/>
      <point x="591.773" y="431.404"/>
      <point x="591.773" y="414.438" type="curve" smooth="yes"/>
      <point x="591.773" y="411.315"/>
      <point x="590.922" y="407.843"/>
      <point x="589" y="404" type="curve" smooth="yes"/>
      <point x="581" y="389"/>
      <point x="578" y="383"/>
      <point x="574" y="364" type="curve" smooth="yes"/>
      <point x="570.567" y="345.692"/>
      <point x="575.968" y="308.405"/>
      <point x="555.14" y="308.405" type="curve" smooth="yes"/>
      <point x="551.897" y="308.405"/>
      <point x="548.448" y="309"/>
      <point x="545" y="309" type="curve" smooth="yes"/>
      <point x="533" y="309"/>
      <point x="516" y="329"/>
      <point x="503" y="337" type="curve" smooth="yes"/>
      <point x="492.091" y="343.545"/>
      <point x="478.504" y="345.926"/>
      <point x="466.459" y="345.926" type="curve" smooth="yes"/>
      <point x="456.421" y="345.926"/>
      <point x="447.455" y="344.273"/>
      <point x="442" y="342" type="curve" smooth="yes"/>
      <point x="424" y="335"/>
      <point x="405" y="327"/>
      <point x="387" y="317" type="curve" smooth="yes"/>
      <point x="386" y="313"/>
      <point x="386" y="310"/>
      <point x="386" y="306" type="curve" smooth="yes"/>
      <point x="465" y="259"/>
      <point x="535" y="197"/>
      <point x="572" y="127" type="curve" smooth="yes"/>
      <point x="592" y="89"/>
      <point x="600" y="46"/>
      <point x="600" y="16" type="curve" smooth="yes"/>
      <point x="600" y="4"/>
      <point x="597" y="0"/>
      <point x="590" y="0" type="curve" smooth="yes"/>
      <point x="482" y="0" type="line" smooth="yes"/>
      <point x="473" y="0"/>
      <point x="470" y="3"/>
      <point x="470" y="14" type="curve" smooth="yes"/>
      <point x="470" y="25"/>
      <point x="472" y="46"/>
      <point x="476" y="59" type="curve" smooth="yes"/>
      <point x="477.384" y="63.4291"/>
      <point x="478.002" y="69.161"/>
      <point x="478.002" y="75.5803" type="curve" smooth="yes"/>
      <point x="478.002" y="92.3506"/>
      <point x="473.785" y="113.813"/>
      <point x="468" y="129" type="curve" smooth="yes"/>
      <point x="456" y="161"/>
      <point x="428" y="200"/>
      <point x="378" y="235" type="curve"/>
      <point x="375.321" y="201.06"/>
      <point x="371.843" y="165.525"/>
      <point x="371.843" y="127.682" type="curve" smooth="yes"/>
      <point x="371.843" y="123.155"/>
      <point x="371.893" y="118.595"/>
      <point x="372" y="114" type="curve" smooth="yes"/>
      <point x="372" y="81.625"/>
      <point x="377.359" y="60.7344"/>
    </contour>
  </outline>
</glyph>
<glyph name="afii10077" format="2">
  <advance width="418"/>
  <unicode hex="043B"/>
  <anchor x="318" y="502" name="Yerok"/>
  <anchor x="247" y="502" name="Diacritic"/>
  <outline>
    <contour>
      <point x="286" y="437" type="line" smooth="yes"/>
      <point x="296" y="437"/>
      <point x="305" y="429"/>
      <point x="306" y="420" type="curve" smooth="yes"/>
      <point x="320" y="308"/>
      <point x="344" y="154"/>
      <point x="380" y="29" type="curve" smooth="yes"/>
      <point x="380.915" y="25.9484"/>
      <point x="381.458" y="22.0587"/>
      <point x="381.458" y="18.1266" type="curve" smooth="yes"/>
      <point x="381.458" y="9.17329"/>
      <point x="378.643" y="1.77636e-15"/>
      <point x="371" y="0" type="curve" smooth="yes"/>
      <point x="288" y="0" type="line" smooth="yes"/>
      <point x="274" y="0"/>
      <point x="268" y="17"/>
      <point x="266" y="30" type="curve" smooth="yes"/>
      <point x="255" y="118"/>
      <point x="241" y="193"/>
      <point x="227" y="263" type="curve"/>
      <point x="203.845" y="207.427"/>
      <point x="171.416" y="169.173"/>
      <point x="148" y="120" type="curve" smooth="yes"/>
      <point x="141.45" y="105.708"/>
      <point x="139.864" y="88.9341"/>
      <point x="139.864" y="74.7458" type="curve" smooth="yes"/>
      <point x="139.864" y="65.1079"/>
      <point x="140.595" y="56.6631"/>
      <point x="141" y="51" type="curve" smooth="yes"/>
      <point x="142" y="40"/>
      <point x="149" y="34"/>
      <point x="149" y="22" type="curve" smooth="yes"/>
      <point x="149" y="11"/>
      <point x="143" y="0"/>
      <point x="132" y="0" type="curve" smooth="yes"/>
      <point x="45" y="0" type="line" smooth="yes"/>
      <point x="34" y="0"/>
      <point x="26" y="11"/>
      <point x="26" y="21" type="curve" smooth="yes"/>
      <point x="27" y="51"/>
      <point x="58" y="100"/>
      <point x="90" y="141" type="curve" smooth="yes"/>
      <point x="134.749" y="199.31"/>
      <point x="192.44" y="248.5"/>
      <point x="212" y="330" type="curve"/>
      <point x="203" y="366" type="line" smooth="yes"/>
      <point x="201" y="376"/>
      <point x="190" y="387"/>
      <point x="190" y="402" type="curve" smooth="yes"/>
      <point x="190" y="417"/>
      <point x="194" y="437"/>
      <point x="214" y="437" type="curve" smooth="yes"/>
    </contour>
  </outline>
</glyph>
<glyph name="afii10078" format="2">
  <advance width="685"/>
  <unicode hex="043C"/>
  <anchor x="538" y="502" name="Yerok"/>
  <anchor x="387" y="502" name="Diacritic"/>
  <outline>
    <contour>
      <point x="397" y="29" type="curve" smooth="yes"/>
      <point x="397.915" y="25.9484"/>
      <point x="398.458" y="22.0587"/>
      <point x="398.458" y="18.1266" type="curve" smooth="yes"/>
      <point x="398.458" y="9.17329"/>
      <point x="395.643" y="1.77636e-15"/>
      <point x="388" y="0" type="curve" smooth="yes"/>
      <point x="303" y="0" type="line" smooth="yes"/>
      <point x="289" y="0"/>
      <point x="283" y="17"/>
      <point x="281" y="30" type="curve" smooth="yes"/>
      <point x="266" y="154"/>
      <point x="252" y="211"/>
      <point x="229" y="293" type="curve"/>
      <point x="225" y="279"/>
      <point x="219" y="265"/>
      <point x="211" y="247" type="curve" smooth="yes"/>
      <point x="188" y="196"/>
      <point x="171" y="166"/>
      <point x="157" y="117" type="curve" smooth="yes"/>
      <point x="153" y="104"/>
      <point x="151.25" y="90.75"/>
      <point x="151.25" y="78.25" type="curve" smooth="yes"/>
      <point x="151.25" y="65.75"/>
      <point x="153" y="54"/>
      <point x="156" y="44" type="curve" smooth="yes"/>
      <point x="159" y="33"/>
      <point x="168" y="32"/>
      <point x="168" y="21" type="curve" smooth="yes"/>
      <point x="168" y="10"/>
      <point x="160" y="0"/>
      <point x="149" y="0" type="curve" smooth="yes"/>
      <point x="50" y="0" type="line" smooth="yes"/>
      <point x="39" y="0"/>
      <point x="35" y="15"/>
      <point x="35" y="26" type="curve" smooth="yes"/>
      <point x="35" y="69"/>
      <point x="47" y="97"/>
      <point x="73" y="130" type="curve" smooth="yes"/>
      <point x="116" y="184"/>
      <point x="141" y="205"/>
      <point x="174" y="266" type="curve" smooth="yes"/>
      <point x="193" y="301"/>
      <point x="201" y="332"/>
      <point x="207" y="364" type="curve"/>
      <point x="202" y="380"/>
      <point x="198" y="395"/>
      <point x="198" y="402" type="curve" smooth="yes"/>
      <point x="198" y="417"/>
      <point x="202" y="437"/>
      <point x="222" y="437" type="curve" smooth="yes"/>
      <point x="298" y="437" type="line" smooth="yes"/>
      <point x="308" y="437"/>
      <point x="317" y="429"/>
      <point x="318" y="420" type="curve" smooth="yes"/>
      <point x="327" y="342"/>
      <point x="344" y="244"/>
      <point x="366" y="150" type="curve"/>
      <point x="458" y="386" type="line"/>
      <point x="457" y="392"/>
      <point x="456" y="399"/>
      <point x="456" y="405" type="curve" smooth="yes"/>
      <point x="455.848" y="406.519"/>
      <point x="455.742" y="408.315"/>
      <point x="455.742" y="410.269" type="curve" smooth="yes"/>
      <point x="455.742" y="421.177"/>
      <point x="459.038" y="437"/>
      <point x="476" y="437" type="curve" smooth="yes"/>
      <point x="538" y="437" type="line" smooth="yes"/>
      <point x="548" y="437"/>
      <point x="557" y="429"/>
      <point x="558" y="420" type="curve" smooth="yes"/>
      <point x="569" y="309"/>
      <point x="601" y="150"/>
      <point x="646" y="29" type="curve" smooth="yes"/>
      <point x="646.915" y="26.2536"/>
      <point x="647.458" y="22.4828"/>
      <point x="647.458" y="18.5686" type="curve" smooth="yes"/>
      <point x="647.458" y="9.65609"/>
      <point x="644.643" y="-3.55271e-15"/>
      <point x="637" y="0" type="curve" smooth="yes"/>
      <point x="551" y="0" type="line" smooth="yes"/>
      <point x="537" y="0"/>
      <point x="534" y="12"/>
      <point x="530" y="26" type="curve" smooth="yes"/>
      <point x="508" y="108"/>
      <point x="486" y="209"/>
      <point x="471" y="300" type="curve"/>
      <point x="384" y="78" type="line"/>
      <point x="388" y="61"/>
      <point x="392" y="45"/>
    </contour>
  </outline>
</glyph>
<glyph name="afii10083" format="2">
  <advance width="293"/>
  <unicode hex="0441"/>
  <anchor x="183" y="502" name="Diacritic"/>
  <anchor x="204" y="502" name="Yerok"/>
  <outline>
    <contour>
      <point x="225" y="441" type="curve" smooth="yes"/>
      <point x="236" y="442"/>
      <point x="240" y="440"/>
      <point x="241" y="430" type="curve" smooth="yes"/>
      <point x="242" y="421"/>
      <point x="243" y="405"/>
      <point x="243" y="389" type="curve" smooth="yes"/>
      <point x="243" y="384"/>
      <point x="243" y="379"/>
      <point x="243" y="373" type="curve" smooth="yes"/>
      <point x="243" y="359"/>
      <point x="242" y="346"/>
      <point x="232" y="344" type="curve" smooth="yes"/>
      <point x="176.802" y="329.215"/>
      <point x="142.979" y="294.999"/>
      <point x="142.979" y="254.758" type="curve" smooth="yes"/>
      <point x="142.979" y="254.173"/>
      <point x="142.985" y="253.587"/>
      <point x="143" y="253" type="curve" smooth="yes"/>
      <point x="143" y="253"/>
      <point x="143" y="146"/>
      <point x="146" y="117" type="curve"/>
      <point x="168" y="122"/>
      <point x="207" y="139"/>
      <point x="227" y="145" type="curve" smooth="yes"/>
      <point x="228" y="145"/>
      <point x="230" y="146"/>
      <point x="231" y="146" type="curve" smooth="yes"/>
      <point x="240" y="146"/>
      <point x="242" y="130"/>
      <point x="242" y="106" type="curve" smooth="yes"/>
      <point x="242" y="72"/>
      <point x="195" y="-2"/>
      <point x="84" y="-2" type="curve" smooth="yes"/>
      <point x="71" y="-2"/>
      <point x="53" y="11"/>
      <point x="53" y="23" type="curve" smooth="yes"/>
      <point x="53" y="40"/>
      <point x="53" y="55"/>
      <point x="53" y="69" type="curve" smooth="yes"/>
      <point x="53" y="138"/>
      <point x="50" y="182"/>
      <point x="50" y="269" type="curve" smooth="yes"/>
      <point x="51" y="380"/>
      <point x="116" y="432"/>
    </contour>
  </outline>
</glyph>
<glyph name="afii10086" format="2">
  <advance width="611"/>
  <unicode hex="0444"/>
  <anchor x="498" y="502" name="Yerok"/>
  <anchor x="327" y="772" name="Diacritic"/>
  <outline>
    <contour>
      <point x="375" y="622" type="curve" smooth="yes"/>
      <point x="370" y="567"/>
      <point x="367" y="512"/>
      <point x="364" y="457" type="curve"/>
      <point x="381" y="416"/>
      <point x="397" y="395"/>
      <point x="435" y="361" type="curve" smooth="yes"/>
      <point x="511" y="291"/>
      <point x="583" y="247"/>
      <point x="583" y="146" type="curve" smooth="yes"/>
      <point x="583" y="66"/>
      <point x="525" y="-3"/>
      <point x="435" y="-3" type="curve" smooth="yes"/>
      <point x="402" y="-3"/>
      <point x="370" y="4"/>
      <point x="345" y="14" type="curve"/>
      <point x="341" y="-93"/>
      <point x="336" y="-204"/>
      <point x="329" y="-322" type="curve" smooth="yes"/>
      <point x="327.974" y="-341.487"/>
      <point x="313.537" y="-351.769"/>
      <point x="299.579" y="-351.769" type="curve" smooth="yes"/>
      <point x="286.317" y="-351.769"/>
      <point x="273.487" y="-342.488"/>
      <point x="273" y="-323" type="curve" smooth="yes"/>
      <point x="270" y="-203"/>
      <point x="268" y="-92"/>
      <point x="267" y="12" type="curve"/>
      <point x="241" y="1"/>
      <point x="208" y="-3"/>
      <point x="170" y="-3" type="curve" smooth="yes"/>
      <point x="89" y="-3"/>
      <point x="28" y="70"/>
      <point x="28" y="152" type="curve" smooth="yes"/>
      <point x="28" y="250"/>
      <point x="108" y="287"/>
      <point x="181" y="354" type="curve" smooth="yes"/>
      <point x="217" y="387"/>
      <point x="242" y="408"/>
      <point x="262" y="444" type="curve"/>
      <point x="261" y="494"/>
      <point x="259" y="543"/>
      <point x="257" y="592" type="curve" smooth="yes"/>
      <point x="256" y="605"/>
      <point x="248" y="617"/>
      <point x="235" y="620" type="curve" smooth="yes"/>
      <point x="225.513" y="622.232"/>
      <point x="220.075" y="635.052"/>
      <point x="220.075" y="646.295" type="curve" smooth="yes"/>
      <point x="220.075" y="655.2"/>
      <point x="223.487" y="663.116"/>
      <point x="231" y="664" type="curve" smooth="yes"/>
      <point x="287" y="669"/>
      <point x="337" y="675"/>
      <point x="399" y="696" type="curve" smooth="yes"/>
      <point x="399.95" y="696.339"/>
      <point x="400.896" y="696.499"/>
      <point x="401.829" y="696.499" type="curve" smooth="yes"/>
      <point x="410.65" y="696.499"/>
      <point x="418.36" y="682.237"/>
      <point x="418.36" y="670.609" type="curve" smooth="yes"/>
      <point x="418.36" y="665.342"/>
      <point x="416.778" y="660.615"/>
      <point x="413" y="658" type="curve" smooth="yes"/>
      <point x="398" y="648"/>
      <point x="377" y="641"/>
    </contour>
    <contour>
      <point x="267" y="56" type="curve"/>
      <point x="266" y="165"/>
      <point x="266" y="268"/>
      <point x="264" y="367" type="curve"/>
      <point x="253" y="354"/>
      <point x="240" y="341"/>
      <point x="223" y="327" type="curve" smooth="yes"/>
      <point x="162" y="276"/>
      <point x="129" y="238"/>
      <point x="129" y="164" type="curve" smooth="yes"/>
      <point x="129" y="105"/>
      <point x="173" y="53"/>
      <point x="233" y="53" type="curve" smooth="yes"/>
      <point x="246" y="53"/>
      <point x="257" y="54"/>
    </contour>
    <contour>
      <point x="359" y="375" type="curve"/>
      <point x="354" y="272"/>
      <point x="351" y="168"/>
      <point x="347" y="60" type="curve"/>
      <point x="356" y="59"/>
      <point x="366" y="59"/>
      <point x="378" y="61" type="curve" smooth="yes"/>
      <point x="444.254" y="69.8997"/>
      <point x="488.017" y="107.157"/>
      <point x="488.017" y="168.904" type="curve" smooth="yes"/>
      <point x="488.017" y="241.376"/>
      <point x="459.231" y="277.795"/>
      <point x="404" y="327" type="curve" smooth="yes"/>
      <point x="385" y="344"/>
      <point x="371" y="358"/>
    </contour>
  </outline>
</glyph>
<glyph name="afii10087" format="2">
  <advance width="480"/>
  <unicode hex="0445"/>
  <anchor x="378" y="502" name="Yerok"/>
  <anchor x="227" y="502" name="Diacritic"/>
  <outline>
    <contour>
      <point x="415.08" y="330.982" type="curve" smooth="yes"/>
      <point x="415.08" y="316.02"/>
      <point x="410.483" y="314.972"/>
      <point x="398.469" y="314.972" type="curve" smooth="yes"/>
      <point x="396.513" y="314.972"/>
      <point x="394.361" y="315"/>
      <point x="392" y="315" type="curve" smooth="yes"/>
      <point x="377" y="315"/>
      <point x="362" y="339"/>
      <point x="337" y="339" type="curve" smooth="yes"/>
      <point x="316" y="339"/>
      <point x="302" y="316"/>
      <point x="296" y="296" type="curve" smooth="yes"/>
      <point x="252" y="156" type="line"/>
      <point x="417" y="-302" type="line" smooth="yes"/>
      <point x="417.575" y="-303.437"/>
      <point x="417.84" y="-304.894"/>
      <point x="417.84" y="-306.336" type="curve" smooth="yes"/>
      <point x="417.84" y="-314.933"/>
      <point x="408.42" y="-323"/>
      <point x="399" y="-323" type="curve" smooth="yes"/>
      <point x="331" y="-323" type="line" smooth="yes"/>
      <point x="320" y="-323"/>
      <point x="313" y="-313"/>
      <point x="309" y="-303" type="curve" smooth="yes"/>
      <point x="201" y="-4" type="line"/>
      <point x="75" y="-407" type="line" smooth="yes"/>
      <point x="69.8626" y="-423.203"/>
      <point x="60.821" y="-430.347"/>
      <point x="52.6272" y="-430.347" type="curve" smooth="yes"/>
      <point x="43.231" y="-430.347"/>
      <point x="34.9498" y="-420.952"/>
      <point x="34.9498" y="-405.046" type="curve" smooth="yes"/>
      <point x="34.9498" y="-399.723"/>
      <point x="35.877" y="-393.672"/>
      <point x="38" y="-387" type="curve" smooth="yes"/>
      <point x="178" y="60" type="line"/>
      <point x="50" y="417" type="line" smooth="yes"/>
      <point x="47" y="426"/>
      <point x="57" y="437"/>
      <point x="67" y="437" type="curve" smooth="yes"/>
      <point x="134" y="437" type="line" smooth="yes"/>
      <point x="144" y="437"/>
      <point x="155" y="428"/>
      <point x="158" y="419" type="curve" smooth="yes"/>
      <point x="228" y="222" type="line"/>
      <point x="256" y="309" type="line" smooth="yes"/>
      <point x="275.886" y="373.63"/>
      <point x="318.774" y="442.233"/>
      <point x="401.646" y="442.233" type="curve" smooth="yes"/>
      <point x="423.597" y="442.233"/>
      <point x="446.027" y="431.861"/>
      <point x="446.027" y="414.073" type="curve" smooth="yes"/>
      <point x="446.027" y="404.417"/>
      <point x="426.353" y="389.958"/>
      <point x="419" y="370" type="curve" smooth="yes"/>
      <point x="415.5" y="360.5"/>
      <point x="415" y="349.75"/>
      <point x="415" y="340.75" type="curve" smooth="yes"/>
      <point x="415" y="337.15"/>
      <point x="415.08" y="333.83"/>
    </contour>
  </outline>
</glyph>
<glyph name="afii10088" format="2">
  <advance width="499"/>
  <unicode hex="0446"/>
  <anchor x="358" y="502" name="Yerok"/>
  <anchor x="237" y="502" name="Diacritic"/>
  <outline>
    <contour>
      <point x="356" y="0" type="curve" smooth="yes"/>
      <point x="80" y="0" type="line" smooth="yes"/>
      <point x="72" y="0"/>
      <point x="65" y="9"/>
      <point x="65" y="16" type="curve" smooth="yes"/>
      <point x="63.9107" y="37.7866"/>
      <point x="63.4384" y="63.9875"/>
      <point x="63.4384" y="92.8241" type="curve" smooth="yes"/>
      <point x="63.4384" y="196.347"/>
      <point x="69.5251" y="333.837"/>
      <point x="75" y="423" type="curve" smooth="yes"/>
      <point x="75" y="429"/>
      <point x="80" y="437"/>
      <point x="87" y="437" type="curve" smooth="yes"/>
      <point x="161" y="437" type="line" smooth="yes"/>
      <point x="169.538" y="437"/>
      <point x="178.076" y="427.1"/>
      <point x="178.076" y="415.838" type="curve" smooth="yes"/>
      <point x="178.076" y="325.599"/>
      <point x="163.28" y="197.736"/>
      <point x="163.28" y="107.696" type="curve" smooth="yes"/>
      <point x="163.28" y="85.36"/>
      <point x="163.8" y="65.4"/>
      <point x="165" y="49" type="curve" smooth="yes"/>
      <point x="165" y="46"/>
      <point x="166" y="43"/>
      <point x="166" y="40" type="curve"/>
      <point x="286" y="40" type="line"/>
      <point x="285.299" y="64.55"/>
      <point x="284.98" y="92.872"/>
      <point x="284.98" y="123.202" type="curve" smooth="yes"/>
      <point x="284.98" y="222.594"/>
      <point x="288.403" y="343.55"/>
      <point x="293" y="424" type="curve" smooth="yes"/>
      <point x="293" y="430"/>
      <point x="298" y="437"/>
      <point x="305" y="437" type="curve" smooth="yes"/>
      <point x="379" y="437" type="line" smooth="yes"/>
      <point x="387.538" y="437"/>
      <point x="396.076" y="427.1"/>
      <point x="396.076" y="415.838" type="curve" smooth="yes"/>
      <point x="396.076" y="351.065"/>
      <point x="388.49" y="267.523"/>
      <point x="388.49" y="192.006" type="curve" smooth="yes"/>
      <point x="388.49" y="135.959"/>
      <point x="390.143" y="84.7143"/>
      <point x="394" y="50" type="curve" smooth="yes"/>
      <point x="394" y="47"/>
      <point x="395" y="43"/>
      <point x="396" y="40" type="curve"/>
      <point x="458" y="40" type="line" smooth="yes"/>
      <point x="475.675" y="40"/>
      <point x="479.486" y="25.6738"/>
      <point x="479.486" y="13.9861" type="curve" smooth="yes"/>
      <point x="479.486" y="8.48116"/>
      <point x="478.64" y="3.56155"/>
      <point x="478" y="1" type="curve" smooth="yes"/>
      <point x="449" y="-134"/>
      <point x="429" y="-232"/>
      <point x="417" y="-356" type="curve" smooth="yes"/>
      <point x="415.949" y="-369.14"/>
      <point x="405.228" y="-377.308"/>
      <point x="395.293" y="-377.308" type="curve" smooth="yes"/>
      <point x="386.327" y="-377.308"/>
      <point x="378" y="-370.655"/>
      <point x="378" y="-355" type="curve" smooth="yes"/>
      <point x="378" y="-43" type="line" smooth="yes"/>
      <point x="378" y="-24"/>
      <point x="369" y="0"/>
    </contour>
  </outline>
</glyph>
<glyph name="afii10090" format="2">
  <advance width="668"/>
  <unicode hex="0448"/>
  <anchor x="558" y="502" name="Yerok"/>
  <anchor x="337" y="502" name="Diacritic"/>
  <outline>
    <contour>
      <point x="612.345" y="26.1777" type="curve" smooth="yes"/>
      <point x="612.345" y="15.7293"/>
      <point x="604.169" y="0"/>
      <point x="595" y="0" type="curve" smooth="yes"/>
      <point x="81" y="0" type="line" smooth="yes"/>
      <point x="73" y="0"/>
      <point x="67" y="9"/>
      <point x="66" y="16" type="curve" smooth="yes"/>
      <point x="63.9184" y="45.44"/>
      <point x="63.0748" y="83.1926"/>
      <point x="63.0748" y="124.761" type="curve" smooth="yes"/>
      <point x="63.0748" y="222.977"/>
      <point x="67.7842" y="342.495"/>
      <point x="72" y="424" type="curve" smooth="yes"/>
      <point x="72" y="430"/>
      <point x="77" y="437"/>
      <point x="84" y="437" type="curve" smooth="yes"/>
      <point x="158" y="437" type="line" smooth="yes"/>
      <point x="166.538" y="437"/>
      <point x="175.076" y="427.1"/>
      <point x="175.076" y="415.838" type="curve" smooth="yes"/>
      <point x="175.076" y="351.065"/>
      <point x="167.49" y="267.523"/>
      <point x="167.49" y="192.006" type="curve" smooth="yes"/>
      <point x="167.49" y="135.959"/>
      <point x="169.143" y="84.7143"/>
      <point x="173" y="50" type="curve" smooth="yes"/>
      <point x="173" y="47"/>
      <point x="174" y="43"/>
      <point x="175" y="40" type="curve"/>
      <point x="283" y="40" type="line"/>
      <point x="281.4" y="81.2"/>
      <point x="280.6" y="133.76"/>
      <point x="280.6" y="188.848" type="curve" smooth="yes"/>
      <point x="280.6" y="271.48"/>
      <point x="282.4" y="359.8"/>
      <point x="286" y="424" type="curve" smooth="yes"/>
      <point x="286" y="430"/>
      <point x="291" y="437"/>
      <point x="298" y="437" type="curve" smooth="yes"/>
      <point x="372" y="437" type="line" smooth="yes"/>
      <point x="380.538" y="437"/>
      <point x="389.076" y="427.1"/>
      <point x="389.076" y="415.838" type="curve" smooth="yes"/>
      <point x="389.076" y="351.065"/>
      <point x="381.49" y="267.523"/>
      <point x="381.49" y="192.006" type="curve" smooth="yes"/>
      <point x="381.49" y="135.959"/>
      <point x="383.143" y="84.7143"/>
      <point x="387" y="50" type="curve" smooth="yes"/>
      <point x="387" y="47"/>
      <point x="387" y="43"/>
      <point x="388" y="40" type="curve"/>
      <point x="501" y="40" type="line"/>
      <point x="499.693" y="67.1909"/>
      <point x="499.137" y="99.0984"/>
      <point x="499.137" y="133.31" type="curve" smooth="yes"/>
      <point x="499.137" y="229.951"/>
      <point x="503.569" y="344.975"/>
      <point x="508" y="424" type="curve" smooth="yes"/>
      <point x="508" y="430"/>
      <point x="513" y="437"/>
      <point x="520" y="437" type="curve" smooth="yes"/>
      <point x="594" y="437" type="line" smooth="yes"/>
      <point x="602.538" y="437"/>
      <point x="611.076" y="427.1"/>
      <point x="611.076" y="415.838" type="curve" smooth="yes"/>
      <point x="611.076" y="351.065"/>
      <point x="603.49" y="267.523"/>
      <point x="603.49" y="192.006" type="curve" smooth="yes"/>
      <point x="603.49" y="135.959"/>
      <point x="605.143" y="84.7143"/>
      <point x="609" y="50" type="curve" smooth="yes"/>
      <point x="609.642" y="42.295"/>
      <point x="612.345" y="34.1778"/>
    </contour>
  </outline>
</glyph>
<glyph name="afii10092" format="2">
  <advance width="446"/>
  <unicode hex="044A"/>
  <anchor x="338" y="502" name="Yerok"/>
  <anchor x="227" y="502" name="Diacritic"/>
  <outline>
    <contour>
      <point x="270" y="201" type="line"/>
      <point x="314" y="201" type="line" smooth="yes"/>
      <point x="323" y="201"/>
      <point x="327" y="194"/>
      <point x="330" y="185" type="curve" smooth="yes"/>
      <point x="386" y="21" type="line" smooth="yes"/>
      <point x="386.341" y="19.8641"/>
      <point x="386.501" y="18.7152"/>
      <point x="386.501" y="17.571" type="curve" smooth="yes"/>
      <point x="386.501" y="8.64286"/>
      <point x="376.75" y="1.77636e-15"/>
      <point x="367" y="0" type="curve" smooth="yes"/>
      <point x="58" y="0" type="line" smooth="yes"/>
      <point x="51" y="0"/>
      <point x="48.25" y="5.75"/>
      <point x="48.25" y="13" type="curve" smooth="yes"/>
      <point x="48.25" y="20.25"/>
      <point x="51" y="29"/>
      <point x="55" y="35" type="curve" smooth="yes"/>
      <point x="282" y="397" type="line"/>
      <point x="157" y="397" type="line"/>
      <point x="157" y="259" type="line" smooth="yes"/>
      <point x="157" y="250"/>
      <point x="148" y="243"/>
      <point x="139" y="243" type="curve" smooth="yes"/>
      <point x="73" y="243" type="line" smooth="yes"/>
      <point x="63" y="243"/>
      <point x="55" y="254"/>
      <point x="55" y="263" type="curve" smooth="yes"/>
      <point x="56" y="314"/>
      <point x="61" y="349"/>
      <point x="61" y="382" type="curve" smooth="yes"/>
      <point x="61" y="400"/>
      <point x="31" y="401"/>
      <point x="31" y="417" type="curve" smooth="yes"/>
      <point x="31" y="428"/>
      <point x="38" y="437"/>
      <point x="50" y="437" type="curve" smooth="yes"/>
      <point x="394" y="437" type="line" smooth="yes"/>
      <point x="403" y="437"/>
      <point x="411" y="426"/>
      <point x="406" y="418" type="curve" smooth="yes"/>
    </contour>
    <contour>
      <point x="242" y="156" type="line"/>
      <point x="169" y="40" type="line"/>
      <point x="282" y="40" type="line"/>
    </contour>
  </outline>
</glyph>
<glyph name="afii10093" format="2">
  <advance width="574"/>
  <unicode hex="044B"/>
  <anchor x="438" y="502" name="Yerok"/>
  <anchor x="297" y="502" name="Diacritic"/>
  <outline>
    <contour>
      <point x="163" y="241" type="curve"/>
      <point x="181" y="246"/>
      <point x="195" y="252"/>
      <point x="218" y="260" type="curve" smooth="yes"/>
      <point x="228.122" y="263.573"/>
      <point x="238.245" y="268.209"/>
      <point x="246.889" y="268.209" type="curve" smooth="yes"/>
      <point x="252.763" y="268.209"/>
      <point x="257.954" y="266.069"/>
      <point x="262" y="260" type="curve" smooth="yes"/>
      <point x="312" y="187"/>
      <point x="357" y="102"/>
      <point x="390" y="23" type="curve" smooth="yes"/>
      <point x="391.017" y="20.5586"/>
      <point x="391.496" y="18.1585"/>
      <point x="391.496" y="15.8841" type="curve" smooth="yes"/>
      <point x="391.496" y="6.97938"/>
      <point x="384.152" y="0"/>
      <point x="373" y="0" type="curve" smooth="yes"/>
      <point x="69" y="0" type="line" smooth="yes"/>
      <point x="58" y="0"/>
      <point x="52" y="4"/>
      <point x="52" y="15" type="curve" smooth="yes"/>
      <point x="68" y="381" type="line" smooth="yes"/>
      <point x="69" y="393"/>
      <point x="71" y="401"/>
      <point x="79" y="409" type="curve" smooth="yes"/>
      <point x="101" y="430"/>
      <point x="109" y="436"/>
      <point x="151" y="442" type="curve" smooth="yes"/>
      <point x="152.711" y="442.244"/>
      <point x="154.616" y="442.369"/>
      <point x="156.634" y="442.369" type="curve" smooth="yes"/>
      <point x="170.016" y="442.369"/>
      <point x="188.4" y="436.88"/>
      <point x="188.4" y="424.306" type="curve" smooth="yes"/>
      <point x="188.4" y="378.492"/>
      <point x="170.011" y="310.108"/>
    </contour>
    <contour>
      <point x="525.605" y="27.1407" type="curve" smooth="yes"/>
      <point x="525.605" y="16.5194"/>
      <point x="517.493" y="0"/>
      <point x="508" y="0" type="curve" smooth="yes"/>
      <point x="430" y="0" type="line" smooth="yes"/>
      <point x="422" y="0"/>
      <point x="416" y="9"/>
      <point x="415" y="16" type="curve" smooth="yes"/>
      <point x="407.967" y="85.6225"/>
      <point x="403.408" y="202.724"/>
      <point x="403.408" y="305.741" type="curve" smooth="yes"/>
      <point x="403.408" y="349.21"/>
      <point x="404.22" y="390.171"/>
      <point x="406" y="424" type="curve" smooth="yes"/>
      <point x="406" y="430"/>
      <point x="411" y="437"/>
      <point x="418" y="437" type="curve" smooth="yes"/>
      <point x="492" y="437" type="line" smooth="yes"/>
      <point x="500.538" y="437"/>
      <point x="509.076" y="427.1"/>
      <point x="509.076" y="415.838" type="curve" smooth="yes"/>
      <point x="509.076" y="388.399"/>
      <point x="506.947" y="358.196"/>
      <point x="506.947" y="326.31" type="curve" smooth="yes"/>
      <point x="506.947" y="225.656"/>
      <point x="513.598" y="111.867"/>
      <point x="522" y="50" type="curve" smooth="yes"/>
      <point x="523.233" y="42.604"/>
      <point x="525.605" y="34.8281"/>
    </contour>
    <contour>
      <point x="159" y="192" type="curve"/>
      <point x="154" y="137"/>
      <point x="151" y="83"/>
      <point x="149" y="40" type="curve"/>
      <point x="262" y="40" type="line" smooth="yes"/>
      <point x="266" y="40"/>
      <point x="265" y="46"/>
      <point x="264" y="50" type="curve" smooth="yes"/>
      <point x="255" y="87"/>
      <point x="213" y="158"/>
    </contour>
  </outline>
</glyph>
<glyph name="afii10094" format="2">
  <advance width="402"/>
  <unicode hex="044C"/>
  <anchor x="308" y="502" name="Yerok"/>
  <anchor x="207" y="502" name="Diacritic"/>
  <outline>
    <contour>
      <point x="161" y="218" type="curve"/>
      <point x="174" y="221"/>
      <point x="187" y="224"/>
      <point x="204" y="230" type="curve" smooth="yes"/>
      <point x="214.122" y="233.573"/>
      <point x="226.017" y="238.209"/>
      <point x="236.096" y="238.209" type="curve" smooth="yes"/>
      <point x="242.945" y="238.209"/>
      <point x="248.954" y="236.069"/>
      <point x="253" y="230" type="curve" smooth="yes"/>
      <point x="303" y="157"/>
      <point x="332" y="100"/>
      <point x="365" y="21" type="curve" smooth="yes"/>
      <point x="366.017" y="18.5586"/>
      <point x="366.496" y="16.2413"/>
      <point x="366.496" y="14.0988" type="curve" smooth="yes"/>
      <point x="366.496" y="5.7104"/>
      <point x="359.152" y="8.88178e-16"/>
      <point x="348" y="0" type="curve" smooth="yes"/>
      <point x="76" y="0" type="line" smooth="yes"/>
      <point x="65" y="0"/>
      <point x="50" y="1"/>
      <point x="50" y="13" type="curve" smooth="yes"/>
      <point x="54" y="146"/>
      <point x="71" y="324"/>
      <point x="82" y="417" type="curve" smooth="yes"/>
      <point x="83" y="429"/>
      <point x="94" y="437"/>
      <point x="106" y="437" type="curve" smooth="yes"/>
      <point x="177" y="437" type="line" smooth="yes"/>
      <point x="186" y="437"/>
      <point x="195" y="435"/>
      <point x="191" y="418" type="curve" smooth="yes"/>
      <point x="180" y="368"/>
      <point x="169" y="293"/>
    </contour>
    <contour>
      <point x="156" y="174" type="curve"/>
      <point x="151" y="125"/>
      <point x="147" y="78"/>
      <point x="145" y="40" type="curve"/>
      <point x="240" y="40" type="line" smooth="yes"/>
      <point x="244" y="40"/>
      <point x="243" y="46"/>
      <point x="242" y="50" type="curve" smooth="yes"/>
      <point x="231" y="86"/>
      <point x="203" y="140"/>
    </contour>
  </outline>
</glyph>
<glyph name="uni044D" format="2">
  <advance width="464"/>
  <unicode hex="044D"/>
  <anchor x="338" y="502" name="Yerok"/>
  <anchor x="217" y="502" name="Diacritic"/>
  <outline>
    <contour>
      <point x="409" y="92" type="curve" smooth="yes"/>
      <point x="400" y="-16"/>
      <point x="345" y="-119"/>
      <point x="247" y="-162" type="curve" smooth="yes"/>
      <point x="242" y="-164"/>
      <point x="241" y="-163"/>
      <point x="234" y="-162" type="curve" smooth="yes"/>
      <point x="197" y="-155"/>
      <point x="114" y="-101"/>
      <point x="85" y="-50" type="curve" smooth="yes"/>
      <point x="79" y="-40"/>
      <point x="90" y="-28"/>
      <point x="101" y="-28" type="curve" smooth="yes"/>
      <point x="139" y="-27"/>
      <point x="164" y="-26"/>
      <point x="203" y="-22" type="curve"/>
      <point x="220" y="-37"/>
      <point x="245" y="-46"/>
      <point x="269" y="-51" type="curve"/>
      <point x="294" y="-1"/>
      <point x="300" y="53"/>
      <point x="305" y="118" type="curve"/>
      <point x="287" y="127"/>
      <point x="266" y="139"/>
      <point x="251" y="146" type="curve" smooth="yes"/>
      <point x="245" y="149"/>
      <point x="236" y="148"/>
      <point x="231" y="143" type="curve" smooth="yes"/>
      <point x="220" y="131"/>
      <point x="195" y="110"/>
      <point x="169" y="84" type="curve" smooth="yes"/>
      <point x="162" y="77"/>
      <point x="153" y="74"/>
      <point x="142" y="81" type="curve" smooth="yes"/>
      <point x="124" y="93"/>
      <point x="92" y="103"/>
      <point x="72" y="110" type="curve" smooth="yes"/>
      <point x="63" y="113"/>
      <point x="66" y="126"/>
      <point x="72" y="132" type="curve" smooth="yes"/>
      <point x="110" y="170"/>
      <point x="132" y="209"/>
      <point x="163" y="241" type="curve" smooth="yes"/>
      <point x="170" y="248"/>
      <point x="182" y="246"/>
      <point x="189" y="241" type="curve" smooth="yes"/>
      <point x="209" y="226"/>
      <point x="227" y="212"/>
      <point x="251" y="199" type="curve" smooth="yes"/>
      <point x="274" y="187"/>
      <point x="291" y="178"/>
      <point x="309" y="172" type="curve"/>
      <point x="310.243" y="193.125"/>
      <point x="310.971" y="213.049"/>
      <point x="310.971" y="232.198" type="curve" smooth="yes"/>
      <point x="310.971" y="259.279"/>
      <point x="309.515" y="284.811"/>
      <point x="306" y="310" type="curve"/>
      <point x="300" y="324"/>
      <point x="283" y="355"/>
      <point x="270" y="368" type="curve"/>
      <point x="239" y="362"/>
      <point x="210" y="339"/>
      <point x="170" y="326" type="curve" smooth="yes"/>
      <point x="164.422" y="324.141"/>
      <point x="159.493" y="323.362"/>
      <point x="154.508" y="323.362" type="curve" smooth="yes"/>
      <point x="148.769" y="323.362"/>
      <point x="142.957" y="324.394"/>
      <point x="136" y="326" type="curve" smooth="yes"/>
      <point x="106" y="334"/>
      <point x="83" y="336"/>
      <point x="59" y="368" type="curve" smooth="yes"/>
      <point x="57.1598" y="370.3"/>
      <point x="56.325" y="373.077"/>
      <point x="56.325" y="376.025" type="curve" smooth="yes"/>
      <point x="56.325" y="385.894"/>
      <point x="65.6803" y="397.69"/>
      <point x="78" y="400" type="curve" smooth="yes"/>
      <point x="128" y="409"/>
      <point x="167" y="420"/>
      <point x="208" y="440" type="curve" smooth="yes"/>
      <point x="215" y="444"/>
      <point x="220" y="442"/>
      <point x="228" y="440" type="curve" smooth="yes"/>
      <point x="295" y="424"/>
      <point x="334" y="385"/>
      <point x="383" y="331" type="curve"/>
      <point x="402.961" y="271.857"/>
      <point x="412.537" y="229.656"/>
      <point x="412.537" y="167.226" type="curve" smooth="yes"/>
      <point x="412.537" y="145.21"/>
      <point x="411.346" y="120.678"/>
    </contour>
  </outline>
</glyph>
<glyph name="afii10096" format="2">
  <advance width="506"/>
  <unicode hex="044E"/>
  <anchor x="398" y="502" name="Yerok"/>
  <anchor x="247" y="502" name="Diacritic"/>
  <outline>
    <contour>
      <point x="169.345" y="26.1777" type="curve" smooth="yes"/>
      <point x="169.345" y="15.7293"/>
      <point x="161.169" y="0"/>
      <point x="152" y="0" type="curve" smooth="yes"/>
      <point x="74" y="0" type="line" smooth="yes"/>
      <point x="66" y="0"/>
      <point x="59" y="9"/>
      <point x="59" y="16" type="curve" smooth="yes"/>
      <point x="57.8032" y="39.937"/>
      <point x="57.2939" y="69.2599"/>
      <point x="57.2939" y="101.582" type="curve" smooth="yes"/>
      <point x="57.2939" y="204.292"/>
      <point x="62.4362" y="337.288"/>
      <point x="67" y="424" type="curve" smooth="yes"/>
      <point x="67" y="430"/>
      <point x="72" y="437"/>
      <point x="79" y="437" type="curve" smooth="yes"/>
      <point x="154" y="437" type="line" smooth="yes"/>
      <point x="162.538" y="437"/>
      <point x="171.076" y="427.1"/>
      <point x="171.076" y="415.838" type="curve" smooth="yes"/>
      <point x="171.076" y="369.066"/>
      <point x="165.012" y="312.691"/>
      <point x="164" y="256" type="curve"/>
      <point x="243" y="256" type="line"/>
      <point x="252" y="336"/>
      <point x="297" y="406"/>
      <point x="343" y="438" type="curve" smooth="yes"/>
      <point x="346.307" y="440.362"/>
      <point x="351.847" y="441.385"/>
      <point x="357.51" y="441.385" type="curve" smooth="yes"/>
      <point x="363.832" y="441.385"/>
      <point x="370.307" y="440.11"/>
      <point x="374" y="438" type="curve" smooth="yes"/>
      <point x="432" y="405"/>
      <point x="460" y="314"/>
      <point x="460" y="220" type="curve" smooth="yes"/>
      <point x="460" y="124"/>
      <point x="429" y="36"/>
      <point x="364" y="-4" type="curve" smooth="yes"/>
      <point x="359.819" y="-6.61294"/>
      <point x="352.635" y="-8.13349"/>
      <point x="345.871" y="-8.13349" type="curve" smooth="yes"/>
      <point x="339.692" y="-8.13349"/>
      <point x="333.864" y="-6.86447"/>
      <point x="331" y="-4" type="curve" smooth="yes"/>
      <point x="279" y="46"/>
      <point x="244" y="117"/>
      <point x="241" y="213" type="curve"/>
      <point x="163" y="213" type="line"/>
      <point x="163" y="149"/>
      <point x="163" y="88"/>
      <point x="166" y="50" type="curve" smooth="yes"/>
      <point x="166.642" y="42.295"/>
      <point x="169.345" y="34.1778"/>
    </contour>
    <contour>
      <point x="353" y="304" type="curve"/>
      <point x="321" y="279"/>
      <point x="314" y="247"/>
      <point x="314" y="208" type="curve" smooth="yes"/>
      <point x="314" y="172"/>
      <point x="322" y="140"/>
      <point x="356" y="117" type="curve"/>
      <point x="387" y="134"/>
      <point x="396" y="172"/>
      <point x="396" y="207" type="curve" smooth="yes"/>
      <point x="396" y="246"/>
      <point x="385" y="281"/>
    </contour>
  </outline>
</glyph>
<glyph name="uni0452" format="2">
  <advance width="568"/>
  <unicode hex="0452"/>
  <anchor x="279" y="519" name="Diacritic"/>
  <anchor x="375" y="519" name="Yerok"/>
  <outline>
    <contour>
      <point x="414" y="-4" type="line"/>
      <point x="413" y="32"/>
      <point x="390" y="129"/>
      <point x="330" y="156" type="curve"/>
      <point x="330" y="110"/>
      <point x="330" y="74"/>
      <point x="330" y="14" type="curve" smooth="yes"/>
      <point x="330" y="0"/>
      <point x="314" y="0"/>
      <point x="304" y="0" type="curve" smooth="yes"/>
      <point x="288" y="0"/>
      <point x="259" y="0"/>
      <point x="259" y="0" type="curve" smooth="yes"/>
      <point x="248" y="0"/>
      <point x="233" y="2"/>
      <point x="233" y="13" type="curve" smooth="yes"/>
      <point x="232" y="58"/>
      <point x="230" y="138"/>
      <point x="230" y="229" type="curve" smooth="yes"/>
      <point x="230" y="282"/>
      <point x="230" y="341"/>
      <point x="230" y="397" type="curve"/>
      <point x="144" y="397" type="line" smooth="yes"/>
      <point x="138" y="397"/>
      <point x="130" y="392"/>
      <point x="130" y="386" type="curve" smooth="yes"/>
      <point x="130" y="201" type="line" smooth="yes"/>
      <point x="130" y="195"/>
      <point x="127" y="189"/>
      <point x="121" y="189" type="curve" smooth="yes"/>
      <point x="38" y="189" type="line" smooth="yes"/>
      <point x="33" y="189"/>
      <point x="30" y="194"/>
      <point x="30" y="199" type="curve" smooth="yes"/>
      <point x="30" y="416" type="line" smooth="yes"/>
      <point x="30" y="426"/>
      <point x="35" y="436"/>
      <point x="45" y="436" type="curve" smooth="yes"/>
      <point x="230" y="436" type="line"/>
      <point x="231" y="585"/>
      <point x="243" y="722"/>
      <point x="248" y="766" type="curve" smooth="yes"/>
      <point x="248" y="777"/>
      <point x="259" y="782"/>
      <point x="270" y="786" type="curve" smooth="yes"/>
      <point x="296" y="795"/>
      <point x="313" y="800"/>
      <point x="334" y="800" type="curve" smooth="yes"/>
      <point x="338" y="800"/>
      <point x="340" y="800"/>
      <point x="344" y="800" type="curve" smooth="yes"/>
      <point x="353" y="800"/>
      <point x="362" y="797"/>
      <point x="358" y="781" type="curve" smooth="yes"/>
      <point x="348" y="736"/>
      <point x="336" y="590"/>
      <point x="331" y="436" type="curve"/>
      <point x="515" y="436" type="line" smooth="yes"/>
      <point x="523.763" y="436"/>
      <point x="527.041" y="428.948"/>
      <point x="527.041" y="420.974" type="curve" smooth="yes"/>
      <point x="527.041" y="416.209"/>
      <point x="525.87" y="411.115"/>
      <point x="524" y="407" type="curve" smooth="yes"/>
      <point x="511" y="377"/>
      <point x="499" y="329"/>
      <point x="490" y="303" type="curve" smooth="yes"/>
      <point x="486" y="294"/>
      <point x="482" y="281"/>
      <point x="469" y="281" type="curve" smooth="yes"/>
      <point x="459" y="281"/>
      <point x="452" y="294"/>
      <point x="447" y="305" type="curve" smooth="yes"/>
      <point x="432" y="336"/>
      <point x="418" y="381"/>
      <point x="405" y="397" type="curve"/>
      <point x="330" y="397" type="line"/>
      <point x="330" y="331"/>
      <point x="328" y="260"/>
      <point x="328" y="196" type="curve"/>
      <point x="348" y="202"/>
      <point x="363" y="209"/>
      <point x="389" y="215" type="curve" smooth="yes"/>
      <point x="400" y="219"/>
      <point x="410" y="223"/>
      <point x="419" y="223" type="curve" smooth="yes"/>
      <point x="424" y="223"/>
      <point x="430" y="221"/>
      <point x="434" y="215" type="curve" smooth="yes"/>
      <point x="474" y="155"/>
      <point x="522" y="60"/>
      <point x="533" y="31" type="curve"/>
      <point x="537" y="15"/>
      <point x="538" y="9"/>
      <point x="538" y="0" type="curve" smooth="yes"/>
      <point x="538" y="-6"/>
      <point x="534" y="-16"/>
      <point x="528" y="-27" type="curve" smooth="yes"/>
      <point x="419" y="-228"/>
      <point x="372" y="-296"/>
      <point x="357" y="-296" type="curve" smooth="yes"/>
      <point x="353" y="-296"/>
      <point x="353" y="-293"/>
      <point x="353" y="-284" type="curve" smooth="yes"/>
      <point x="353" y="-235"/>
      <point x="414" y="-54"/>
      <point x="414" y="-5" type="curve" smooth="yes"/>
    </contour>
  </outline>
</glyph>
<glyph name="afii10101" format="2">
  <advance width="464"/>
  <unicode hex="0454"/>
  <anchor x="338" y="502" name="Yerok"/>
  <anchor x="241" y="502" name="Diacritic"/>
  <outline>
    <contour>
      <point x="59" y="92" type="curve" smooth="yes"/>
      <point x="56.6536" y="120.678"/>
      <point x="55.4627" y="145.21"/>
      <point x="55.4627" y="167.226" type="curve" smooth="yes"/>
      <point x="55.4627" y="229.656"/>
      <point x="65.0391" y="271.857"/>
      <point x="85" y="331" type="curve"/>
      <point x="134" y="385"/>
      <point x="173" y="424"/>
      <point x="240" y="440" type="curve" smooth="yes"/>
      <point x="248" y="442"/>
      <point x="253" y="444"/>
      <point x="260" y="440" type="curve" smooth="yes"/>
      <point x="301" y="420"/>
      <point x="340" y="409"/>
      <point x="390" y="400" type="curve" smooth="yes"/>
      <point x="402.32" y="397.69"/>
      <point x="411.675" y="385.894"/>
      <point x="411.675" y="376.025" type="curve" smooth="yes"/>
      <point x="411.675" y="373.077"/>
      <point x="410.84" y="370.3"/>
      <point x="409" y="368" type="curve" smooth="yes"/>
      <point x="385" y="336"/>
      <point x="362" y="334"/>
      <point x="332" y="326" type="curve" smooth="yes"/>
      <point x="325.043" y="324.394"/>
      <point x="319.231" y="323.362"/>
      <point x="313.492" y="323.362" type="curve" smooth="yes"/>
      <point x="308.507" y="323.362"/>
      <point x="303.578" y="324.141"/>
      <point x="298" y="326" type="curve" smooth="yes"/>
      <point x="258" y="339"/>
      <point x="229" y="362"/>
      <point x="198" y="368" type="curve"/>
      <point x="185" y="355"/>
      <point x="168" y="324"/>
      <point x="162" y="310" type="curve"/>
      <point x="158.485" y="284.811"/>
      <point x="157.029" y="259.279"/>
      <point x="157.029" y="232.198" type="curve" smooth="yes"/>
      <point x="157.029" y="213.049"/>
      <point x="157.757" y="193.125"/>
      <point x="159" y="172" type="curve"/>
      <point x="177" y="178"/>
      <point x="194" y="187"/>
      <point x="217" y="199" type="curve" smooth="yes"/>
      <point x="241" y="212"/>
      <point x="259" y="226"/>
      <point x="279" y="241" type="curve" smooth="yes"/>
      <point x="286" y="246"/>
      <point x="298" y="248"/>
      <point x="305" y="241" type="curve" smooth="yes"/>
      <point x="336" y="209"/>
      <point x="358" y="170"/>
      <point x="396" y="132" type="curve" smooth="yes"/>
      <point x="402" y="126"/>
      <point x="405" y="113"/>
      <point x="396" y="110" type="curve" smooth="yes"/>
      <point x="376" y="103"/>
      <point x="344" y="93"/>
      <point x="326" y="81" type="curve" smooth="yes"/>
      <point x="315" y="74"/>
      <point x="306" y="77"/>
      <point x="299" y="84" type="curve" smooth="yes"/>
      <point x="273" y="110"/>
      <point x="248" y="131"/>
      <point x="237" y="143" type="curve" smooth="yes"/>
      <point x="232" y="148"/>
      <point x="223" y="149"/>
      <point x="217" y="146" type="curve" smooth="yes"/>
      <point x="202" y="139"/>
      <point x="181" y="127"/>
      <point x="163" y="118" type="curve"/>
      <point x="168" y="53"/>
      <point x="174" y="-1"/>
      <point x="199" y="-51" type="curve"/>
      <point x="223" y="-46"/>
      <point x="248" y="-37"/>
      <point x="265" y="-22" type="curve"/>
      <point x="304" y="-26"/>
      <point x="329" y="-27"/>
      <point x="367" y="-28" type="curve" smooth="yes"/>
      <point x="378" y="-28"/>
      <point x="389" y="-40"/>
      <point x="383" y="-50" type="curve" smooth="yes"/>
      <point x="354" y="-101"/>
      <point x="271" y="-155"/>
      <point x="234" y="-162" type="curve" smooth="yes"/>
      <point x="227" y="-163"/>
      <point x="226" y="-164"/>
      <point x="221" y="-162" type="curve" smooth="yes"/>
      <point x="123" y="-119"/>
      <point x="68" y="-16"/>
    </contour>
  </outline>
</glyph>
<glyph name="afii10102" format="2">
  <advance width="566"/>
  <unicode hex="0455"/>
  <anchor x="458" y="502" name="Yerok"/>
  <anchor x="267" y="502" name="Diacritic"/>
  <outline>
    <contour>
      <point x="314.417" y="36.8781" type="curve" smooth="yes"/>
      <point x="370.598" y="36.8781"/>
      <point x="415" y="84.4581"/>
      <point x="415" y="139" type="curve" smooth="yes"/>
      <point x="415" y="185"/>
      <point x="371" y="215"/>
      <point x="327" y="222" type="curve" smooth="yes"/>
      <point x="323" y="223"/>
      <point x="322" y="224"/>
      <point x="318" y="222" type="curve" smooth="yes"/>
      <point x="274" y="204"/>
      <point x="230" y="178"/>
      <point x="171" y="164" type="curve" smooth="yes"/>
      <point x="166" y="163"/>
      <point x="162" y="163"/>
      <point x="157" y="164" type="curve" smooth="yes"/>
      <point x="88" y="182"/>
      <point x="49" y="244"/>
      <point x="49" y="303" type="curve" smooth="yes"/>
      <point x="49" y="385"/>
      <point x="123" y="444"/>
      <point x="204" y="444" type="curve" smooth="yes"/>
      <point x="243" y="444"/>
      <point x="271" y="434"/>
      <point x="300" y="419" type="curve" smooth="yes"/>
      <point x="305" y="417"/>
      <point x="309" y="416"/>
      <point x="314" y="418" type="curve" smooth="yes"/>
      <point x="338" y="429"/>
      <point x="364" y="437"/>
      <point x="386" y="444" type="curve" smooth="yes"/>
      <point x="390" y="445"/>
      <point x="397" y="446"/>
      <point x="406" y="441" type="curve" smooth="yes"/>
      <point x="412.268" y="437.418"/>
      <point x="429.761" y="429.026"/>
      <point x="429.761" y="422.284" type="curve" smooth="yes"/>
      <point x="429.761" y="421.497"/>
      <point x="429.523" y="420.732"/>
      <point x="429" y="420" type="curve" smooth="yes"/>
      <point x="405" y="388"/>
      <point x="376" y="364"/>
      <point x="347" y="345" type="curve" smooth="yes"/>
      <point x="343" y="342"/>
      <point x="336" y="343"/>
      <point x="334" y="345" type="curve" smooth="yes"/>
      <point x="298" y="374"/>
      <point x="287" y="401"/>
      <point x="243" y="401" type="curve" smooth="yes"/>
      <point x="201" y="401"/>
      <point x="160" y="356"/>
      <point x="160" y="318" type="curve" smooth="yes"/>
      <point x="160" y="282"/>
      <point x="179" y="257"/>
      <point x="213" y="240" type="curve" smooth="yes"/>
      <point x="217" y="238"/>
      <point x="218" y="240"/>
      <point x="222" y="240" type="curve" smooth="yes"/>
      <point x="278" y="245"/>
      <point x="312" y="280"/>
      <point x="366" y="295" type="curve" smooth="yes"/>
      <point x="372" y="297"/>
      <point x="375" y="296"/>
      <point x="381" y="295" type="curve" smooth="yes"/>
      <point x="461" y="276"/>
      <point x="521" y="216"/>
      <point x="521" y="136" type="curve" smooth="yes"/>
      <point x="521" y="17"/>
      <point x="419" y="-4"/>
      <point x="323" y="-4" type="curve" smooth="yes"/>
      <point x="249.458" y="-4"/>
      <point x="228.565" y="21.054"/>
      <point x="162.626" y="21.054" type="curve" smooth="yes"/>
      <point x="124.454" y="21.054"/>
      <point x="103.517" y="8.38491"/>
      <point x="64" y="-8" type="curve" smooth="yes"/>
      <point x="63.3284" y="-8.25187"/>
      <point x="62.6003" y="-8.36981"/>
      <point x="61.8319" y="-8.36981" type="curve" smooth="yes"/>
      <point x="54.2158" y="-8.36981"/>
      <point x="42.6302" y="3.21579"/>
      <point x="42.6302" y="10.8319" type="curve" smooth="yes"/>
      <point x="42.6302" y="31.3165"/>
      <point x="61.7207" y="49.5344"/>
      <point x="68" y="60" type="curve" smooth="yes"/>
      <point x="70" y="63"/>
      <point x="71" y="64"/>
      <point x="74" y="66" type="curve" smooth="yes"/>
      <point x="94" y="80"/>
      <point x="126" y="97"/>
      <point x="159" y="106" type="curve" smooth="yes"/>
      <point x="162" y="107"/>
      <point x="165" y="106"/>
      <point x="168" y="106" type="curve" smooth="yes"/>
      <point x="189" y="103"/>
      <point x="204" y="97"/>
      <point x="231" y="78" type="curve" smooth="yes"/>
      <point x="258.813" y="58.8188"/>
      <point x="279.267" y="36.8781"/>
    </contour>
  </outline>
</glyph>
<glyph name="uni045B" format="2">
  <advance width="568"/>
  <unicode hex="045B"/>
  <anchor x="299" y="881" name="Diacritic"/>
  <anchor x="375" y="519" name="Yerok"/>
  <outline>
    <contour>
      <point x="327" y="159" type="curve"/>
      <point x="327" y="110"/>
      <point x="326" y="91"/>
      <point x="326" y="51" type="curve" smooth="yes"/>
      <point x="326" y="38"/>
      <point x="325" y="32"/>
      <point x="325" y="18" type="curve" smooth="yes"/>
      <point x="325" y="1.33333"/>
      <point x="315.278" y="-0.0555556"/>
      <point x="308.565" y="-0.0555556" type="curve" smooth="yes"/>
      <point x="307.222" y="-0.0555556"/>
      <point x="306" y="1.94983e-15"/>
      <point x="305" y="0" type="curve" smooth="yes"/>
      <point x="285" y="0"/>
      <point x="255" y="0"/>
      <point x="255" y="0" type="curve" smooth="yes"/>
      <point x="244" y="0"/>
      <point x="231" y="2"/>
      <point x="231" y="13" type="curve" smooth="yes"/>
      <point x="231" y="84"/>
      <point x="231" y="240"/>
      <point x="231" y="397" type="curve"/>
      <point x="142" y="397" type="line" smooth="yes"/>
      <point x="136" y="397"/>
      <point x="130" y="392"/>
      <point x="130" y="386" type="curve" smooth="yes"/>
      <point x="130" y="201" type="line" smooth="yes"/>
      <point x="130" y="195"/>
      <point x="126" y="189"/>
      <point x="120" y="189" type="curve" smooth="yes"/>
      <point x="37" y="189" type="line" smooth="yes"/>
      <point x="32" y="189"/>
      <point x="30" y="194"/>
      <point x="30" y="199" type="curve" smooth="yes"/>
      <point x="30" y="420" type="line" smooth="yes"/>
      <point x="30" y="430"/>
      <point x="35" y="436"/>
      <point x="45" y="436" type="curve" smooth="yes"/>
      <point x="231" y="436" type="line"/>
      <point x="231" y="585"/>
      <point x="246" y="722"/>
      <point x="246" y="766" type="curve" smooth="yes"/>
      <point x="246" y="777"/>
      <point x="260" y="782"/>
      <point x="271" y="786" type="curve" smooth="yes"/>
      <point x="301" y="795"/>
      <point x="315" y="800"/>
      <point x="342" y="800" type="curve" smooth="yes"/>
      <point x="351" y="800"/>
      <point x="361" y="797"/>
      <point x="357" y="781" type="curve" smooth="yes"/>
      <point x="347" y="736"/>
      <point x="330" y="590"/>
      <point x="330" y="436" type="curve"/>
      <point x="515" y="436" type="line" smooth="yes"/>
      <point x="522.967" y="436"/>
      <point x="525.752" y="430.171"/>
      <point x="525.752" y="423.12" type="curve" smooth="yes"/>
      <point x="525.752" y="417.781"/>
      <point x="524.155" y="411.74"/>
      <point x="522" y="407" type="curve" smooth="yes"/>
      <point x="509" y="377"/>
      <point x="499" y="329"/>
      <point x="490" y="303" type="curve" smooth="yes"/>
      <point x="486" y="294"/>
      <point x="481" y="281"/>
      <point x="468" y="281" type="curve" smooth="yes"/>
      <point x="458" y="281"/>
      <point x="451" y="294"/>
      <point x="446" y="305" type="curve" smooth="yes"/>
      <point x="431" y="336"/>
      <point x="417" y="381"/>
      <point x="404" y="397" type="curve"/>
      <point x="329" y="397" type="line"/>
      <point x="329" y="331"/>
      <point x="327" y="260"/>
      <point x="327" y="196" type="curve"/>
      <point x="347" y="202"/>
      <point x="362" y="209"/>
      <point x="388" y="215" type="curve" smooth="yes"/>
      <point x="399" y="219"/>
      <point x="408" y="223"/>
      <point x="417" y="223" type="curve" smooth="yes"/>
      <point x="422" y="223"/>
      <point x="428" y="221"/>
      <point x="432" y="215" type="curve" smooth="yes"/>
      <point x="472" y="155"/>
      <point x="507" y="87"/>
      <point x="536" y="21" type="curve" smooth="yes"/>
      <point x="537.091" y="18.5992"/>
      <point x="537.611" y="16.246"/>
      <point x="537.611" y="14.034" type="curve" smooth="yes"/>
      <point x="537.611" y="6.11121"/>
      <point x="530.944" y="2.66454e-15"/>
      <point x="520" y="0" type="curve" smooth="yes"/>
      <point x="502" y="0"/>
      <point x="486" y="0"/>
      <point x="475" y="0" type="curve" smooth="yes"/>
      <point x="461" y="0"/>
      <point x="450" y="0"/>
      <point x="441" y="5" type="curve" smooth="yes"/>
      <point x="406" y="29"/>
      <point x="412" y="100"/>
    </contour>
  </outline>
</glyph>
<glyph name="uni045D" format="2">
  <advance width="453"/>
  <unicode hex="045D"/>
  <anchor x="228" y="802" name="Yerok"/>
  <anchor x="227" y="802" name="Diacritic"/>
  <outline>
    <contour>
      <point x="250.172" y="534.149" type="curve" smooth="yes"/>
      <point x="250.172" y="519.732"/>
      <point x="240.684" y="507.632"/>
      <point x="224.518" y="507.632" type="curve" smooth="yes"/>
      <point x="213.676" y="507.632"/>
      <point x="202.382" y="512.542"/>
      <point x="197" y="521" type="curve" smooth="yes"/>
      <point x="60" y="735" type="line" smooth="yes"/>
      <point x="56" y="742"/>
      <point x="65" y="752"/>
      <point x="73" y="752" type="curve" smooth="yes"/>
      <point x="130" y="752" type="line" smooth="yes"/>
      <point x="140" y="752"/>
      <point x="148" y="746"/>
      <point x="152" y="738" type="curve" smooth="yes"/>
      <point x="248" y="544" type="line" smooth="yes"/>
      <point x="249.483" y="541.033"/>
      <point x="250.172" y="537.639"/>
    </contour>
    <contour>
      <point x="160.107" y="107.042" type="curve" smooth="yes"/>
      <point x="160.107" y="73.792"/>
      <point x="163.484" y="54.7911"/>
      <point x="163.484" y="26.2695" type="curve" smooth="yes"/>
      <point x="163.484" y="12.9603"/>
      <point x="160.996" y="-1.77636e-15"/>
      <point x="150" y="0" type="curve" smooth="yes"/>
      <point x="75" y="0" type="line" smooth="yes"/>
      <point x="67" y="0"/>
      <point x="60" y="9"/>
      <point x="60" y="16" type="curve" smooth="yes"/>
      <point x="58.9107" y="37.7866"/>
      <point x="58.4384" y="63.9875"/>
      <point x="58.4384" y="92.8241" type="curve" smooth="yes"/>
      <point x="58.4384" y="196.347"/>
      <point x="64.5251" y="333.837"/>
      <point x="70" y="423" type="curve" smooth="yes"/>
      <point x="70" y="429"/>
      <point x="75" y="437"/>
      <point x="82" y="437" type="curve" smooth="yes"/>
      <point x="158" y="437" type="line" smooth="yes"/>
      <point x="166.538" y="437"/>
      <point x="175.076" y="427.1"/>
      <point x="175.076" y="415.838" type="curve" smooth="yes"/>
      <point x="175.076" y="365.188"/>
      <point x="167.023" y="302.469"/>
      <point x="164" y="242" type="curve"/>
      <point x="283" y="298" type="line"/>
      <point x="284" y="344"/>
      <point x="286" y="388"/>
      <point x="288" y="424" type="curve" smooth="yes"/>
      <point x="288" y="430"/>
      <point x="293" y="437"/>
      <point x="300" y="437" type="curve" smooth="yes"/>
      <point x="376" y="437" type="line" smooth="yes"/>
      <point x="384.538" y="437"/>
      <point x="393.076" y="427.1"/>
      <point x="393.076" y="415.838" type="curve" smooth="yes"/>
      <point x="393.076" y="415.229"/>
      <point x="393.051" y="414.616"/>
      <point x="393" y="414" type="curve" smooth="yes"/>
      <point x="389.118" y="359.648"/>
      <point x="387.119" y="291.403"/>
      <point x="387.119" y="226.29" type="curve" smooth="yes"/>
      <point x="387.119" y="157.229"/>
      <point x="389.368" y="91.6922"/>
      <point x="394" y="50" type="curve" smooth="yes"/>
      <point x="394.642" y="42.295"/>
      <point x="397.345" y="34.1778"/>
      <point x="397.345" y="26.1777" type="curve" smooth="yes"/>
      <point x="397.345" y="15.7293"/>
      <point x="389.169" y="0"/>
      <point x="380" y="0" type="curve" smooth="yes"/>
      <point x="301" y="0" type="line" smooth="yes"/>
      <point x="293" y="0"/>
      <point x="286" y="9"/>
      <point x="286" y="16" type="curve" smooth="yes"/>
      <point x="283.75" y="59.5"/>
      <point x="282.625" y="121.562"/>
      <point x="282.625" y="187" type="curve" smooth="yes"/>
      <point x="282.625" y="208.812"/>
      <point x="282.75" y="231"/>
      <point x="283" y="253" type="curve"/>
      <point x="162" y="196" type="line"/>
      <point x="160.903" y="164.182"/>
      <point x="160.107" y="133.869"/>
    </contour>
  </outline>
</glyph>
<glyph name="uni045E" format="2">
  <advance width="484"/>
  <unicode hex="045E"/>
  <anchor x="268" y="774" name="Yerok"/>
  <anchor x="267" y="774" name="Diacritic"/>
  <outline>
    <contour>
      <point x="312.538" y="653.177" type="curve" smooth="yes"/>
      <point x="312.538" y="659.098"/>
      <point x="311.679" y="664.378"/>
      <point x="311.679" y="669.953" type="curve" smooth="yes"/>
      <point x="311.679" y="689.417"/>
      <point x="322.763" y="698.384"/>
      <point x="334.938" y="698.384" type="curve" smooth="yes"/>
      <point x="348.75" y="698.384"/>
      <point x="363.966" y="686.845"/>
      <point x="366" y="666" type="curve" smooth="yes"/>
      <point x="366.991" y="655.295"/>
      <point x="367.491" y="644.837"/>
      <point x="367.491" y="634.681" type="curve" smooth="yes"/>
      <point x="367.491" y="542.983"/>
      <point x="326.733" y="475.991"/>
      <point x="238.765" y="475.991" type="curve" smooth="yes"/>
      <point x="174.83" y="475.991"/>
      <point x="148.355" y="525.279"/>
      <point x="148.355" y="581.264" type="curve" smooth="yes"/>
      <point x="148.355" y="616.904"/>
      <point x="159.181" y="654.987"/>
      <point x="178" y="684" type="curve" smooth="yes"/>
      <point x="184.514" y="694.345"/>
      <point x="195.285" y="699.405"/>
      <point x="205.026" y="699.405" type="curve" smooth="yes"/>
      <point x="216.485" y="699.405"/>
      <point x="226.519" y="692.403"/>
      <point x="226.519" y="678.764" type="curve" smooth="yes"/>
      <point x="226.519" y="673.738"/>
      <point x="225.156" y="667.81"/>
      <point x="222" y="661" type="curve" smooth="yes"/>
      <point x="215.295" y="646.583"/>
      <point x="212.074" y="630.93"/>
      <point x="212.074" y="616.377" type="curve" smooth="yes"/>
      <point x="212.074" y="586.082"/>
      <point x="225.309" y="560.833"/>
      <point x="252.118" y="560.833" type="curve" smooth="yes"/>
      <point x="294.693" y="560.833"/>
      <point x="312.538" y="615.477"/>
    </contour>
    <contour>
      <point x="440.016" y="344.485" type="curve" smooth="yes"/>
      <point x="440.016" y="328.627"/>
      <point x="426.692" y="325"/>
      <point x="414" y="325" type="curve" smooth="yes"/>
      <point x="393.512" y="325"/>
      <point x="388.253" y="344.036"/>
      <point x="371.294" y="344.036" type="curve" smooth="yes"/>
      <point x="346.468" y="344.036"/>
      <point x="322.998" y="320.99"/>
      <point x="319" y="301" type="curve" smooth="yes"/>
      <point x="288" y="146"/>
      <point x="281" y="-116"/>
      <point x="275" y="-300" type="curve" smooth="yes"/>
      <point x="273" y="-348"/>
      <point x="260" y="-389"/>
      <point x="230" y="-415" type="curve" smooth="yes"/>
      <point x="217.765" y="-425.625"/>
      <point x="207.5" y="-429.719"/>
      <point x="199.539" y="-429.719" type="curve" smooth="yes"/>
      <point x="187.17" y="-429.719"/>
      <point x="180.36" y="-419.838"/>
      <point x="180.36" y="-409.21" type="curve" smooth="yes"/>
      <point x="180.36" y="-405.431"/>
      <point x="181.221" y="-401.557"/>
      <point x="183" y="-398" type="curve" smooth="yes"/>
      <point x="203" y="-359"/>
      <point x="210" y="-335"/>
      <point x="213" y="-294" type="curve" smooth="yes"/>
      <point x="217" y="-218"/>
      <point x="222" y="-78"/>
      <point x="225" y="32" type="curve"/>
      <point x="200" y="29"/>
      <point x="172" y="21"/>
      <point x="141" y="10" type="curve" smooth="yes"/>
      <point x="132" y="7"/>
      <point x="124" y="14"/>
      <point x="123" y="25" type="curve" smooth="yes"/>
      <point x="112" y="130"/>
      <point x="86" y="306"/>
      <point x="33" y="419" type="curve" smooth="yes"/>
      <point x="30" y="426"/>
      <point x="37" y="437"/>
      <point x="45" y="437" type="curve" smooth="yes"/>
      <point x="122" y="437" type="line" smooth="yes"/>
      <point x="131" y="437"/>
      <point x="139" y="429"/>
      <point x="142" y="423" type="curve" smooth="yes"/>
      <point x="179" y="343"/>
      <point x="203" y="185"/>
      <point x="214" y="101" type="curve"/>
      <point x="223" y="102"/>
      <point x="231" y="102"/>
      <point x="238" y="103" type="curve"/>
      <point x="246" y="152"/>
      <point x="252" y="232"/>
      <point x="272" y="314" type="curve" smooth="yes"/>
      <point x="290.814" y="391.346"/>
      <point x="352.913" y="444.449"/>
      <point x="427.423" y="444.449" type="curve" smooth="yes"/>
      <point x="447.602" y="444.449"/>
      <point x="464.622" y="439.668"/>
      <point x="464.622" y="423.637" type="curve" smooth="yes"/>
      <point x="464.622" y="403.336"/>
      <point x="439.368" y="390.19"/>
      <point x="439.368" y="361.088" type="curve" smooth="yes"/>
      <point x="439.368" y="354.728"/>
      <point x="440.016" y="348.939"/>
    </contour>
  </outline>
</glyph>
<glyph name="uni045F" format="2">
  <advance width="454"/>
  <unicode hex="045F"/>
  <anchor x="304" y="519" name="Yerok"/>
  <anchor x="234" y="519" name="Diacritic"/>
  <outline>
    <contour>
      <point x="276" y="0" type="line"/>
      <point x="276" y="-14"/>
      <point x="279" y="-26"/>
      <point x="279" y="-41" type="curve" smooth="yes"/>
      <point x="279" y="-112"/>
      <point x="274" y="-193"/>
      <point x="259" y="-244" type="curve" smooth="yes"/>
      <point x="248" y="-284"/>
      <point x="233" y="-302"/>
      <point x="204" y="-311" type="curve" smooth="yes"/>
      <point x="203" y="-311"/>
      <point x="200" y="-311"/>
      <point x="199" y="-311" type="curve" smooth="yes"/>
      <point x="185" y="-311"/>
      <point x="171" y="-300"/>
      <point x="171" y="-284" type="curve" smooth="yes"/>
      <point x="171" y="-279"/>
      <point x="171" y="-274"/>
      <point x="175" y="-268" type="curve" smooth="yes"/>
      <point x="181" y="-253"/>
      <point x="189" y="-245"/>
      <point x="194" y="-219" type="curve" smooth="yes"/>
      <point x="195" y="-206"/>
      <point x="199" y="-193"/>
      <point x="199" y="-180" type="curve" smooth="yes"/>
      <point x="199" y="-176"/>
      <point x="199" y="-175"/>
      <point x="199" y="-171" type="curve" smooth="yes"/>
      <point x="193" y="-105"/>
      <point x="174" y="-4"/>
      <point x="174" y="0" type="curve"/>
      <point x="79" y="0" type="line" smooth="yes"/>
      <point x="70" y="0"/>
      <point x="64" y="10"/>
      <point x="64" y="16" type="curve" smooth="yes"/>
      <point x="64" y="38"/>
      <point x="61" y="64"/>
      <point x="61" y="93" type="curve" smooth="yes"/>
      <point x="61" y="196"/>
      <point x="69" y="334"/>
      <point x="74" y="423" type="curve" smooth="yes"/>
      <point x="74" y="429"/>
      <point x="80" y="436"/>
      <point x="86" y="436" type="curve" smooth="yes"/>
      <point x="160" y="436" type="line" smooth="yes"/>
      <point x="169" y="436"/>
      <point x="177" y="425"/>
      <point x="177" y="414" type="curve" smooth="yes"/>
      <point x="171" y="324"/>
      <point x="161" y="198"/>
      <point x="161" y="109" type="curve" smooth="yes"/>
      <point x="161" y="85"/>
      <point x="164" y="65"/>
      <point x="164" y="49" type="curve" smooth="yes"/>
      <point x="164" y="45"/>
      <point x="164" y="44"/>
      <point x="164" y="40" type="curve"/>
      <point x="285" y="40" type="line"/>
      <point x="285" y="66"/>
      <point x="284" y="94"/>
      <point x="284" y="124" type="curve" smooth="yes"/>
      <point x="284" y="224"/>
      <point x="287" y="344"/>
      <point x="292" y="424" type="curve" smooth="yes"/>
      <point x="292" y="430"/>
      <point x="298" y="436"/>
      <point x="304" y="436" type="curve" smooth="yes"/>
      <point x="379" y="436" type="line" smooth="yes"/>
      <point x="388" y="436"/>
      <point x="395" y="425"/>
      <point x="395" y="414" type="curve" smooth="yes"/>
      <point x="389" y="335"/>
      <point x="386" y="248"/>
      <point x="386" y="154" type="curve" smooth="yes"/>
      <point x="386" y="113"/>
      <point x="389" y="75"/>
      <point x="389" y="31" type="curve" smooth="yes"/>
      <point x="389" y="2"/>
      <point x="362" y="0"/>
      <point x="355" y="0" type="curve" smooth="yes"/>
    </contour>
  </outline>
</glyph>
<glyph name="uni0463" format="2">
  <advance width="597"/>
  <unicode hex="0463"/>
  <anchor x="458" y="502" name="Yerok"/>
  <anchor x="327" y="882" name="Diacritic"/>
  <outline>
    <contour>
      <point x="56" y="437" type="curve" smooth="yes"/>
      <point x="242" y="437" type="line"/>
      <point x="244" y="585"/>
      <point x="253" y="723"/>
      <point x="258" y="767" type="curve" smooth="yes"/>
      <point x="259" y="779"/>
      <point x="271" y="784"/>
      <point x="282" y="787" type="curve" smooth="yes"/>
      <point x="308.091" y="794.827"/>
      <point x="323.592" y="800.385"/>
      <point x="344.95" y="800.385" type="curve" smooth="yes"/>
      <point x="346.311" y="800.385"/>
      <point x="347.665" y="800.394"/>
      <point x="348.998" y="800.394" type="curve" smooth="yes"/>
      <point x="360.214" y="800.394"/>
      <point x="369.961" y="799.78"/>
      <point x="369.961" y="788.22" type="curve" smooth="yes"/>
      <point x="369.961" y="786.175"/>
      <point x="369.656" y="783.787"/>
      <point x="369" y="781" type="curve" smooth="yes"/>
      <point x="359" y="736"/>
      <point x="347" y="590"/>
      <point x="342" y="437" type="curve"/>
      <point x="527" y="437" type="line" smooth="yes"/>
      <point x="535.367" y="437"/>
      <point x="538.376" y="430.571"/>
      <point x="538.376" y="422.836" type="curve" smooth="yes"/>
      <point x="538.376" y="417.628"/>
      <point x="537.012" y="411.829"/>
      <point x="535" y="407" type="curve" smooth="yes"/>
      <point x="522" y="377"/>
      <point x="511" y="329"/>
      <point x="502" y="303" type="curve" smooth="yes"/>
      <point x="499" y="294"/>
      <point x="493" y="282"/>
      <point x="480" y="282" type="curve" smooth="yes"/>
      <point x="470" y="282"/>
      <point x="463" y="294"/>
      <point x="458" y="305" type="curve" smooth="yes"/>
      <point x="443" y="336"/>
      <point x="429" y="380"/>
      <point x="416" y="397" type="curve"/>
      <point x="341" y="397" type="line"/>
      <point x="340" y="331"/>
      <point x="339" y="259"/>
      <point x="339" y="196" type="curve"/>
      <point x="359" y="202"/>
      <point x="375" y="208"/>
      <point x="400" y="215" type="curve" smooth="yes"/>
      <point x="410.937" y="218.038"/>
      <point x="421.136" y="222.922"/>
      <point x="429.699" y="222.922" type="curve" smooth="yes"/>
      <point x="435.229" y="222.922"/>
      <point x="440.076" y="220.886"/>
      <point x="444" y="215" type="curve" smooth="yes"/>
      <point x="484" y="155"/>
      <point x="520" y="87"/>
      <point x="548" y="21" type="curve" smooth="yes"/>
      <point x="549.017" y="18.5586"/>
      <point x="549.496" y="16.2413"/>
      <point x="549.496" y="14.0988" type="curve" smooth="yes"/>
      <point x="549.496" y="5.7104"/>
      <point x="542.152" y="8.88178e-16"/>
      <point x="531" y="0" type="curve" smooth="yes"/>
      <point x="270" y="0" type="line" smooth="yes"/>
      <point x="259" y="0"/>
      <point x="244" y="1"/>
      <point x="244" y="13" type="curve" smooth="yes"/>
      <point x="242.098" y="58.0122"/>
      <point x="241.402" y="137.188"/>
      <point x="241.402" y="229.123" type="curve" smooth="yes"/>
      <point x="241.402" y="282.202"/>
      <point x="241.634" y="339.534"/>
      <point x="242" y="397" type="curve"/>
      <point x="154" y="397" type="line" smooth="yes"/>
      <point x="148" y="397"/>
      <point x="141" y="393"/>
      <point x="141" y="387" type="curve" smooth="yes"/>
      <point x="141" y="202" type="line" smooth="yes"/>
      <point x="141" y="196"/>
      <point x="138" y="188"/>
      <point x="132" y="188" type="curve" smooth="yes"/>
      <point x="49" y="188" type="line" smooth="yes"/>
      <point x="44" y="188"/>
      <point x="41" y="194"/>
      <point x="41" y="199" type="curve" smooth="yes"/>
      <point x="41" y="416" type="line" smooth="yes"/>
      <point x="41" y="426"/>
      <point x="46" y="437"/>
    </contour>
    <contour>
      <point x="425" y="50" type="curve" smooth="yes"/>
      <point x="413" y="87"/>
      <point x="390" y="126"/>
      <point x="338" y="158" type="curve"/>
      <point x="338" y="40" type="line"/>
      <point x="423" y="40" type="line" smooth="yes"/>
      <point x="427" y="40"/>
      <point x="426" y="46"/>
    </contour>
  </outline>
</glyph>
<glyph name="uni0465" format="2">
  <advance width="482"/>
  <unicode hex="0465"/>
  <anchor x="398" y="502" name="Yerok"/>
  <anchor x="247" y="502" name="Diacritic"/>
  <outline>
    <contour>
      <point x="169.345" y="26.1777" type="curve" smooth="yes"/>
      <point x="169.345" y="15.7293"/>
      <point x="161.169" y="0"/>
      <point x="152" y="0" type="curve" smooth="yes"/>
      <point x="74" y="0" type="line" smooth="yes"/>
      <point x="66" y="0"/>
      <point x="59" y="9"/>
      <point x="59" y="16" type="curve" smooth="yes"/>
      <point x="57.8032" y="39.937"/>
      <point x="57.2939" y="69.2599"/>
      <point x="57.2939" y="101.582" type="curve" smooth="yes"/>
      <point x="57.2939" y="204.292"/>
      <point x="62.4362" y="337.288"/>
      <point x="67" y="424" type="curve" smooth="yes"/>
      <point x="67" y="430"/>
      <point x="72" y="437"/>
      <point x="79" y="437" type="curve" smooth="yes"/>
      <point x="154" y="437" type="line" smooth="yes"/>
      <point x="162.538" y="437"/>
      <point x="171.076" y="427.1"/>
      <point x="171.076" y="415.838" type="curve" smooth="yes"/>
      <point x="171.076" y="369.066"/>
      <point x="165.012" y="312.691"/>
      <point x="164" y="256" type="curve"/>
      <point x="238.538" y="256" type="line"/>
      <point x="238.359" y="260.242"/>
      <point x="238.179" y="264.573"/>
      <point x="238" y="269" type="curve" smooth="yes"/>
      <point x="238" y="272"/>
      <point x="238" y="274"/>
      <point x="238" y="277" type="curve" smooth="yes"/>
      <point x="238" y="382"/>
      <point x="317" y="433"/>
      <point x="417" y="441" type="curve" smooth="yes"/>
      <point x="428" y="442"/>
      <point x="429" y="437"/>
      <point x="430" y="429" type="curve" smooth="yes"/>
      <point x="431" y="419"/>
      <point x="432" y="406"/>
      <point x="432" y="392" type="curve" smooth="yes"/>
      <point x="432" y="382"/>
      <point x="432" y="372"/>
      <point x="430" y="363" type="curve" smooth="yes"/>
      <point x="429" y="355"/>
      <point x="428" y="353"/>
      <point x="418" y="352" type="curve" smooth="yes"/>
      <point x="366.652" y="345.088"/>
      <point x="327.981" y="315.75"/>
      <point x="327.981" y="278.428" type="curve" smooth="yes"/>
      <point x="327.981" y="277.953"/>
      <point x="327.987" y="277.477"/>
      <point x="328" y="277" type="curve" smooth="yes"/>
      <point x="328" y="258" type="line"/>
      <point x="354" y="266"/>
      <point x="380" y="280"/>
      <point x="408" y="282" type="curve" smooth="yes"/>
      <point x="425" y="283"/>
      <point x="424" y="275"/>
      <point x="425" y="267" type="curve" smooth="yes"/>
      <point x="426" y="261"/>
      <point x="426" y="251"/>
      <point x="426" y="241" type="curve" smooth="yes"/>
      <point x="426" y="226"/>
      <point x="426" y="211"/>
      <point x="425" y="202" type="curve" smooth="yes"/>
      <point x="424" y="190"/>
      <point x="424" y="187"/>
      <point x="412" y="184" type="curve" smooth="yes"/>
      <point x="385" y="178"/>
      <point x="351" y="166"/>
      <point x="329" y="152" type="curve"/>
      <point x="330" y="126"/>
      <point x="331" y="104"/>
      <point x="332" y="95" type="curve"/>
      <point x="354" y="100"/>
      <point x="378" y="114"/>
      <point x="400" y="121" type="curve" smooth="yes"/>
      <point x="403" y="122"/>
      <point x="405" y="122"/>
      <point x="407" y="122" type="curve" smooth="yes"/>
      <point x="415" y="122"/>
      <point x="416" y="115"/>
      <point x="416" y="104" type="curve" smooth="yes"/>
      <point x="416" y="101"/>
      <point x="416" y="98"/>
      <point x="416" y="94" type="curve" smooth="yes"/>
      <point x="416" y="58"/>
      <point x="383" y="-2"/>
      <point x="263" y="-2" type="curve" smooth="yes"/>
      <point x="250" y="-2"/>
      <point x="242" y="1"/>
      <point x="242" y="13" type="curve" smooth="yes"/>
      <point x="243" y="42"/>
      <point x="244" y="67"/>
      <point x="244" y="91" type="curve" smooth="yes"/>
      <point x="244" y="132.231"/>
      <point x="242.43" y="168.23"/>
      <point x="240.426" y="213" type="curve"/>
      <point x="163" y="213" type="line"/>
      <point x="163" y="149"/>
      <point x="163" y="88"/>
      <point x="166" y="50" type="curve" smooth="yes"/>
      <point x="166.642" y="42.295"/>
      <point x="169.345" y="34.1778"/>
    </contour>
  </outline>
</glyph>
<glyph name="uni0467" format="2">
  <advance width="665"/>
  <unicode hex="0467"/>
  <anchor x="487.168" y="502" name="Yerok"/>
  <anchor x="326.168" y="502" name="Diacritic"/>
  <outline>
    <contour>
      <point x="614" y="25" type="curve" smooth="yes"/>
      <point x="612" y="13"/>
      <point x="607" y="0"/>
      <point x="595" y="0" type="curve" smooth="yes"/>
      <point x="508" y="0" type="line" smooth="yes"/>
      <point x="490" y="0"/>
      <point x="487" y="10"/>
      <point x="486" y="22" type="curve" smooth="yes"/>
      <point x="485" y="33"/>
      <point x="489" y="41"/>
      <point x="498" y="47" type="curve"/>
      <point x="497" y="56"/>
      <point x="493" y="64"/>
      <point x="487" y="74" type="curve" smooth="yes"/>
      <point x="476" y="91"/>
      <point x="449" y="120"/>
      <point x="419" y="154" type="curve"/>
      <point x="404" y="154"/>
      <point x="390" y="152"/>
      <point x="390" y="152" type="curve" smooth="yes"/>
      <point x="382" y="152"/>
      <point x="378" y="143"/>
      <point x="378" y="135" type="curve" smooth="yes"/>
      <point x="378" y="19" type="line" smooth="yes"/>
      <point x="378" y="10"/>
      <point x="372" y="0"/>
      <point x="363" y="0" type="curve" smooth="yes"/>
      <point x="285" y="0" type="line" smooth="yes"/>
      <point x="275" y="0"/>
      <point x="269" y="10"/>
      <point x="269" y="21" type="curve" smooth="yes"/>
      <point x="269" y="142" type="line" smooth="yes"/>
      <point x="269" y="150"/>
      <point x="265" y="158"/>
      <point x="257" y="158" type="curve" smooth="yes"/>
      <point x="257" y="158"/>
      <point x="246" y="160"/>
      <point x="234" y="160" type="curve"/>
      <point x="223" y="148"/>
      <point x="210" y="136"/>
      <point x="196" y="122" type="curve" smooth="yes"/>
      <point x="167" y="94"/>
      <point x="138" y="65"/>
      <point x="133" y="38" type="curve"/>
      <point x="141" y="35"/>
      <point x="145" y="28"/>
      <point x="145" y="19" type="curve" smooth="yes"/>
      <point x="145" y="10"/>
      <point x="140" y="0"/>
      <point x="131" y="0" type="curve" smooth="yes"/>
      <point x="57" y="-1" type="line" smooth="yes"/>
      <point x="46.6837" y="-1"/>
      <point x="42.9895" y="9.406"/>
      <point x="42.9895" y="20.1335" type="curve" smooth="yes"/>
      <point x="42.9895" y="25.004"/>
      <point x="43.751" y="29.9408"/>
      <point x="45" y="34" type="curve" smooth="yes"/>
      <point x="64" y="87"/>
      <point x="99" y="125"/>
      <point x="147" y="166" type="curve" smooth="yes"/>
      <point x="190" y="203"/>
      <point x="225" y="227"/>
      <point x="256" y="279" type="curve" smooth="yes"/>
      <point x="267" y="298"/>
      <point x="271" y="317"/>
      <point x="272" y="339" type="curve"/>
      <point x="262" y="355"/>
      <point x="253" y="372"/>
      <point x="245" y="390" type="curve" smooth="yes"/>
      <point x="241" y="399"/>
      <point x="237" y="406"/>
      <point x="237" y="417" type="curve" smooth="yes"/>
      <point x="237" y="426"/>
      <point x="242" y="437"/>
      <point x="251" y="437" type="curve" smooth="yes"/>
      <point x="399" y="437" type="line" smooth="yes"/>
      <point x="409" y="437"/>
      <point x="414" y="424"/>
      <point x="414" y="414" type="curve" smooth="yes"/>
      <point x="414" y="405"/>
      <point x="409" y="396"/>
      <point x="401" y="393" type="curve"/>
      <point x="401" y="393"/>
      <point x="400.75" y="387.75"/>
      <point x="400.75" y="381" type="curve" smooth="yes"/>
      <point x="400.75" y="374.25"/>
      <point x="401" y="366"/>
      <point x="402" y="360" type="curve" smooth="yes"/>
      <point x="411" y="309"/>
      <point x="429" y="280"/>
      <point x="461" y="240" type="curve" smooth="yes"/>
      <point x="512" y="177"/>
      <point x="556" y="152"/>
      <point x="594" y="81" type="curve" smooth="yes"/>
      <point x="600" y="70"/>
      <point x="605" y="63"/>
      <point x="609" y="51" type="curve" smooth="yes"/>
      <point x="612" y="41"/>
      <point x="616" y="35"/>
    </contour>
    <contour>
      <point x="380" y="198" type="curve"/>
      <point x="358" y="224"/>
      <point x="333" y="253"/>
      <point x="309" y="286" type="curve"/>
      <point x="307" y="277"/>
      <point x="304" y="268"/>
      <point x="300" y="260" type="curve" smooth="yes"/>
      <point x="288" y="235"/>
      <point x="277" y="216"/>
      <point x="265" y="199" type="curve"/>
      <point x="287.734" y="194.867"/>
      <point x="306.731" y="192.869"/>
      <point x="325.438" y="192.869" type="curve" smooth="yes"/>
      <point x="342.938" y="192.869"/>
      <point x="360.184" y="194.617"/>
    </contour>
  </outline>
</glyph>
<glyph name="uni0468" format="2">
  <advance width="1142"/>
  <unicode hex="0468"/>
  <anchor x="978" y="754" name="Yerok"/>
  <anchor x="698" y="754" name="Diacritic"/>
  <outline>
    <contour>
      <point x="360" y="114" type="curve" smooth="yes"/>
      <point x="360" y="228.036"/>
      <point x="415.665" y="310.302"/>
      <point x="491.264" y="390" type="curve"/>
      <point x="189" y="390" type="line"/>
      <point x="189" y="40" type="line"/>
      <point x="243" y="40" type="line"/>
      <point x="243" y="0" type="line"/>
      <point x="17" y="0" type="line"/>
      <point x="17" y="40" type="line"/>
      <point x="71" y="40" type="line"/>
      <point x="71" y="636" type="line"/>
      <point x="17" y="636" type="line"/>
      <point x="17" y="676" type="line"/>
      <point x="243" y="676" type="line"/>
      <point x="243" y="636" type="line"/>
      <point x="189" y="636" type="line"/>
      <point x="189" y="430" type="line"/>
      <point x="530.462" y="430" type="line"/>
      <point x="580.258" y="480.565"/>
      <point x="622.09" y="526.996"/>
      <point x="622.09" y="618.207" type="curve" smooth="yes"/>
      <point x="622.09" y="624.069"/>
      <point x="621.764" y="629.889"/>
      <point x="621" y="636" type="curve"/>
      <point x="560" y="636" type="line"/>
      <point x="560" y="676" type="line"/>
      <point x="847" y="676" type="line"/>
      <point x="847" y="636" type="line"/>
      <point x="793" y="636" type="line"/>
      <point x="795" y="621"/>
      <point x="799" y="610"/>
      <point x="808" y="597" type="curve" smooth="yes"/>
      <point x="842" y="550"/>
      <point x="886" y="506"/>
      <point x="934" y="446" type="curve" smooth="yes"/>
      <point x="1010" y="351"/>
      <point x="1081" y="253"/>
      <point x="1081" y="127" type="curve" smooth="yes"/>
      <point x="1081" y="93"/>
      <point x="1075" y="62"/>
      <point x="1071" y="40" type="curve"/>
      <point x="1125" y="40" type="line"/>
      <point x="1125" y="0" type="line"/>
      <point x="893" y="0" type="line"/>
      <point x="893" y="40" type="line"/>
      <point x="947" y="40" type="line"/>
      <point x="950.571" y="53.5713"/>
      <point x="951.082" y="66.1221"/>
      <point x="951.082" y="80.5684" type="curve" smooth="yes"/>
      <point x="951.082" y="86.3467"/>
      <point x="951" y="92.4287"/>
      <point x="951" y="99" type="curve" smooth="yes"/>
      <point x="951" y="220"/>
      <point x="908" y="299"/>
      <point x="840" y="390" type="curve"/>
      <point x="774" y="390" type="line"/>
      <point x="774" y="40" type="line"/>
      <point x="828" y="40" type="line"/>
      <point x="828" y="0" type="line"/>
      <point x="602" y="0" type="line"/>
      <point x="602" y="40" type="line"/>
      <point x="656" y="40" type="line"/>
      <point x="656" y="390" type="line"/>
      <point x="585" y="390" type="line"/>
      <point x="571" y="372"/>
      <point x="557" y="353"/>
      <point x="542" y="334" type="curve" smooth="yes"/>
      <point x="489" y="264"/>
      <point x="464" y="206"/>
      <point x="464" y="119" type="curve" smooth="yes"/>
      <point x="464" y="88"/>
      <point x="473" y="54"/>
      <point x="481" y="40" type="curve"/>
      <point x="535" y="40" type="line"/>
      <point x="535" y="0" type="line"/>
      <point x="310" y="0" type="line"/>
      <point x="310" y="40" type="line"/>
      <point x="364" y="40" type="line"/>
      <point x="363" y="50"/>
      <point x="360" y="82"/>
    </contour>
    <contour>
      <point x="702" y="566" type="curve" smooth="yes"/>
      <point x="695" y="575"/>
      <point x="688" y="584"/>
      <point x="683" y="593" type="curve"/>
      <point x="672" y="525"/>
      <point x="647" y="476"/>
      <point x="615" y="430" type="curve"/>
      <point x="809" y="430" type="line"/>
      <point x="766" y="486"/>
      <point x="740" y="517"/>
    </contour>
  </outline>
</glyph>
<glyph name="uni0469" format="2">
  <advance width="825"/>
  <unicode hex="0469"/>
  <anchor x="661" y="502" name="Yerok"/>
  <anchor x="500" y="502" name="Diacritic"/>
  <outline>
    <contour>
      <point x="685.084" y="0" type="line" smooth="yes"/>
      <point x="655.078" y="0"/>
      <point x="658.827" y="36.1621"/>
      <point x="675.084" y="47" type="curve"/>
      <point x="674.084" y="56"/>
      <point x="670.084" y="64"/>
      <point x="664.084" y="74" type="curve" smooth="yes"/>
      <point x="653.084" y="91"/>
      <point x="626.084" y="120"/>
      <point x="596.084" y="154" type="curve"/>
      <point x="581.084" y="154"/>
      <point x="567.084" y="152"/>
      <point x="567.084" y="152" type="curve" smooth="yes"/>
      <point x="559.084" y="152"/>
      <point x="555.084" y="143"/>
      <point x="555.084" y="135" type="curve" smooth="yes"/>
      <point x="555.084" y="19" type="line" smooth="yes"/>
      <point x="555.084" y="10"/>
      <point x="549.084" y="0"/>
      <point x="540.084" y="0" type="curve" smooth="yes"/>
      <point x="462.084" y="0" type="line" smooth="yes"/>
      <point x="452.084" y="0"/>
      <point x="446.084" y="10"/>
      <point x="446.084" y="21" type="curve" smooth="yes"/>
      <point x="446.084" y="142" type="line" smooth="yes"/>
      <point x="446.084" y="150"/>
      <point x="442.084" y="158"/>
      <point x="434.084" y="158" type="curve" smooth="yes"/>
      <point x="434.084" y="158"/>
      <point x="423.084" y="160"/>
      <point x="411.084" y="160" type="curve"/>
      <point x="381.507" y="127.733"/>
      <point x="317.44" y="77.7236"/>
      <point x="310.084" y="38" type="curve"/>
      <point x="318.084" y="35"/>
      <point x="322.084" y="28"/>
      <point x="322.084" y="19" type="curve" smooth="yes"/>
      <point x="322.084" y="10"/>
      <point x="317.084" y="0"/>
      <point x="308.084" y="0" type="curve" smooth="yes"/>
      <point x="234.084" y="-1" type="line" smooth="yes"/>
      <point x="223.768" y="-1"/>
      <point x="220.073" y="9.40625"/>
      <point x="220.073" y="20.1338" type="curve" smooth="yes"/>
      <point x="220.073" y="25.0039"/>
      <point x="220.835" y="29.9404"/>
      <point x="222.084" y="34" type="curve" smooth="yes"/>
      <point x="241.084" y="87"/>
      <point x="276.084" y="125"/>
      <point x="324.084" y="166" type="curve" smooth="yes"/>
      <point x="344.012" y="183.021"/>
      <point x="362.107" y="197.413"/>
      <point x="378.953" y="213" type="curve"/>
      <point x="139.084" y="213" type="line"/>
      <point x="139.084" y="149"/>
      <point x="139.084" y="88"/>
      <point x="142.084" y="50" type="curve" smooth="yes"/>
      <point x="142.726" y="42.2949"/>
      <point x="145.43" y="34.1777"/>
      <point x="145.43" y="26.1777" type="curve" smooth="yes"/>
      <point x="145.43" y="15.7295"/>
      <point x="137.253" y="0"/>
      <point x="128.084" y="0" type="curve" smooth="yes"/>
      <point x="50.084" y="0" type="line" smooth="yes"/>
      <point x="42.084" y="0"/>
      <point x="35.084" y="9"/>
      <point x="35.084" y="16" type="curve" smooth="yes"/>
      <point x="33.8867" y="39.9365"/>
      <point x="33.3779" y="69.2598"/>
      <point x="33.3779" y="101.582" type="curve" smooth="yes"/>
      <point x="33.3779" y="204.292"/>
      <point x="38.5205" y="337.288"/>
      <point x="43.084" y="424" type="curve" smooth="yes"/>
      <point x="43.084" y="430"/>
      <point x="48.084" y="437"/>
      <point x="55.084" y="437" type="curve" smooth="yes"/>
      <point x="130.084" y="437" type="line" smooth="yes"/>
      <point x="138.622" y="437"/>
      <point x="147.16" y="427.1"/>
      <point x="147.16" y="415.838" type="curve" smooth="yes"/>
      <point x="147.16" y="369.066"/>
      <point x="141.097" y="312.691"/>
      <point x="140.084" y="256" type="curve"/>
      <point x="415.084" y="256" type="line"/>
      <point x="435.674" y="273.648"/>
      <point x="447.609" y="306.562"/>
      <point x="449.084" y="339" type="curve"/>
      <point x="439.084" y="355"/>
      <point x="430.084" y="372"/>
      <point x="422.084" y="390" type="curve" smooth="yes"/>
      <point x="418.084" y="399"/>
      <point x="414.084" y="406"/>
      <point x="414.084" y="417" type="curve" smooth="yes"/>
      <point x="414.084" y="426"/>
      <point x="419.084" y="437"/>
      <point x="428.084" y="437" type="curve" smooth="yes"/>
      <point x="576.084" y="437" type="line" smooth="yes"/>
      <point x="586.084" y="437"/>
      <point x="591.084" y="424"/>
      <point x="591.084" y="414" type="curve" smooth="yes"/>
      <point x="591.084" y="405"/>
      <point x="586.084" y="396"/>
      <point x="578.084" y="393" type="curve"/>
      <point x="578.084" y="393"/>
      <point x="577.834" y="387.75"/>
      <point x="577.834" y="381" type="curve" smooth="yes"/>
      <point x="577.834" y="374.25"/>
      <point x="578.084" y="366"/>
      <point x="579.084" y="360" type="curve" smooth="yes"/>
      <point x="588.084" y="309"/>
      <point x="606.084" y="280"/>
      <point x="638.084" y="240" type="curve" smooth="yes"/>
      <point x="689.084" y="177"/>
      <point x="733.084" y="152"/>
      <point x="771.084" y="81" type="curve" smooth="yes"/>
      <point x="777.084" y="70"/>
      <point x="782.084" y="63"/>
      <point x="786.084" y="51" type="curve" smooth="yes"/>
      <point x="789.084" y="41"/>
      <point x="793.084" y="35"/>
      <point x="791.084" y="25" type="curve" smooth="yes"/>
      <point x="789.084" y="13"/>
      <point x="784.084" y="0"/>
      <point x="772.084" y="0" type="curve" smooth="yes"/>
    </contour>
    <contour>
      <point x="483.084" y="286" type="curve"/>
      <point x="475.721" y="252.863"/>
      <point x="453.706" y="219.715"/>
      <point x="439.084" y="199" type="curve"/>
      <point x="461.818" y="194.866"/>
      <point x="480.814" y="192.869"/>
      <point x="499.522" y="192.869" type="curve" smooth="yes"/>
      <point x="517.021" y="192.869"/>
      <point x="534.269" y="194.617"/>
      <point x="554.084" y="198" type="curve"/>
      <point x="532.084" y="224"/>
      <point x="507.084" y="253"/>
    </contour>
  </outline>
</glyph>
<glyph name="uni046A" format="2">
  <advance width="928"/>
  <unicode hex="046A"/>
  <anchor x="460" y="754" name="Diacritic"/>
  <anchor x="730" y="754" name="Yerok"/>
  <outline>
    <contour>
      <point x="906" y="0" type="line"/>
      <point x="647.001" y="-0.000976562" type="line"/>
      <point x="647.001" y="22.999" type="line" smooth="yes"/>
      <point x="649.201" y="22.9326"/>
      <point x="651.321" y="22.8994"/>
      <point x="653.361" y="22.8994" type="curve" smooth="yes"/>
      <point x="671.722" y="22.8994"/>
      <point x="683.602" y="25.5996"/>
      <point x="689.002" y="31" type="curve" smooth="yes"/>
      <point x="694.335" y="36.333"/>
      <point x="697.002" y="49.333"/>
      <point x="697.002" y="70" type="curve" smooth="yes"/>
      <point x="697.002" y="164"/>
      <point x="688.002" y="233.667"/>
      <point x="670.002" y="279" type="curve" smooth="yes"/>
      <point x="644.669" y="343"/>
      <point x="598.002" y="386"/>
      <point x="530.002" y="408" type="curve"/>
      <point x="530.002" y="73" type="line" smooth="yes"/>
      <point x="530.002" y="45"/>
      <point x="532.335" y="29.667"/>
      <point x="537.002" y="27" type="curve" smooth="yes"/>
      <point x="541.669" y="24.333"/>
      <point x="558.002" y="23"/>
      <point x="586.002" y="23" type="curve"/>
      <point x="586.002" y="4.038e-06" type="line"/>
      <point x="342.002" y="4.038e-06" type="line"/>
      <point x="342.002" y="23" type="line"/>
      <point x="384.002" y="24" type="line" smooth="yes"/>
      <point x="392.002" y="25.333"/>
      <point x="396.002" y="43"/>
      <point x="396.002" y="77" type="curve" smooth="yes"/>
      <point x="396.002" y="409" type="line"/>
      <point x="342.669" y="399"/>
      <point x="301.669" y="365.333"/>
      <point x="273.002" y="308" type="curve" smooth="yes"/>
      <point x="245.669" y="254"/>
      <point x="231.002" y="179.333"/>
      <point x="229.002" y="84" type="curve" smooth="yes"/>
      <point x="228.928" y="80.7402"/>
      <point x="228.891" y="77.625"/>
      <point x="228.891" y="74.6533" type="curve" smooth="yes"/>
      <point x="228.891" y="50.8838"/>
      <point x="231.261" y="36.332"/>
      <point x="236.001" y="30.999" type="curve" smooth="yes"/>
      <point x="240.668" y="25.666"/>
      <point x="255.668" y="22.999"/>
      <point x="281.001" y="22.999" type="curve"/>
      <point x="281.001" y="-0.000975962" type="line"/>
      <point x="22.001" y="-0.000975962" type="line"/>
      <point x="22.001" y="22.999" type="line"/>
      <point x="42.668" y="22.999"/>
      <point x="56.001" y="24.999"/>
      <point x="62.001" y="28.999" type="curve" smooth="yes"/>
      <point x="68.001" y="32.999"/>
      <point x="71.668" y="43.999"/>
      <point x="73.001" y="61.999" type="curve" smooth="yes"/>
      <point x="77.001" y="107.332"/>
      <point x="86.001" y="150.999"/>
      <point x="100.001" y="192.999" type="curve" smooth="yes"/>
      <point x="114.001" y="234.999"/>
      <point x="136.001" y="273.999"/>
      <point x="166.001" y="309.999" type="curve" smooth="yes"/>
      <point x="223.334" y="378.666"/>
      <point x="302.667" y="422.999"/>
      <point x="404" y="442.999" type="curve"/>
      <point x="254" y="623.999" type="line"/>
      <point x="245" y="632.999" type="line" smooth="yes"/>
      <point x="233" y="648.999"/>
      <point x="227" y="658.999"/>
      <point x="227" y="662.999" type="curve" smooth="yes"/>
      <point x="227.667" y="671.666"/>
      <point x="236.667" y="676.666"/>
      <point x="254" y="677.999" type="curve" smooth="yes"/>
      <point x="297" y="677.999" type="line"/>
      <point x="609" y="677.999" type="line" smooth="yes"/>
      <point x="644.333" y="677.999"/>
      <point x="665.333" y="677.332"/>
      <point x="672" y="675.999" type="curve" smooth="yes"/>
      <point x="678.667" y="674.666"/>
      <point x="682" y="670.333"/>
      <point x="682" y="663" type="curve" smooth="yes"/>
      <point x="682" y="657"/>
      <point x="674.333" y="644.333"/>
      <point x="659" y="625" type="curve" smooth="yes"/>
      <point x="507" y="446" type="line"/>
      <point x="608.333" y="426"/>
      <point x="688" y="384.667"/>
      <point x="746" y="322" type="curve" smooth="yes"/>
      <point x="808" y="254.667"/>
      <point x="842.667" y="170"/>
      <point x="850" y="68" type="curve" smooth="yes"/>
      <point x="851.333" y="50"/>
      <point x="856" y="37.667"/>
      <point x="864" y="31" type="curve" smooth="yes"/>
      <point x="870.667" y="25.667"/>
      <point x="884.667" y="23"/>
      <point x="906" y="23" type="curve"/>
      <point x="906" y="2.4038e-05" type="line"/>
    </contour>
    <contour>
      <point x="608.001" y="633.999" type="curve" smooth="yes"/>
      <point x="608.001" y="643.332"/>
      <point x="590.334" y="647.998"/>
      <point x="555.001" y="647.998" type="curve" smooth="yes"/>
      <point x="377.001" y="647.998" type="line" smooth="yes"/>
      <point x="336.334" y="647.998"/>
      <point x="316.001" y="643.331"/>
      <point x="316.001" y="633.998" type="curve" smooth="yes"/>
      <point x="316.001" y="629.998"/>
      <point x="319.334" y="623.331"/>
      <point x="326.001" y="613.998" type="curve" smooth="yes"/>
      <point x="352.668" y="575.998"/>
      <point x="397.668" y="521.331"/>
      <point x="461.001" y="449.998" type="curve"/>
      <point x="588.001" y="601.998" type="line" smooth="yes"/>
      <point x="601.334" y="612.665"/>
      <point x="608.001" y="623.332"/>
    </contour>
  </outline>
</glyph>
<glyph name="uni046C" format="2">
  <advance width="1215"/>
  <unicode hex="046C"/>
  <anchor x="745" y="754" name="Diacritic"/>
  <anchor x="1015" y="754" name="Yerok"/>
  <outline>
    <contour>
      <point x="515.891" y="74.6533" type="curve" smooth="yes"/>
      <point x="515.891" y="25.5586"/>
      <point x="517.806" y="22.999"/>
      <point x="568.001" y="22.999" type="curve"/>
      <point x="568.001" y="-0.000976562" type="line"/>
      <point x="309.001" y="-0.000976562" type="line"/>
      <point x="309.001" y="22.999" type="line"/>
      <point x="349.737" y="22.999"/>
      <point x="357.242" y="24.748"/>
      <point x="360.001" y="61.999" type="curve" smooth="yes"/>
      <point x="374.933" y="231.218"/>
      <point x="453.351" y="348.25"/>
      <point x="581.412" y="408" type="curve"/>
      <point x="194" y="408" type="line"/>
      <point x="194" y="26" type="line"/>
      <point x="248" y="24" type="line"/>
      <point x="248" y="0" type="line"/>
      <point x="22" y="0" type="line"/>
      <point x="22" y="24" type="line"/>
      <point x="76" y="24" type="line"/>
      <point x="76" y="646" type="line"/>
      <point x="22" y="646" type="line"/>
      <point x="22" y="678" type="line"/>
      <point x="248" y="678" type="line"/>
      <point x="248" y="646" type="line"/>
      <point x="194" y="646" type="line"/>
      <point x="194" y="443" type="line"/>
      <point x="691" y="442.999" type="line"/>
      <point x="541" y="623.999" type="line"/>
      <point x="532" y="632.999" type="line"/>
      <point x="520" y="648.999"/>
      <point x="514" y="658.999"/>
      <point x="514" y="662.999" type="curve" smooth="yes"/>
      <point x="514.667" y="671.666"/>
      <point x="523.667" y="676.666"/>
      <point x="541" y="677.999" type="curve"/>
      <point x="659.333" y="677.999"/>
      <point x="777.667" y="677.999"/>
      <point x="896" y="677.999" type="curve" smooth="yes"/>
      <point x="931.333" y="677.999"/>
      <point x="952.333" y="677.332"/>
      <point x="959" y="675.999" type="curve" smooth="yes"/>
      <point x="965.667" y="674.666"/>
      <point x="969" y="670.333"/>
      <point x="969" y="663" type="curve" smooth="yes"/>
      <point x="969" y="657"/>
      <point x="961.333" y="644.333"/>
      <point x="946" y="625" type="curve" smooth="yes"/>
      <point x="794" y="446" type="line"/>
      <point x="989.901" y="407.335"/>
      <point x="1121.9" y="277.975"/>
      <point x="1137" y="68" type="curve" smooth="yes"/>
      <point x="1139.75" y="30.8203"/>
      <point x="1150.76" y="23"/>
      <point x="1193" y="23" type="curve"/>
      <point x="1193" y="0" type="line"/>
      <point x="934.001" y="-0.000976562" type="line"/>
      <point x="934.001" y="22.999" type="line"/>
      <point x="936.201" y="22.9326"/>
      <point x="938.321" y="22.8994"/>
      <point x="940.361" y="22.8994" type="curve" smooth="yes"/>
      <point x="978.963" y="22.8994"/>
      <point x="984.002" y="29.9395"/>
      <point x="984.002" y="70" type="curve" smooth="yes"/>
      <point x="984.002" y="164"/>
      <point x="975.002" y="233.667"/>
      <point x="957.002" y="279" type="curve" smooth="yes"/>
      <point x="931.669" y="343"/>
      <point x="885.002" y="386"/>
      <point x="817.002" y="408" type="curve"/>
      <point x="817.002" y="73" type="line" smooth="yes"/>
      <point x="817.002" y="45"/>
      <point x="819.335" y="29.667"/>
      <point x="824.002" y="27" type="curve" smooth="yes"/>
      <point x="828.669" y="24.333"/>
      <point x="845.002" y="23"/>
      <point x="873.002" y="23" type="curve"/>
      <point x="873.002" y="0" type="line"/>
      <point x="629.002" y="0" type="line"/>
      <point x="629.002" y="23" type="line"/>
      <point x="671.002" y="24" type="line"/>
      <point x="679.002" y="25.333"/>
      <point x="683.002" y="43"/>
      <point x="683.002" y="77" type="curve" smooth="yes"/>
      <point x="683.002" y="409" type="line"/>
      <point x="629.669" y="399"/>
      <point x="588.669" y="365.333"/>
      <point x="560.002" y="308" type="curve" smooth="yes"/>
      <point x="532.177" y="253.027"/>
      <point x="515.891" y="172.649"/>
    </contour>
    <contour>
      <point x="893.001" y="633.999" type="curve" smooth="yes"/>
      <point x="893.001" y="643.332"/>
      <point x="875.334" y="647.998"/>
      <point x="840.001" y="647.998" type="curve" smooth="yes"/>
      <point x="662.001" y="647.998" type="line" smooth="yes"/>
      <point x="621.334" y="647.998"/>
      <point x="601.001" y="643.331"/>
      <point x="601.001" y="633.998" type="curve" smooth="yes"/>
      <point x="601.001" y="629.998"/>
      <point x="604.334" y="623.331"/>
      <point x="611.001" y="613.998" type="curve" smooth="yes"/>
      <point x="637.668" y="575.998"/>
      <point x="682.668" y="521.331"/>
      <point x="746.001" y="449.998" type="curve"/>
      <point x="873.001" y="601.998" type="line"/>
      <point x="886.334" y="612.665"/>
      <point x="893.001" y="623.332"/>
    </contour>
  </outline>
</glyph>
<glyph name="uni046D" format="2">
  <advance width="890"/>
  <unicode hex="046D"/>
  <anchor x="542.02" y="502" name="Diacritic"/>
  <anchor x="745.02" y="502" name="Yerok"/>
  <outline>
    <contour>
      <point x="328.517" y="213" type="curve"/>
      <point x="125.094" y="213" type="line"/>
      <point x="125.094" y="149"/>
      <point x="125.094" y="88"/>
      <point x="128.094" y="50" type="curve" smooth="yes"/>
      <point x="128.735" y="42.2949"/>
      <point x="131.439" y="34.1777"/>
      <point x="131.439" y="26.1777" type="curve" smooth="yes"/>
      <point x="131.439" y="15.7295"/>
      <point x="123.263" y="0"/>
      <point x="114.094" y="0" type="curve" smooth="yes"/>
      <point x="36.0938" y="0" type="line" smooth="yes"/>
      <point x="28.0938" y="0"/>
      <point x="21.0938" y="9"/>
      <point x="21.0938" y="16" type="curve" smooth="yes"/>
      <point x="19.8965" y="39.9365"/>
      <point x="19.3877" y="69.2598"/>
      <point x="19.3877" y="101.582" type="curve" smooth="yes"/>
      <point x="19.3877" y="204.292"/>
      <point x="24.5303" y="337.288"/>
      <point x="29.0938" y="424" type="curve" smooth="yes"/>
      <point x="29.0938" y="430"/>
      <point x="34.0938" y="437"/>
      <point x="41.0938" y="437" type="curve" smooth="yes"/>
      <point x="116.094" y="437" type="line" smooth="yes"/>
      <point x="124.632" y="437"/>
      <point x="133.17" y="427.1"/>
      <point x="133.17" y="415.838" type="curve" smooth="yes"/>
      <point x="133.17" y="369.066"/>
      <point x="127.106" y="312.691"/>
      <point x="126.094" y="256" type="curve"/>
      <point x="393.094" y="256" type="line"/>
      <point x="422.848" y="271.366"/>
      <point x="455.577" y="283.638"/>
      <point x="491.531" y="292.813" type="curve"/>
      <point x="382.183" y="403.38" type="line" smooth="yes"/>
      <point x="370.032" y="415.53"/>
      <point x="363.957" y="424.035"/>
      <point x="363.957" y="428.896" type="curve" smooth="yes"/>
      <point x="363.957" y="435.375"/>
      <point x="374.082" y="438.614"/>
      <point x="394.332" y="438.614" type="curve" smooth="yes"/>
      <point x="637.332" y="438.614" type="line" smooth="yes"/>
      <point x="663.253" y="438.614"/>
      <point x="676.213" y="435.779"/>
      <point x="676.213" y="430.11" type="curve" smooth="yes"/>
      <point x="676.213" y="425.25"/>
      <point x="670.543" y="417.15"/>
      <point x="659.202" y="405.812" type="curve" smooth="yes"/>
      <point x="564.434" y="303.75" type="line"/>
      <point x="671.261" y="286.308"/>
      <point x="735.012" y="247.196"/>
      <point x="790.424" y="173.744" type="curve" smooth="yes"/>
      <point x="830.113" y="121.094"/>
      <point x="856.843" y="63.1787"/>
      <point x="870.612" y="-0.000976562" type="curve"/>
      <point x="747.899" y="0.00195312" type="line"/>
      <point x="737.369" y="68.043"/>
      <point x="717.523" y="120.49"/>
      <point x="688.362" y="157.345" type="curve" smooth="yes"/>
      <point x="659.203" y="194.199"/>
      <point x="623.563" y="217.486"/>
      <point x="581.443" y="227.206" type="curve"/>
      <point x="581.443" y="129.195"/>
      <point x="583.873" y="53.46"/>
      <point x="588.733" y="0" type="curve"/>
      <point x="476.953" y="0" type="line"/>
      <point x="479.384" y="16.2002"/>
      <point x="480.599" y="44.5498"/>
      <point x="480.599" y="85.0498" type="curve" smooth="yes"/>
      <point x="480.599" y="240.57" type="line"/>
      <point x="372.868" y="210.6"/>
      <point x="314.952" y="130.409"/>
      <point x="306.854" y="0.000976562" type="curve"/>
      <point x="206.008" y="0.000976562" type="line"/>
      <point x="226.32" y="90.6982"/>
      <point x="267.156" y="161.698"/>
    </contour>
    <contour>
      <point x="617.679" y="407.027" type="curve" smooth="yes"/>
      <point x="617.679" y="412.697"/>
      <point x="609.172" y="415.531"/>
      <point x="592.162" y="415.531" type="curve" smooth="yes"/>
      <point x="458.513" y="415.531" type="line" smooth="yes"/>
      <point x="442.312" y="415.531"/>
      <point x="434.213" y="412.292"/>
      <point x="434.213" y="405.812" type="curve" smooth="yes"/>
      <point x="434.213" y="402.572"/>
      <point x="437.453" y="398.117"/>
      <point x="443.934" y="392.447" type="curve" smooth="yes"/>
      <point x="531.413" y="304.967" type="line"/>
      <point x="605.529" y="387.587" type="line" smooth="yes"/>
      <point x="613.629" y="396.497"/>
      <point x="617.679" y="402.978"/>
    </contour>
  </outline>
</glyph>
<glyph name="uni046F" format="2">
  <advance width="547"/>
  <unicode hex="046F"/>
  <anchor x="277" y="725" name="Yerok"/>
  <anchor x="277" y="723" name="Diacritic"/>
  <outline>
    <contour>
      <point x="214" y="611" type="curve" smooth="yes"/>
      <point x="284" y="509" type="line"/>
      <point x="296" y="542"/>
      <point x="309" y="573"/>
      <point x="325" y="607" type="curve" smooth="yes"/>
      <point x="337" y="633"/>
      <point x="368" y="651"/>
      <point x="397" y="651" type="curve" smooth="yes"/>
      <point x="423" y="651"/>
      <point x="450" y="639"/>
      <point x="451" y="617" type="curve" smooth="yes"/>
      <point x="451.063" y="615.861"/>
      <point x="451.094" y="614.735"/>
      <point x="451.094" y="613.622" type="curve" smooth="yes"/>
      <point x="451.094" y="597.135"/>
      <point x="444.241" y="583.557"/>
      <point x="433" y="577" type="curve" smooth="yes"/>
      <point x="387" y="552"/>
      <point x="347" y="511"/>
      <point x="318" y="460" type="curve"/>
      <point x="323" y="453" type="line"/>
      <point x="403" y="443"/>
      <point x="485" y="395"/>
      <point x="485" y="317" type="curve" smooth="yes"/>
      <point x="485" y="258"/>
      <point x="448" y="218"/>
      <point x="410" y="191" type="curve"/>
      <point x="463" y="163"/>
      <point x="499" y="115"/>
      <point x="499" y="46" type="curve" smooth="yes"/>
      <point x="499" y="-42"/>
      <point x="437" y="-94"/>
      <point x="348" y="-94" type="curve" smooth="yes"/>
      <point x="289.647" y="-94"/>
      <point x="249.01" y="-86.9135"/>
      <point x="196.91" y="-86.9135" type="curve" smooth="yes"/>
      <point x="193.654" y="-86.9135"/>
      <point x="190.353" y="-86.9412"/>
      <point x="187" y="-87" type="curve" smooth="yes"/>
      <point x="145" y="-88"/>
      <point x="101" y="-130"/>
      <point x="101" y="-180" type="curve" smooth="yes"/>
      <point x="101" y="-202"/>
      <point x="133" y="-222"/>
      <point x="155" y="-222" type="curve" smooth="yes"/>
      <point x="233" y="-221"/>
      <point x="285" y="-178"/>
      <point x="366" y="-178" type="curve" smooth="yes"/>
      <point x="430" y="-178"/>
      <point x="489" y="-200"/>
      <point x="502" y="-262" type="curve" smooth="yes"/>
      <point x="502.548" y="-264.742"/>
      <point x="502.815" y="-267.54"/>
      <point x="502.815" y="-270.33" type="curve" smooth="yes"/>
      <point x="502.815" y="-287.893"/>
      <point x="492.258" y="-305.137"/>
      <point x="475" y="-306" type="curve" smooth="yes"/>
      <point x="474.616" y="-306.017"/>
      <point x="474.238" y="-306.026"/>
      <point x="473.866" y="-306.026" type="curve" smooth="yes"/>
      <point x="452.892" y="-306.026"/>
      <point x="449.738" y="-278.686"/>
      <point x="435" y="-261" type="curve" smooth="yes"/>
      <point x="417" y="-239"/>
      <point x="394" y="-234"/>
      <point x="367" y="-234" type="curve" smooth="yes"/>
      <point x="275" y="-234"/>
      <point x="229" y="-287"/>
      <point x="141" y="-287" type="curve" smooth="yes"/>
      <point x="77" y="-287"/>
      <point x="16" y="-265"/>
      <point x="16" y="-198" type="curve" smooth="yes"/>
      <point x="16" y="-117"/>
      <point x="84" y="-59"/>
      <point x="178" y="-40" type="curve" smooth="yes"/>
      <point x="183.101" y="-38.9261"/>
      <point x="195.698" y="-38.573"/>
      <point x="211.844" y="-38.573" type="curve" smooth="yes"/>
      <point x="242.856" y="-38.573"/>
      <point x="286.961" y="-39.8758"/>
      <point x="316.182" y="-39.8758" type="curve" smooth="yes"/>
      <point x="328.412" y="-39.8758"/>
      <point x="338.036" y="-39.6475"/>
      <point x="343" y="-39" type="curve" smooth="yes"/>
      <point x="383.899" y="-34.1311"/>
      <point x="402.039" y="6.77076"/>
      <point x="402.039" y="47.6943" type="curve" smooth="yes"/>
      <point x="402.039" y="48.7964"/>
      <point x="402.026" y="49.8985"/>
      <point x="402" y="51" type="curve" smooth="yes"/>
      <point x="401" y="107"/>
      <point x="368" y="166"/>
      <point x="312" y="167" type="curve" smooth="yes"/>
      <point x="311.085" y="167.014"/>
      <point x="310.173" y="167.021"/>
      <point x="309.263" y="167.021" type="curve" smooth="yes"/>
      <point x="244.567" y="167.021"/>
      <point x="193.958" y="131.891"/>
      <point x="191" y="53" type="curve" smooth="yes"/>
      <point x="191" y="44"/>
      <point x="186" y="35"/>
      <point x="177" y="35" type="curve" smooth="yes"/>
      <point x="79" y="35" type="line" smooth="yes"/>
      <point x="71" y="35"/>
      <point x="67" y="46"/>
      <point x="69" y="53" type="curve" smooth="yes"/>
      <point x="94" y="155"/>
      <point x="182" y="219"/>
      <point x="285" y="219" type="curve" smooth="yes"/>
      <point x="308" y="219"/>
      <point x="331" y="216"/>
      <point x="353" y="211" type="curve"/>
      <point x="384" y="235"/>
      <point x="392" y="266"/>
      <point x="392" y="310" type="curve" smooth="yes"/>
      <point x="392" y="366"/>
      <point x="346" y="411"/>
      <point x="289" y="411" type="curve" smooth="yes"/>
      <point x="211.049" y="411"/>
      <point x="173.923" y="329.348"/>
      <point x="173.923" y="277.06" type="curve" smooth="yes"/>
      <point x="173.923" y="275.685"/>
      <point x="173.949" y="274.332"/>
      <point x="174" y="273" type="curve" smooth="yes"/>
      <point x="174" y="265"/>
      <point x="169" y="255"/>
      <point x="160" y="255" type="curve" smooth="yes"/>
      <point x="76" y="255" type="line" smooth="yes"/>
      <point x="68" y="255"/>
      <point x="65" y="265"/>
      <point x="65" y="273" type="curve" smooth="yes"/>
      <point x="70" y="371"/>
      <point x="129" y="432"/>
      <point x="227" y="449" type="curve"/>
      <point x="116" y="611" type="line" smooth="yes"/>
      <point x="113" y="615"/>
      <point x="114" y="628"/>
      <point x="125" y="628" type="curve" smooth="yes"/>
      <point x="190" y="628" type="line" smooth="yes"/>
      <point x="203" y="628"/>
      <point x="210" y="617"/>
    </contour>
  </outline>
</glyph>
<glyph name="uni0470" format="2">
  <advance width="850"/>
  <unicode hex="0470"/>
  <anchor x="690" y="754" name="Yerok"/>
  <anchor x="640" y="754" name="Diacritic"/>
  <outline>
    <contour>
      <point x="474" y="-100" type="line"/>
      <point x="491" y="-132"/>
      <point x="518" y="-156"/>
      <point x="537" y="-170" type="curve" smooth="yes"/>
      <point x="542" y="-174"/>
      <point x="542" y="-184"/>
      <point x="537" y="-186" type="curve" smooth="yes"/>
      <point x="502" y="-205"/>
      <point x="466" y="-227"/>
      <point x="435" y="-253" type="curve" smooth="yes"/>
      <point x="430" y="-257"/>
      <point x="424" y="-257"/>
      <point x="419" y="-253" type="curve" smooth="yes"/>
      <point x="388" y="-227"/>
      <point x="352" y="-205"/>
      <point x="317" y="-186" type="curve" smooth="yes"/>
      <point x="312" y="-184"/>
      <point x="312" y="-174"/>
      <point x="317" y="-170" type="curve" smooth="yes"/>
      <point x="336" y="-156"/>
      <point x="363" y="-132"/>
      <point x="380" y="-100" type="curve"/>
      <point x="380" y="0" type="line"/>
      <point x="205" y="0" type="line"/>
      <point x="206.022" y="23.4954"/>
      <point x="206.927" y="53.136"/>
      <point x="206.927" y="86.7109" type="curve" smooth="yes"/>
      <point x="206.927" y="151.737"/>
      <point x="203.53" y="231.521"/>
      <point x="191" y="310" type="curve" smooth="yes"/>
      <point x="166" y="466"/>
      <point x="92" y="602"/>
      <point x="17" y="680" type="curve"/>
      <point x="137" y="680" type="line"/>
      <point x="210" y="601"/>
      <point x="258" y="477"/>
      <point x="285" y="336" type="curve" smooth="yes"/>
      <point x="297.333" y="270.636"/>
      <point x="300.92" y="195.767"/>
      <point x="300.92" y="134.135" type="curve" smooth="yes"/>
      <point x="300.92" y="95.8184"/>
      <point x="299.533" y="62.6184"/>
      <point x="298" y="40" type="curve"/>
      <point x="380" y="40" type="line"/>
      <point x="379" y="782" type="line" smooth="yes"/>
      <point x="378" y="929"/>
      <point x="376" y="1012"/>
      <point x="356" y="1049" type="curve" smooth="yes"/>
      <point x="352.652" y="1055.7"/>
      <point x="343.925" y="1069.11"/>
      <point x="343.925" y="1078.45" type="curve" smooth="yes"/>
      <point x="343.925" y="1083.06"/>
      <point x="346.052" y="1086.68"/>
      <point x="352" y="1088" type="curve" smooth="yes"/>
      <point x="510" y="1126" type="line" smooth="yes"/>
      <point x="511.224" y="1126.27"/>
      <point x="512.347" y="1126.4"/>
      <point x="513.374" y="1126.4" type="curve" smooth="yes"/>
      <point x="520.186" y="1126.4"/>
      <point x="522.765" y="1120.73"/>
      <point x="522.765" y="1113.72" type="curve" smooth="yes"/>
      <point x="522.765" y="1106.27"/>
      <point x="519.844" y="1097.29"/>
      <point x="516" y="1092" type="curve" smooth="yes"/>
      <point x="485" y="1048"/>
      <point x="493" y="925"/>
      <point x="490" y="781" type="curve" smooth="yes"/>
      <point x="476" y="40" type="line"/>
      <point x="548" y="40" type="line"/>
      <point x="546.608" y="60.8846"/>
      <point x="545.862" y="92.5387"/>
      <point x="545.862" y="128.865" type="curve" smooth="yes"/>
      <point x="545.862" y="170.81"/>
      <point x="546.856" y="218.985"/>
      <point x="549" y="264" type="curve" smooth="yes"/>
      <point x="553" y="364"/>
      <point x="577" y="466"/>
      <point x="615" y="539" type="curve" smooth="yes"/>
      <point x="650" y="607"/>
      <point x="713" y="659"/>
      <point x="769" y="676" type="curve" smooth="yes"/>
      <point x="809" y="688"/>
      <point x="871" y="693"/>
      <point x="918" y="705" type="curve" smooth="yes"/>
      <point x="925" y="707"/>
      <point x="935" y="698"/>
      <point x="930" y="692" type="curve" smooth="yes"/>
      <point x="908" y="665"/>
      <point x="878" y="594"/>
      <point x="869" y="545" type="curve" smooth="yes"/>
      <point x="868" y="537"/>
      <point x="854" y="535"/>
      <point x="849" y="540" type="curve" smooth="yes"/>
      <point x="829.46" y="559.54"/>
      <point x="799.42" y="580.034"/>
      <point x="765.409" y="580.034" type="curve" smooth="yes"/>
      <point x="764.608" y="580.034"/>
      <point x="763.805" y="580.023"/>
      <point x="763" y="580" type="curve" smooth="yes"/>
      <point x="726" y="579"/>
      <point x="681" y="550"/>
      <point x="658" y="506" type="curve" smooth="yes"/>
      <point x="623" y="439"/>
      <point x="596" y="356"/>
      <point x="592" y="262" type="curve" smooth="yes"/>
      <point x="590.33" y="223.18"/>
      <point x="589.532" y="183.836"/>
      <point x="589.532" y="148.407" type="curve" smooth="yes"/>
      <point x="589.532" y="98.9606"/>
      <point x="591.087" y="57.1379"/>
      <point x="594" y="35" type="curve" smooth="yes"/>
      <point x="596" y="21"/>
      <point x="597" y="11"/>
      <point x="600" y="0" type="curve"/>
      <point x="476" y="0" type="line"/>
    </contour>
  </outline>
</glyph>
<glyph name="uni0473" format="2">
  <advance width="714"/>
  <unicode hex="0473"/>
  <anchor x="548" y="502" name="Yerok"/>
  <anchor x="345" y="502" name="Diacritic"/>
  <outline>
    <contour>
      <point x="54" y="-19" type="line" smooth="yes"/>
      <point x="54" y="-3"/>
      <point x="47" y="-8"/>
      <point x="37" y="10" type="curve" smooth="yes"/>
      <point x="34.4345" y="14.398"/>
      <point x="33.0779" y="19.602"/>
      <point x="33.0779" y="24.4304" type="curve" smooth="yes"/>
      <point x="33.0779" y="32.7762"/>
      <point x="37.131" y="40"/>
      <point x="46" y="40" type="curve" smooth="yes"/>
      <point x="250" y="40" type="line"/>
      <point x="244" y="71"/>
      <point x="241" y="102"/>
      <point x="241" y="132" type="curve" smooth="yes"/>
      <point x="241" y="225"/>
      <point x="298" y="392"/>
      <point x="337" y="436" type="curve" smooth="yes"/>
      <point x="342" y="442"/>
      <point x="352" y="442"/>
      <point x="357" y="436" type="curve" smooth="yes"/>
      <point x="397" y="390"/>
      <point x="454" y="220"/>
      <point x="454" y="126" type="curve" smooth="yes"/>
      <point x="454" y="99"/>
      <point x="451" y="69"/>
      <point x="445" y="40" type="curve"/>
      <point x="677" y="40" type="line" smooth="yes"/>
      <point x="685.829" y="40"/>
      <point x="691.875" y="29.6587"/>
      <point x="691.875" y="19.2607" type="curve" smooth="yes"/>
      <point x="691.875" y="13.1714"/>
      <point x="689.801" y="7.06265"/>
      <point x="685" y="3" type="curve" smooth="yes"/>
      <point x="660" y="-18"/>
      <point x="609" y="-98"/>
      <point x="598" y="-121" type="curve" smooth="yes"/>
      <point x="594" y="-128"/>
      <point x="587" y="-141"/>
      <point x="576" y="-141" type="curve" smooth="yes"/>
      <point x="566" y="-141"/>
      <point x="559" y="-141"/>
      <point x="557" y="-130" type="curve" smooth="yes"/>
      <point x="552.5" y="-107.5"/>
      <point x="550.25" y="-57.4375"/>
      <point x="550.25" y="-24.9531" type="curve" smooth="yes"/>
      <point x="550.25" y="-14.125"/>
      <point x="550.5" y="-5.25"/>
      <point x="551" y="0" type="curve"/>
      <point x="436" y="0" type="line"/>
      <point x="420" y="-60"/>
      <point x="393" y="-115"/>
      <point x="358" y="-147" type="curve" smooth="yes"/>
      <point x="351" y="-153"/>
      <point x="342" y="-152"/>
      <point x="336" y="-147" type="curve" smooth="yes"/>
      <point x="302" y="-116"/>
      <point x="275" y="-61"/>
      <point x="259" y="0" type="curve"/>
      <point x="164" y="0" type="line" smooth="yes"/>
      <point x="159" y="0"/>
      <point x="155" y="-5"/>
      <point x="155" y="-10" type="curve" smooth="yes"/>
      <point x="155" y="-142" type="line" smooth="yes"/>
      <point x="155" y="-150"/>
      <point x="151" y="-158"/>
      <point x="143" y="-158" type="curve" smooth="yes"/>
      <point x="68" y="-158" type="line" smooth="yes"/>
      <point x="60" y="-158"/>
      <point x="54" y="-150"/>
      <point x="54" y="-142" type="curve" smooth="yes"/>
    </contour>
    <contour>
      <point x="345" y="252" type="curve"/>
      <point x="316" y="219"/>
      <point x="302" y="165"/>
      <point x="302" y="120" type="curve" smooth="yes"/>
      <point x="302" y="93"/>
      <point x="304" y="64"/>
      <point x="316" y="40" type="curve"/>
      <point x="378" y="40" type="line"/>
      <point x="389" y="64"/>
      <point x="393" y="93"/>
      <point x="393" y="119" type="curve" smooth="yes"/>
      <point x="393" y="164"/>
      <point x="372" y="228"/>
    </contour>
  </outline>
</glyph>
<glyph name="uni0474" format="2">
  <advance width="616"/>
  <unicode hex="0474"/>
  <anchor x="490" y="754" name="Yerok"/>
  <anchor x="310" y="754" name="Diacritic"/>
  <outline>
    <contour>
      <point x="420" y="0" type="line"/>
      <point x="88" y="0" type="line"/>
      <point x="88" y="40" type="line"/>
      <point x="146" y="40" type="line"/>
      <point x="81" y="636" type="line"/>
      <point x="27" y="636" type="line"/>
      <point x="27" y="676" type="line"/>
      <point x="198" y="676" type="line"/>
      <point x="261" y="40" type="line"/>
      <point x="329" y="40" type="line"/>
      <point x="364" y="457" type="line" smooth="yes"/>
      <point x="369" y="520"/>
      <point x="395" y="578"/>
      <point x="418" y="605" type="curve" smooth="yes"/>
      <point x="431" y="621"/>
      <point x="461" y="652"/>
      <point x="496" y="659" type="curve" smooth="yes"/>
      <point x="538" y="667"/>
      <point x="566" y="677"/>
      <point x="593" y="682" type="curve" smooth="yes"/>
      <point x="600" y="683"/>
      <point x="606" y="676"/>
      <point x="604" y="669" type="curve" smooth="yes"/>
      <point x="596.985" y="640.939"/>
      <point x="593.814" y="599.807"/>
      <point x="593.814" y="555.716" type="curve" smooth="yes"/>
      <point x="593.814" y="549.526"/>
      <point x="593.877" y="543.278"/>
      <point x="594" y="537" type="curve" smooth="yes"/>
      <point x="594" y="530"/>
      <point x="586" y="522"/>
      <point x="580" y="525" type="curve" smooth="yes"/>
      <point x="538" y="546"/>
      <point x="523" y="554"/>
      <point x="483" y="554" type="curve" smooth="yes"/>
      <point x="434" y="554"/>
      <point x="409" y="516"/>
      <point x="404" y="454" type="curve" smooth="yes"/>
      <point x="369" y="40" type="line"/>
      <point x="420" y="40" type="line"/>
    </contour>
  </outline>
</glyph>
<glyph name="uni0475" format="2">
  <advance width="537"/>
  <unicode hex="0475"/>
  <anchor x="268" y="502" name="Yerok"/>
  <anchor x="267" y="502" name="Diacritic"/>
  <outline>
    <contour>
      <point x="175" y="13" type="curve" smooth="yes"/>
      <point x="175.608" y="24.5449"/>
      <point x="176.584" y="39.0434"/>
      <point x="176.584" y="54.4766" type="curve" smooth="yes"/>
      <point x="176.584" y="64.4426"/>
      <point x="176.177" y="74.7983"/>
      <point x="175" y="85" type="curve" smooth="yes"/>
      <point x="163" y="190"/>
      <point x="105" y="300"/>
      <point x="36" y="393" type="curve" smooth="yes"/>
      <point x="29" y="402"/>
      <point x="27" y="410"/>
      <point x="27" y="420" type="curve" smooth="yes"/>
      <point x="27" y="428"/>
      <point x="33" y="437"/>
      <point x="41" y="437" type="curve" smooth="yes"/>
      <point x="136" y="437" type="line" smooth="yes"/>
      <point x="148" y="437"/>
      <point x="151" y="428"/>
      <point x="154" y="423" type="curve" smooth="yes"/>
      <point x="205" y="321"/>
      <point x="252" y="180"/>
      <point x="258" y="108" type="curve" smooth="yes"/>
      <point x="258" y="104"/>
      <point x="273" y="104"/>
      <point x="273" y="108" type="curve" smooth="yes"/>
      <point x="279" y="206"/>
      <point x="351" y="442"/>
      <point x="472" y="442" type="curve" smooth="yes"/>
      <point x="485" y="442"/>
      <point x="496" y="442"/>
      <point x="506" y="436" type="curve" smooth="yes"/>
      <point x="511" y="433"/>
      <point x="513" y="428"/>
      <point x="512" y="424" type="curve" smooth="yes"/>
      <point x="503" y="389"/>
      <point x="493" y="345"/>
      <point x="490" y="316" type="curve" smooth="yes"/>
      <point x="490" y="312"/>
      <point x="481" y="308"/>
      <point x="477" y="310" type="curve" smooth="yes"/>
      <point x="461.949" y="317.968"/>
      <point x="450.817" y="327.504"/>
      <point x="434.583" y="327.504" type="curve" smooth="yes"/>
      <point x="432.481" y="327.504"/>
      <point x="430.293" y="327.344"/>
      <point x="428" y="327" type="curve" smooth="yes"/>
      <point x="410" y="324"/>
      <point x="391" y="317"/>
      <point x="380" y="300" type="curve" smooth="yes"/>
      <point x="332" y="229"/>
      <point x="317" y="144"/>
      <point x="313" y="80" type="curve" smooth="yes"/>
      <point x="312.667" y="71.6667"/>
      <point x="312.556" y="62.7778"/>
      <point x="312.556" y="54.1852" type="curve" smooth="yes"/>
      <point x="312.556" y="37"/>
      <point x="313" y="21"/>
      <point x="313" y="13" type="curve" smooth="yes"/>
      <point x="313" y="7"/>
      <point x="309" y="0"/>
      <point x="303" y="0" type="curve" smooth="yes"/>
      <point x="185" y="0" type="line" smooth="yes"/>
      <point x="179" y="0"/>
      <point x="175" y="8"/>
    </contour>
  </outline>
</glyph>
<glyph name="uni0478" format="2">
  <advance width="1042"/>
  <unicode hex="0478"/>
  <anchor x="928" y="502" name="Yerok"/>
  <anchor x="817" y="502" name="Diacritic"/>
  <outline>
    <contour>
      <point x="365" y="682" type="curve"/>
      <point x="370" y="652"/>
      <point x="381" y="616"/>
      <point x="402" y="592" type="curve" smooth="yes"/>
      <point x="449" y="537"/>
      <point x="538" y="451"/>
      <point x="538" y="318" type="curve" smooth="yes"/>
      <point x="538" y="121"/>
      <point x="338" y="-5"/>
      <point x="218" y="-5" type="curve"/>
      <point x="212" y="20"/>
      <point x="199" y="46"/>
      <point x="177" y="71" type="curve" smooth="yes"/>
      <point x="95" y="164"/>
      <point x="37" y="241"/>
      <point x="37" y="358" type="curve" smooth="yes"/>
      <point x="37" y="520"/>
      <point x="212" y="682"/>
    </contour>
    <contour>
      <point x="249" y="41" type="curve"/>
      <point x="373.791" y="41.9904"/>
      <point x="425.014" y="182.269"/>
      <point x="425.014" y="309.312" type="curve" smooth="yes"/>
      <point x="425.014" y="310.542"/>
      <point x="425.01" y="311.772"/>
      <point x="425" y="313" type="curve" smooth="yes"/>
      <point x="424" y="420"/>
      <point x="389" y="487"/>
      <point x="351" y="563" type="curve" smooth="yes"/>
      <point x="338" y="589"/>
      <point x="331" y="607"/>
      <point x="326" y="636" type="curve"/>
      <point x="216" y="636"/>
      <point x="158" y="515"/>
      <point x="158" y="370" type="curve" smooth="yes"/>
      <point x="158" y="277"/>
      <point x="186" y="232"/>
      <point x="223" y="138" type="curve" smooth="yes"/>
      <point x="237" y="102"/>
      <point x="245" y="73"/>
    </contour>
    <contour>
      <point x="685" y="437" type="line" smooth="yes"/>
      <point x="694" y="437"/>
      <point x="702" y="429"/>
      <point x="705" y="423" type="curve" smooth="yes"/>
      <point x="742" y="343"/>
      <point x="766" y="185"/>
      <point x="777" y="101" type="curve"/>
      <point x="786" y="102"/>
      <point x="794" y="102"/>
      <point x="801" y="103" type="curve"/>
      <point x="809" y="152"/>
      <point x="815" y="232"/>
      <point x="835" y="314" type="curve" smooth="yes"/>
      <point x="853" y="388"/>
      <point x="913" y="440"/>
      <point x="979" y="444" type="curve" smooth="yes"/>
      <point x="982.857" y="444.286"/>
      <point x="986.694" y="444.449"/>
      <point x="990.423" y="444.449" type="curve" smooth="yes"/>
      <point x="1010.6" y="444.449"/>
      <point x="1027.62" y="439.668"/>
      <point x="1027.62" y="423.637" type="curve" smooth="yes"/>
      <point x="1027.62" y="421.894"/>
      <point x="1027.42" y="420.018"/>
      <point x="1027" y="418" type="curve" smooth="yes"/>
      <point x="1025" y="407"/>
      <point x="1009" y="393"/>
      <point x="1004" y="376" type="curve" smooth="yes"/>
      <point x="1002.73" y="370.923"/>
      <point x="1002.37" y="365.846"/>
      <point x="1002.37" y="361.088" type="curve" smooth="yes"/>
      <point x="1002.37" y="354.728"/>
      <point x="1003.02" y="348.939"/>
      <point x="1003.02" y="344.485" type="curve" smooth="yes"/>
      <point x="1003.02" y="341.77"/>
      <point x="1002.78" y="339.551"/>
      <point x="1002" y="338" type="curve" smooth="yes"/>
      <point x="996" y="327"/>
      <point x="990" y="325"/>
      <point x="977" y="325" type="curve" smooth="yes"/>
      <point x="956.512" y="325"/>
      <point x="951.253" y="344.036"/>
      <point x="934.294" y="344.036" type="curve" smooth="yes"/>
      <point x="933.87" y="344.036"/>
      <point x="933.439" y="344.024"/>
      <point x="933" y="344" type="curve" smooth="yes"/>
      <point x="909" y="343"/>
      <point x="886" y="321"/>
      <point x="882" y="301" type="curve" smooth="yes"/>
      <point x="851" y="146"/>
      <point x="844" y="-116"/>
      <point x="838" y="-300" type="curve" smooth="yes"/>
      <point x="836" y="-348"/>
      <point x="823" y="-389"/>
      <point x="793" y="-415" type="curve" smooth="yes"/>
      <point x="780.765" y="-425.625"/>
      <point x="770.5" y="-429.719"/>
      <point x="762.539" y="-429.719" type="curve" smooth="yes"/>
      <point x="750.17" y="-429.719"/>
      <point x="743.36" y="-419.838"/>
      <point x="743.36" y="-409.21" type="curve" smooth="yes"/>
      <point x="743.36" y="-405.431"/>
      <point x="744.221" y="-401.557"/>
      <point x="746" y="-398" type="curve" smooth="yes"/>
      <point x="766" y="-359"/>
      <point x="773" y="-335"/>
      <point x="776" y="-294" type="curve" smooth="yes"/>
      <point x="780" y="-218"/>
      <point x="785" y="-78"/>
      <point x="788" y="32" type="curve"/>
      <point x="763" y="29"/>
      <point x="735" y="21"/>
      <point x="704" y="10" type="curve" smooth="yes"/>
      <point x="695" y="7"/>
      <point x="687" y="14"/>
      <point x="686" y="25" type="curve" smooth="yes"/>
      <point x="675" y="130"/>
      <point x="649" y="306"/>
      <point x="596" y="419" type="curve" smooth="yes"/>
      <point x="593" y="426"/>
      <point x="600" y="437"/>
      <point x="608" y="437" type="curve" smooth="yes"/>
    </contour>
  </outline>
</glyph>
<glyph name="uni0479" format="2">
  <advance width="738"/>
  <unicode hex="0479"/>
  <anchor x="628" y="502" name="Yerok"/>
  <anchor x="497" y="502" name="Diacritic"/>
  <outline>
    <contour>
      <point x="381" y="437" type="line" smooth="yes"/>
      <point x="390" y="437"/>
      <point x="398" y="429"/>
      <point x="401" y="423" type="curve" smooth="yes"/>
      <point x="438" y="343"/>
      <point x="462" y="185"/>
      <point x="473" y="101" type="curve"/>
      <point x="482" y="102"/>
      <point x="490" y="102"/>
      <point x="497" y="103" type="curve"/>
      <point x="505" y="152"/>
      <point x="511" y="232"/>
      <point x="531" y="314" type="curve" smooth="yes"/>
      <point x="549" y="388"/>
      <point x="609" y="440"/>
      <point x="675" y="444" type="curve" smooth="yes"/>
      <point x="678.857" y="444.286"/>
      <point x="682.694" y="444.449"/>
      <point x="686.423" y="444.449" type="curve" smooth="yes"/>
      <point x="706.602" y="444.449"/>
      <point x="723.622" y="439.668"/>
      <point x="723.622" y="423.637" type="curve" smooth="yes"/>
      <point x="723.622" y="421.894"/>
      <point x="723.42" y="420.018"/>
      <point x="723" y="418" type="curve" smooth="yes"/>
      <point x="721" y="407"/>
      <point x="705" y="393"/>
      <point x="700" y="376" type="curve" smooth="yes"/>
      <point x="698.731" y="370.923"/>
      <point x="698.368" y="365.846"/>
      <point x="698.368" y="361.088" type="curve" smooth="yes"/>
      <point x="698.368" y="354.728"/>
      <point x="699.016" y="348.939"/>
      <point x="699.016" y="344.485" type="curve" smooth="yes"/>
      <point x="699.016" y="341.77"/>
      <point x="698.775" y="339.551"/>
      <point x="698" y="338" type="curve" smooth="yes"/>
      <point x="692" y="327"/>
      <point x="686" y="325"/>
      <point x="673" y="325" type="curve" smooth="yes"/>
      <point x="652.512" y="325"/>
      <point x="647.253" y="344.036"/>
      <point x="630.294" y="344.036" type="curve" smooth="yes"/>
      <point x="629.87" y="344.036"/>
      <point x="629.439" y="344.024"/>
      <point x="629" y="344" type="curve" smooth="yes"/>
      <point x="605" y="343"/>
      <point x="582" y="321"/>
      <point x="578" y="301" type="curve" smooth="yes"/>
      <point x="547" y="146"/>
      <point x="540" y="-116"/>
      <point x="534" y="-300" type="curve" smooth="yes"/>
      <point x="532" y="-348"/>
      <point x="519" y="-389"/>
      <point x="489" y="-415" type="curve" smooth="yes"/>
      <point x="476.765" y="-425.625"/>
      <point x="466.5" y="-429.719"/>
      <point x="458.539" y="-429.719" type="curve" smooth="yes"/>
      <point x="446.17" y="-429.719"/>
      <point x="439.36" y="-419.838"/>
      <point x="439.36" y="-409.21" type="curve" smooth="yes"/>
      <point x="439.36" y="-405.431"/>
      <point x="440.221" y="-401.557"/>
      <point x="442" y="-398" type="curve" smooth="yes"/>
      <point x="462" y="-359"/>
      <point x="469" y="-335"/>
      <point x="472" y="-294" type="curve" smooth="yes"/>
      <point x="476" y="-218"/>
      <point x="481" y="-78"/>
      <point x="484" y="32" type="curve"/>
      <point x="459" y="29"/>
      <point x="431" y="21"/>
      <point x="400" y="10" type="curve" smooth="yes"/>
      <point x="391" y="7"/>
      <point x="383" y="14"/>
      <point x="382" y="25" type="curve" smooth="yes"/>
      <point x="371" y="130"/>
      <point x="345" y="306"/>
      <point x="292" y="419" type="curve" smooth="yes"/>
      <point x="289" y="426"/>
      <point x="296" y="437"/>
      <point x="304" y="437" type="curve" smooth="yes"/>
    </contour>
    <contour>
      <point x="150" y="446" type="curve" smooth="yes"/>
      <point x="208" y="413"/>
      <point x="244" y="320"/>
      <point x="244" y="226" type="curve" smooth="yes"/>
      <point x="244" y="130"/>
      <point x="210" y="40"/>
      <point x="145" y="0" type="curve" smooth="yes"/>
      <point x="137" y="-5"/>
      <point x="129" y="-6"/>
      <point x="123" y="0" type="curve" smooth="yes"/>
      <point x="69" y="53"/>
      <point x="30" y="129"/>
      <point x="30" y="232" type="curve" smooth="yes"/>
      <point x="30" y="325"/>
      <point x="77" y="413"/>
      <point x="130" y="446" type="curve" smooth="yes"/>
      <point x="137" y="450"/>
      <point x="143" y="450"/>
    </contour>
    <contour>
      <point x="135" y="347" type="curve"/>
      <point x="106" y="314"/>
      <point x="90" y="275"/>
      <point x="90" y="230" type="curve" smooth="yes"/>
      <point x="90" y="188"/>
      <point x="104" y="141"/>
      <point x="138" y="114" type="curve"/>
      <point x="168" y="141"/>
      <point x="184" y="188"/>
      <point x="184" y="229" type="curve" smooth="yes"/>
      <point x="184" y="274"/>
      <point x="162" y="323"/>
    </contour>
  </outline>
</glyph>
